<svg id="Layer_1" data-name="Layer 1" xmlns="http://www.w3.org/2000/svg" viewBox="0 0 414.53 308.88"><defs><style>.cls-1{fill:#ebebeb;}.cls-2,.cls-6{fill:#e0e0e0;}.cls-3{fill:#f5f5f5;}.cls-4{fill:#e6e6e6;}.cls-5{fill:#f0f0f0;}.cls-10,.cls-19,.cls-6,.cls-8{opacity:0.2;}.cls-10,.cls-12,.cls-13,.cls-15,.cls-18,.cls-20,.cls-21,.cls-22,.cls-6,.cls-8,.cls-9{isolation:isolate;}.cls-7{fill:#407bff;}.cls-10,.cls-12,.cls-13,.cls-16,.cls-20,.cls-21,.cls-22,.cls-9{fill:#fff;}.cls-9{opacity:0.5;}.cls-11{fill:#263238;}.cls-12{opacity:0.3;}.cls-13{opacity:0.6;}.cls-14{fill:#e4897b;}.cls-15,.cls-22{opacity:0.1;}.cls-17{fill:#de5753;}.cls-18,.cls-21{opacity:0.4;}.cls-20{opacity:0.7;}</style></defs><g id="freepik--background-complete--inject-6"><rect class="cls-1" y="271.44" width="414.53" height="0.21"/><rect class="cls-1" x="345.54" y="284.77" width="27.46" height="0.21"/><rect class="cls-1" x="267.4" y="287.03" width="7.2" height="0.21"/><rect class="cls-1" x="328.8" y="277.08" width="15.91" height="0.21"/><rect class="cls-1" x="43.49" y="278.47" width="35.81" height="0.21"/><rect class="cls-1" x="86.69" y="278.47" width="5.25" height="0.21"/><rect class="cls-1" x="109" y="281.97" width="77.67" height="0.21"/><path class="cls-1" d="M365.44,422.17H205.35a4.72,4.72,0,0,1-4.72-4.73v-225a4.74,4.74,0,0,1,4.72-4.69H365.44a4.73,4.73,0,0,1,4.73,4.73h0v225A4.73,4.73,0,0,1,365.44,422.17ZM205.35,187.88a4.52,4.52,0,0,0-4.52,4.52v225a4.52,4.52,0,0,0,4.52,4.52H365.44a4.53,4.53,0,0,0,4.52-4.52v-225a4.53,4.53,0,0,0-4.52-4.52Z" transform="translate(-168.95 -187.71)"/><path class="cls-1" d="M544.77,422.17H384.68a4.75,4.75,0,0,1-4.74-4.73v-225a4.75,4.75,0,0,1,4.74-4.69H544.77a4.74,4.74,0,0,1,4.72,4.69v225A4.74,4.74,0,0,1,544.77,422.17ZM384.68,187.88a4.54,4.54,0,0,0-4.53,4.52v225a4.54,4.54,0,0,0,4.53,4.52H544.77a4.54,4.54,0,0,0,4.53-4.52v-225a4.54,4.54,0,0,0-4.53-4.52Z" transform="translate(-168.95 -187.71)"/><rect class="cls-2" x="168.42" y="51.55" width="200.87" height="193.62"/><rect class="cls-3" x="171.64" y="55.07" width="197.64" height="186.72"/><polygon class="cls-4" points="173.1 196.57 173.1 140.4 178.93 140.4 178.93 132.98 192.06 126.85 192.06 119.25 194.25 119.25 194.25 140.4 196.44 140.4 196.44 196.57 199.36 196.57 199.36 167.39 205.92 167.39 205.92 152.07 208.11 152.07 208.11 196.57 213.21 196.57 213.21 179.79 216.86 179.79 216.86 175.41 224.88 175.41 224.88 160.1 229.26 160.1 229.26 149.89 234.37 149.89 234.37 134.56 236.56 134.56 236.56 149.89 241.66 149.89 241.66 160.1 246.03 160.1 246.03 175.41 254.06 175.41 254.06 179.79 257.71 179.79 257.71 196.57 262.08 196.57 262.08 175.41 270.11 175.41 270.11 128.74 272.3 128.74 272.3 123.63 289.8 123.63 289.8 128.74 293.45 128.74 293.45 162.29 308.04 162.29 308.04 165.93 313.14 165.93 313.14 168.12 308.04 168.12 308.04 181.25 323.35 181.25 323.35 137.48 326.27 137.48 326.27 128.74 333.56 128.74 333.56 95.19 335.75 95.19 335.75 128.74 340.86 128.74 340.86 137.48 369.28 137.48 369.28 241.79 171.64 241.79 171.64 196.57 173.1 196.57"/><rect class="cls-5" x="352.03" y="139.77" width="2.06" height="2.06"/><rect class="cls-5" x="352.03" y="143.24" width="2.06" height="2.06"/><rect class="cls-5" x="352.03" y="157.1" width="2.06" height="2.06"/><rect class="cls-5" x="352.03" y="160.56" width="2.06" height="2.06"/><rect class="cls-5" x="352.03" y="164.02" width="2.06" height="2.06"/><rect class="cls-5" x="352.03" y="174.42" width="2.06" height="2.06"/><rect class="cls-5" x="352.03" y="177.88" width="2.06" height="2.06"/><rect class="cls-5" x="348.75" y="153.63" width="2.06" height="2.06"/><rect class="cls-5" x="348.75" y="157.1" width="2.06" height="2.06"/><rect class="cls-5" x="348.75" y="160.56" width="2.06" height="2.06"/><rect class="cls-5" x="348.75" y="164.02" width="2.06" height="2.06"/><rect class="cls-5" x="348.75" y="167.49" width="2.06" height="2.06"/><rect class="cls-5" x="348.75" y="174.42" width="2.06" height="2.06"/><rect class="cls-5" x="348.75" y="177.88" width="2.06" height="2.06"/><rect class="cls-5" x="345.46" y="139.77" width="2.06" height="2.06"/><rect class="cls-5" x="345.46" y="143.24" width="2.06" height="2.06"/><rect class="cls-5" x="345.46" y="146.7" width="2.06" height="2.06"/><rect class="cls-5" x="345.46" y="150.17" width="2.06" height="2.06"/><rect class="cls-5" x="345.46" y="153.63" width="2.06" height="2.06"/><rect class="cls-5" x="345.46" y="157.1" width="2.06" height="2.06"/><rect class="cls-5" x="345.46" y="160.56" width="2.06" height="2.06"/><rect class="cls-5" x="345.46" y="164.02" width="2.06" height="2.06"/><rect class="cls-5" x="345.46" y="167.49" width="2.06" height="2.06"/><rect class="cls-5" x="345.46" y="170.95" width="2.06" height="2.06"/><rect class="cls-5" x="345.46" y="177.88" width="2.06" height="2.06"/><rect class="cls-5" x="342.18" y="139.77" width="2.06" height="2.06"/><rect class="cls-5" x="342.18" y="143.24" width="2.06" height="2.06"/><rect class="cls-5" x="342.18" y="146.7" width="2.06" height="2.06"/><rect class="cls-5" x="342.18" y="150.17" width="2.06" height="2.06"/><rect class="cls-5" x="342.18" y="153.63" width="2.06" height="2.06"/><rect class="cls-5" x="342.18" y="157.1" width="2.06" height="2.06"/><rect class="cls-5" x="342.18" y="160.56" width="2.06" height="2.06"/><rect class="cls-5" x="342.18" y="191.75" width="2.06" height="2.06"/><rect class="cls-5" x="338.9" y="139.77" width="2.06" height="2.06"/><rect class="cls-5" x="338.9" y="143.24" width="2.06" height="2.06"/><rect class="cls-5" x="338.9" y="146.7" width="2.06" height="2.06"/><rect class="cls-5" x="338.9" y="150.17" width="2.06" height="2.06"/><rect class="cls-5" x="338.9" y="153.63" width="2.06" height="2.06"/><rect class="cls-5" x="338.9" y="157.1" width="2.06" height="2.06"/><rect class="cls-5" x="338.9" y="160.56" width="2.06" height="2.06"/><rect class="cls-5" x="338.9" y="164.02" width="2.06" height="2.06"/><rect class="cls-5" x="338.9" y="184.81" width="2.06" height="2.06"/><rect class="cls-5" x="338.9" y="188.28" width="2.06" height="2.06"/><rect class="cls-5" x="338.9" y="191.75" width="2.06" height="2.06"/><rect class="cls-5" x="338.9" y="195.2" width="2.06" height="2.06"/><rect class="cls-5" x="338.9" y="209.06" width="2.06" height="2.06"/><rect class="cls-5" x="335.61" y="139.77" width="2.06" height="2.06"/><rect class="cls-5" x="335.61" y="143.24" width="2.06" height="2.06"/><rect class="cls-5" x="335.61" y="146.7" width="2.06" height="2.06"/><rect class="cls-5" x="335.61" y="150.17" width="2.06" height="2.06"/><rect class="cls-5" x="335.61" y="153.63" width="2.06" height="2.06"/><rect class="cls-5" x="335.61" y="157.1" width="2.06" height="2.06"/><rect class="cls-5" x="335.61" y="160.56" width="2.06" height="2.06"/><rect class="cls-5" x="335.61" y="164.02" width="2.06" height="2.06"/><rect class="cls-5" x="335.61" y="167.49" width="2.06" height="2.06"/><rect class="cls-5" x="335.61" y="170.95" width="2.06" height="2.06"/><rect class="cls-5" x="335.61" y="181.35" width="2.06" height="2.06"/><rect class="cls-5" x="335.61" y="184.81" width="2.06" height="2.06"/><rect class="cls-5" x="335.61" y="188.28" width="2.06" height="2.06"/><rect class="cls-5" x="335.61" y="191.75" width="2.06" height="2.06"/><rect class="cls-5" x="335.61" y="195.2" width="2.06" height="2.06"/><rect class="cls-5" x="335.61" y="209.06" width="2.06" height="2.06"/><rect class="cls-5" x="332.33" y="139.77" width="2.06" height="2.06"/><rect class="cls-5" x="332.33" y="143.24" width="2.06" height="2.06"/><rect class="cls-5" x="332.33" y="146.7" width="2.06" height="2.06"/><rect class="cls-5" x="332.33" y="150.17" width="2.06" height="2.06"/><rect class="cls-5" x="332.33" y="153.63" width="2.06" height="2.06"/><rect class="cls-5" x="332.33" y="157.1" width="2.06" height="2.06"/><rect class="cls-5" x="332.33" y="160.56" width="2.06" height="2.06"/><rect class="cls-5" x="332.33" y="164.02" width="2.06" height="2.06"/><rect class="cls-5" x="332.33" y="167.49" width="2.06" height="2.06"/><rect class="cls-5" x="332.33" y="170.95" width="2.06" height="2.06"/><rect class="cls-5" x="332.33" y="174.42" width="2.06" height="2.06"/><rect class="cls-5" x="332.33" y="177.88" width="2.06" height="2.06"/><rect class="cls-5" x="332.33" y="181.35" width="2.06" height="2.06"/><rect class="cls-5" x="332.33" y="184.81" width="2.06" height="2.06"/><rect class="cls-5" x="332.33" y="188.28" width="2.06" height="2.06"/><rect class="cls-5" x="332.33" y="191.75" width="2.06" height="2.06"/><rect class="cls-5" x="332.33" y="195.2" width="2.06" height="2.06"/><rect class="cls-5" x="332.33" y="198.67" width="2.06" height="2.06"/><rect class="cls-5" x="329.05" y="139.77" width="2.06" height="2.06"/><rect class="cls-5" x="329.05" y="143.24" width="2.06" height="2.06"/><rect class="cls-5" x="329.05" y="146.7" width="2.06" height="2.06"/><rect class="cls-5" x="329.05" y="150.17" width="2.06" height="2.06"/><rect class="cls-5" x="329.05" y="153.63" width="2.06" height="2.06"/><rect class="cls-5" x="329.05" y="157.1" width="2.06" height="2.06"/><rect class="cls-5" x="329.05" y="160.56" width="2.06" height="2.06"/><rect class="cls-5" x="329.05" y="164.02" width="2.06" height="2.06"/><rect class="cls-5" x="329.05" y="167.49" width="2.06" height="2.06"/><rect class="cls-5" x="329.05" y="170.95" width="2.06" height="2.06"/><rect class="cls-5" x="329.05" y="181.35" width="2.06" height="2.06"/><rect class="cls-5" x="329.05" y="184.81" width="2.06" height="2.06"/><rect class="cls-5" x="329.05" y="188.28" width="2.06" height="2.06"/><rect class="cls-5" x="329.05" y="191.75" width="2.06" height="2.06"/><rect class="cls-5" x="325.77" y="139.77" width="2.06" height="2.06"/><rect class="cls-5" x="325.77" y="143.24" width="2.06" height="2.06"/><rect class="cls-5" x="325.77" y="146.7" width="2.06" height="2.06"/><rect class="cls-5" x="325.77" y="150.17" width="2.06" height="2.06"/><rect class="cls-5" x="325.77" y="153.63" width="2.06" height="2.06"/><rect class="cls-5" x="325.77" y="157.1" width="2.06" height="2.06"/><rect class="cls-5" x="325.77" y="160.56" width="2.06" height="2.06"/><rect class="cls-5" x="325.77" y="164.02" width="2.06" height="2.06"/><rect class="cls-5" x="325.77" y="167.49" width="2.06" height="2.06"/><rect class="cls-5" x="325.77" y="170.95" width="2.06" height="2.06"/><rect class="cls-5" x="325.77" y="181.35" width="2.06" height="2.06"/><rect class="cls-5" x="325.77" y="184.81" width="2.06" height="2.06"/><rect class="cls-5" x="325.77" y="188.28" width="2.06" height="2.06"/><rect class="cls-5" x="288.81" y="130.78" width="2.06" height="2.06"/><rect class="cls-5" x="288.81" y="134.24" width="2.06" height="2.06"/><rect class="cls-5" x="288.81" y="137.71" width="2.06" height="2.06"/><rect class="cls-5" x="288.81" y="141.17" width="2.06" height="2.06"/><rect class="cls-5" x="288.81" y="144.64" width="2.06" height="2.06"/><rect class="cls-5" x="288.81" y="148.1" width="2.06" height="2.06"/><rect class="cls-5" x="288.81" y="151.56" width="2.06" height="2.06"/><rect class="cls-5" x="288.81" y="155.03" width="2.06" height="2.06"/><rect class="cls-5" x="288.81" y="165.42" width="2.06" height="2.06"/><rect class="cls-5" x="288.81" y="168.89" width="2.06" height="2.06"/><rect class="cls-5" x="285.53" y="130.78" width="2.06" height="2.06"/><rect class="cls-5" x="285.53" y="134.24" width="2.06" height="2.06"/><rect class="cls-5" x="285.53" y="137.71" width="2.06" height="2.06"/><rect class="cls-5" x="285.53" y="141.17" width="2.06" height="2.06"/><rect class="cls-5" x="285.53" y="144.64" width="2.06" height="2.06"/><rect class="cls-5" x="285.53" y="148.1" width="2.06" height="2.06"/><rect class="cls-5" x="285.53" y="151.56" width="2.06" height="2.06"/><rect class="cls-5" x="285.53" y="155.03" width="2.06" height="2.06"/><rect class="cls-5" x="285.53" y="168.89" width="2.06" height="2.06"/><rect class="cls-5" x="282.25" y="130.78" width="2.06" height="2.06"/><rect class="cls-5" x="282.25" y="134.24" width="2.06" height="2.06"/><rect class="cls-5" x="282.25" y="137.71" width="2.06" height="2.06"/><rect class="cls-5" x="282.25" y="141.17" width="2.06" height="2.06"/><rect class="cls-5" x="282.25" y="144.64" width="2.06" height="2.06"/><rect class="cls-5" x="282.25" y="148.1" width="2.06" height="2.06"/><rect class="cls-5" x="282.25" y="151.56" width="2.06" height="2.06"/><rect class="cls-5" x="282.25" y="155.03" width="2.06" height="2.06"/><rect class="cls-5" x="278.96" y="130.78" width="2.06" height="2.06"/><rect class="cls-5" x="278.96" y="134.24" width="2.06" height="2.06"/><rect class="cls-5" x="278.96" y="137.71" width="2.06" height="2.06"/><rect class="cls-5" x="278.96" y="141.17" width="2.06" height="2.06"/><rect class="cls-5" x="278.96" y="144.64" width="2.06" height="2.06"/><rect class="cls-5" x="278.96" y="148.1" width="2.06" height="2.06"/><rect class="cls-5" x="278.96" y="155.03" width="2.06" height="2.06"/><rect class="cls-5" x="278.96" y="158.49" width="2.06" height="2.06"/><rect class="cls-5" x="278.96" y="168.89" width="2.06" height="2.06"/><rect class="cls-5" x="278.96" y="172.35" width="2.06" height="2.06"/><rect class="cls-5" x="278.96" y="175.82" width="2.06" height="2.06"/><rect class="cls-5" x="278.96" y="179.28" width="2.06" height="2.06"/><rect class="cls-5" x="278.96" y="182.75" width="2.06" height="2.06"/><rect class="cls-5" x="278.96" y="186.21" width="2.06" height="2.06"/><rect class="cls-5" x="278.96" y="189.67" width="2.06" height="2.06"/><rect class="cls-5" x="275.68" y="130.78" width="2.06" height="2.06"/><rect class="cls-5" x="275.68" y="134.24" width="2.06" height="2.06"/><rect class="cls-5" x="275.68" y="137.71" width="2.06" height="2.06"/><rect class="cls-5" x="275.68" y="141.17" width="2.06" height="2.06"/><rect class="cls-5" x="275.68" y="144.64" width="2.06" height="2.06"/><rect class="cls-5" x="275.68" y="148.1" width="2.06" height="2.06"/><rect class="cls-5" x="275.68" y="158.49" width="2.06" height="2.06"/><rect class="cls-5" x="275.68" y="161.96" width="2.06" height="2.06"/><rect class="cls-5" x="275.68" y="165.42" width="2.06" height="2.06"/><rect class="cls-5" x="275.68" y="168.89" width="2.06" height="2.06"/><rect class="cls-5" x="275.68" y="172.35" width="2.06" height="2.06"/><rect class="cls-5" x="275.68" y="175.82" width="2.06" height="2.06"/><rect class="cls-5" x="275.68" y="179.28" width="2.06" height="2.06"/><rect class="cls-5" x="275.68" y="182.75" width="2.06" height="2.06"/><rect class="cls-5" x="275.68" y="186.21" width="2.06" height="2.06"/><rect class="cls-5" x="275.68" y="189.67" width="2.06" height="2.06"/><rect class="cls-5" x="275.68" y="193.14" width="2.06" height="2.06"/><rect class="cls-5" x="275.68" y="200.07" width="2.06" height="2.06"/><rect class="cls-5" x="272.4" y="130.78" width="2.06" height="2.06"/><rect class="cls-5" x="272.4" y="134.24" width="2.06" height="2.06"/><rect class="cls-5" x="272.4" y="137.71" width="2.06" height="2.06"/><rect class="cls-5" x="272.4" y="141.17" width="2.06" height="2.06"/><rect class="cls-5" x="272.4" y="144.64" width="2.06" height="2.06"/><rect class="cls-5" x="272.4" y="148.1" width="2.06" height="2.06"/><rect class="cls-5" x="272.4" y="158.49" width="2.06" height="2.06"/><rect class="cls-5" x="272.4" y="161.96" width="2.06" height="2.06"/><rect class="cls-5" x="272.4" y="165.42" width="2.06" height="2.06"/><rect class="cls-5" x="272.4" y="168.89" width="2.06" height="2.06"/><rect class="cls-5" x="272.4" y="179.28" width="2.06" height="2.06"/><rect class="cls-5" x="272.4" y="182.75" width="2.06" height="2.06"/><rect class="cls-5" x="272.4" y="186.21" width="2.06" height="2.06"/><rect class="cls-5" x="272.4" y="189.67" width="2.06" height="2.06"/><rect class="cls-5" x="272.4" y="193.14" width="2.06" height="2.06"/><rect class="cls-5" x="272.4" y="200.07" width="2.06" height="2.06"/><rect class="cls-5" x="272.4" y="203.53" width="2.06" height="2.06"/><rect class="cls-5" x="242.62" y="162.99" width="2.06" height="2.06"/><rect class="cls-5" x="242.62" y="166.46" width="2.06" height="2.06"/><rect class="cls-5" x="242.62" y="169.92" width="2.06" height="2.06"/><rect class="cls-5" x="242.62" y="173.38" width="2.06" height="2.06"/><rect class="cls-5" x="242.62" y="176.85" width="2.06" height="2.06"/><rect class="cls-5" x="242.62" y="180.31" width="2.06" height="2.06"/><rect class="cls-5" x="242.62" y="183.78" width="2.06" height="2.06"/><rect class="cls-5" x="242.62" y="194.17" width="2.06" height="2.06"/><rect class="cls-5" x="242.62" y="197.64" width="2.06" height="2.06"/><rect class="cls-5" x="242.62" y="201.11" width="2.06" height="2.06"/><rect class="cls-5" x="239.33" y="162.99" width="2.06" height="2.06"/><rect class="cls-5" x="239.33" y="166.46" width="2.06" height="2.06"/><rect class="cls-5" x="239.33" y="169.92" width="2.06" height="2.06"/><rect class="cls-5" x="239.33" y="173.38" width="2.06" height="2.06"/><rect class="cls-5" x="239.33" y="176.85" width="2.06" height="2.06"/><rect class="cls-5" x="239.33" y="180.31" width="2.06" height="2.06"/><rect class="cls-5" x="239.33" y="183.78" width="2.06" height="2.06"/><rect class="cls-5" x="236.05" y="162.99" width="2.06" height="2.06"/><rect class="cls-5" x="236.05" y="166.46" width="2.06" height="2.06"/><rect class="cls-5" x="236.05" y="169.92" width="2.06" height="2.06"/><rect class="cls-5" x="236.05" y="173.38" width="2.06" height="2.06"/><rect class="cls-5" x="236.05" y="176.85" width="2.06" height="2.06"/><rect class="cls-5" x="236.05" y="180.31" width="2.06" height="2.06"/><rect class="cls-5" x="236.05" y="183.78" width="2.06" height="2.06"/><rect class="cls-5" x="232.77" y="162.99" width="2.06" height="2.06"/><rect class="cls-5" x="232.77" y="166.46" width="2.06" height="2.06"/><rect class="cls-5" x="232.77" y="169.92" width="2.06" height="2.06"/><rect class="cls-5" x="232.77" y="173.38" width="2.06" height="2.06"/><rect class="cls-5" x="232.77" y="176.85" width="2.06" height="2.06"/><rect class="cls-5" x="232.77" y="180.31" width="2.06" height="2.06"/><rect class="cls-5" x="232.77" y="183.78" width="2.06" height="2.06"/><rect class="cls-5" x="232.77" y="187.24" width="2.06" height="2.06"/><rect class="cls-5" x="232.77" y="190.71" width="2.06" height="2.06"/><rect class="cls-5" x="232.77" y="194.17" width="2.06" height="2.06"/><rect class="cls-5" x="232.77" y="197.64" width="2.06" height="2.06"/><rect class="cls-5" x="229.48" y="162.99" width="2.06" height="2.06"/><rect class="cls-5" x="229.48" y="166.46" width="2.06" height="2.06"/><rect class="cls-5" x="229.48" y="169.92" width="2.06" height="2.06"/><rect class="cls-5" x="229.48" y="173.38" width="2.06" height="2.06"/><rect class="cls-5" x="229.48" y="176.85" width="2.06" height="2.06"/><rect class="cls-5" x="229.48" y="180.31" width="2.06" height="2.06"/><rect class="cls-5" x="229.48" y="183.78" width="2.06" height="2.06"/><rect class="cls-5" x="229.48" y="187.24" width="2.06" height="2.06"/><rect class="cls-5" x="229.48" y="190.71" width="2.06" height="2.06"/><rect class="cls-5" x="229.48" y="194.17" width="2.06" height="2.06"/><rect class="cls-5" x="229.48" y="197.64" width="2.06" height="2.06"/><rect class="cls-5" x="229.48" y="201.11" width="2.06" height="2.06"/><rect class="cls-5" x="229.48" y="211.49" width="2.06" height="2.06"/><rect class="cls-5" x="229.48" y="214.96" width="2.06" height="2.06"/><rect class="cls-5" x="226.2" y="162.99" width="2.06" height="2.06"/><rect class="cls-5" x="226.2" y="166.46" width="2.06" height="2.06"/><rect class="cls-5" x="226.2" y="169.92" width="2.06" height="2.06"/><rect class="cls-5" x="226.2" y="180.31" width="2.06" height="2.06"/><rect class="cls-5" x="226.2" y="183.78" width="2.06" height="2.06"/><rect class="cls-5" x="226.2" y="187.24" width="2.06" height="2.06"/><rect class="cls-5" x="226.2" y="190.71" width="2.06" height="2.06"/><rect class="cls-5" x="226.2" y="194.17" width="2.06" height="2.06"/><rect class="cls-5" x="226.2" y="197.64" width="2.06" height="2.06"/><rect class="cls-5" x="226.2" y="201.11" width="2.06" height="2.06"/><rect class="cls-5" x="226.2" y="211.49" width="2.06" height="2.06"/><rect class="cls-5" x="226.2" y="214.96" width="2.06" height="2.06"/><rect class="cls-5" x="226.2" y="218.42" width="2.06" height="2.06"/><rect class="cls-5" x="191.8" y="142.2" width="2.06" height="2.06"/><rect class="cls-5" x="191.8" y="145.67" width="2.06" height="2.06"/><rect class="cls-5" x="191.8" y="149.13" width="2.06" height="2.06"/><rect class="cls-5" x="191.8" y="152.6" width="2.06" height="2.06"/><rect class="cls-5" x="191.8" y="156.06" width="2.06" height="2.06"/><rect class="cls-5" x="191.8" y="159.53" width="2.06" height="2.06"/><rect class="cls-5" x="191.8" y="162.99" width="2.06" height="2.06"/><rect class="cls-5" x="191.8" y="166.46" width="2.06" height="2.06"/><rect class="cls-5" x="191.8" y="169.92" width="2.06" height="2.06"/><rect class="cls-5" x="191.8" y="173.38" width="2.06" height="2.06"/><rect class="cls-5" x="191.8" y="176.85" width="2.06" height="2.06"/><rect class="cls-5" x="191.8" y="180.31" width="2.06" height="2.06"/><rect class="cls-5" x="191.8" y="183.78" width="2.06" height="2.06"/><rect class="cls-5" x="191.8" y="187.24" width="2.06" height="2.06"/><rect class="cls-5" x="191.8" y="190.71" width="2.06" height="2.06"/><rect class="cls-5" x="191.8" y="194.17" width="2.06" height="2.06"/><rect class="cls-5" x="191.8" y="197.64" width="2.06" height="2.06"/><rect class="cls-5" x="191.8" y="201.11" width="2.06" height="2.06"/><rect class="cls-5" x="191.8" y="204.57" width="2.06" height="2.06"/><rect class="cls-5" x="191.8" y="208.03" width="2.06" height="2.06"/><rect class="cls-5" x="191.8" y="211.49" width="2.06" height="2.06"/><rect class="cls-5" x="191.8" y="214.96" width="2.06" height="2.06"/><rect class="cls-5" x="191.8" y="218.42" width="2.06" height="2.06"/><rect class="cls-5" x="188.52" y="142.2" width="2.06" height="2.06"/><rect class="cls-5" x="188.52" y="145.67" width="2.06" height="2.06"/><rect class="cls-5" x="188.52" y="149.13" width="2.06" height="2.06"/><rect class="cls-5" x="188.52" y="152.6" width="2.06" height="2.06"/><rect class="cls-5" x="188.52" y="156.06" width="2.06" height="2.06"/><rect class="cls-5" x="188.52" y="159.53" width="2.06" height="2.06"/><rect class="cls-5" x="188.52" y="162.99" width="2.06" height="2.06"/><rect class="cls-5" x="188.52" y="166.46" width="2.06" height="2.06"/><rect class="cls-5" x="188.52" y="169.92" width="2.06" height="2.06"/><rect class="cls-5" x="188.52" y="173.38" width="2.06" height="2.06"/><rect class="cls-5" x="188.52" y="176.85" width="2.06" height="2.06"/><rect class="cls-5" x="188.52" y="180.31" width="2.06" height="2.06"/><rect class="cls-5" x="188.52" y="183.78" width="2.06" height="2.06"/><rect class="cls-5" x="188.52" y="187.24" width="2.06" height="2.06"/><rect class="cls-5" x="188.52" y="190.71" width="2.06" height="2.06"/><rect class="cls-5" x="188.52" y="194.17" width="2.06" height="2.06"/><rect class="cls-5" x="188.52" y="197.64" width="2.06" height="2.06"/><rect class="cls-5" x="188.52" y="201.11" width="2.06" height="2.06"/><rect class="cls-5" x="188.52" y="204.57" width="2.06" height="2.06"/><rect class="cls-5" x="185.24" y="142.2" width="2.06" height="2.06"/><rect class="cls-5" x="185.24" y="145.67" width="2.06" height="2.06"/><rect class="cls-5" x="185.24" y="149.13" width="2.06" height="2.06"/><rect class="cls-5" x="185.24" y="152.6" width="2.06" height="2.06"/><rect class="cls-5" x="185.24" y="156.06" width="2.06" height="2.06"/><rect class="cls-5" x="185.24" y="159.53" width="2.06" height="2.06"/><rect class="cls-5" x="185.24" y="162.99" width="2.06" height="2.06"/><rect class="cls-5" x="185.24" y="166.46" width="2.06" height="2.06"/><rect class="cls-5" x="185.24" y="169.92" width="2.06" height="2.06"/><rect class="cls-5" x="185.24" y="173.38" width="2.06" height="2.06"/><rect class="cls-5" x="185.24" y="176.85" width="2.06" height="2.06"/><rect class="cls-5" x="185.24" y="180.31" width="2.06" height="2.06"/><rect class="cls-5" x="185.24" y="183.78" width="2.06" height="2.06"/><rect class="cls-5" x="185.24" y="187.24" width="2.06" height="2.06"/><rect class="cls-5" x="185.24" y="190.71" width="2.06" height="2.06"/><rect class="cls-5" x="185.24" y="194.17" width="2.06" height="2.06"/><rect class="cls-5" x="185.24" y="197.64" width="2.06" height="2.06"/><rect class="cls-5" x="185.24" y="201.11" width="2.06" height="2.06"/><rect class="cls-5" x="185.24" y="204.57" width="2.06" height="2.06"/><rect class="cls-5" x="181.95" y="142.2" width="2.06" height="2.06"/><rect class="cls-5" x="181.95" y="145.67" width="2.06" height="2.06"/><rect class="cls-5" x="181.95" y="149.13" width="2.06" height="2.06"/><rect class="cls-5" x="181.95" y="152.6" width="2.06" height="2.06"/><rect class="cls-5" x="181.95" y="156.06" width="2.06" height="2.06"/><rect class="cls-5" x="181.95" y="159.53" width="2.06" height="2.06"/><rect class="cls-5" x="181.95" y="162.99" width="2.06" height="2.06"/><rect class="cls-5" x="181.95" y="166.46" width="2.06" height="2.06"/><rect class="cls-5" x="181.95" y="169.92" width="2.06" height="2.06"/><rect class="cls-5" x="181.95" y="173.38" width="2.06" height="2.06"/><rect class="cls-5" x="181.95" y="176.85" width="2.06" height="2.06"/><rect class="cls-5" x="181.95" y="180.31" width="2.06" height="2.06"/><rect class="cls-5" x="181.95" y="183.78" width="2.06" height="2.06"/><rect class="cls-5" x="181.95" y="187.24" width="2.06" height="2.06"/><rect class="cls-5" x="181.95" y="190.71" width="2.06" height="2.06"/><rect class="cls-5" x="178.67" y="142.2" width="2.06" height="2.06"/><rect class="cls-5" x="178.67" y="145.67" width="2.06" height="2.06"/><rect class="cls-5" x="178.67" y="149.13" width="2.06" height="2.06"/><rect class="cls-5" x="178.67" y="152.6" width="2.06" height="2.06"/><rect class="cls-5" x="178.67" y="156.06" width="2.06" height="2.06"/><rect class="cls-5" x="178.67" y="159.53" width="2.06" height="2.06"/><rect class="cls-5" x="178.67" y="162.99" width="2.06" height="2.06"/><rect class="cls-5" x="178.67" y="166.46" width="2.06" height="2.06"/><rect class="cls-5" x="178.67" y="169.92" width="2.06" height="2.06"/><rect class="cls-5" x="178.67" y="173.38" width="2.06" height="2.06"/><rect class="cls-5" x="178.67" y="176.85" width="2.06" height="2.06"/><rect class="cls-5" x="178.67" y="180.31" width="2.06" height="2.06"/><rect class="cls-5" x="178.67" y="183.78" width="2.06" height="2.06"/><rect class="cls-5" x="175.39" y="142.2" width="2.06" height="2.06"/><rect class="cls-5" x="175.39" y="145.67" width="2.06" height="2.06"/><rect class="cls-5" x="175.39" y="149.13" width="2.06" height="2.06"/><rect class="cls-5" x="175.39" y="152.6" width="2.06" height="2.06"/><rect class="cls-5" x="175.39" y="156.06" width="2.06" height="2.06"/><rect class="cls-5" x="175.39" y="159.53" width="2.06" height="2.06"/><rect class="cls-5" x="175.39" y="162.99" width="2.06" height="2.06"/><rect class="cls-5" x="175.39" y="166.46" width="2.06" height="2.06"/><rect class="cls-5" x="175.39" y="169.92" width="2.06" height="2.06"/><rect class="cls-5" x="175.39" y="173.38" width="2.06" height="2.06"/><rect class="cls-5" x="175.39" y="176.85" width="2.06" height="2.06"/><rect class="cls-5" x="175.39" y="180.31" width="2.06" height="2.06"/><rect class="cls-5" x="366.98" y="141.17" width="2.06" height="2.06"/><rect class="cls-5" x="366.98" y="144.64" width="2.06" height="2.06"/><rect class="cls-5" x="366.98" y="148.1" width="2.06" height="2.06"/><rect class="cls-5" x="366.98" y="151.56" width="2.06" height="2.06"/><rect class="cls-5" x="366.98" y="155.03" width="2.06" height="2.06"/><rect class="cls-5" x="366.98" y="158.49" width="2.06" height="2.06"/><rect class="cls-5" x="366.98" y="161.96" width="2.06" height="2.06"/><rect class="cls-5" x="366.98" y="165.42" width="2.06" height="2.06"/><rect class="cls-5" x="366.98" y="168.89" width="2.06" height="2.06"/><rect class="cls-5" x="366.98" y="172.35" width="2.06" height="2.06"/><rect class="cls-5" x="366.98" y="175.82" width="2.06" height="2.06"/><rect class="cls-5" x="366.98" y="179.28" width="2.06" height="2.06"/><rect class="cls-5" x="366.98" y="182.75" width="2.06" height="2.06"/><rect class="cls-5" x="366.98" y="186.21" width="2.06" height="2.06"/><rect class="cls-5" x="366.98" y="189.67" width="2.06" height="2.06"/><rect class="cls-5" x="366.98" y="193.14" width="2.06" height="2.06"/><rect class="cls-5" x="366.98" y="196.6" width="2.06" height="2.06"/><rect class="cls-5" x="366.98" y="203.53" width="2.06" height="2.06"/><rect class="cls-5" x="366.98" y="207" width="2.06" height="2.06"/><rect class="cls-5" x="366.98" y="210.47" width="2.06" height="2.06"/><rect class="cls-5" x="366.98" y="213.93" width="2.06" height="2.06"/><rect class="cls-5" x="366.98" y="217.39" width="2.06" height="2.06"/><rect class="cls-5" x="363.69" y="141.17" width="2.06" height="2.06"/><rect class="cls-5" x="363.69" y="144.64" width="2.06" height="2.06"/><rect class="cls-5" x="363.69" y="148.1" width="2.06" height="2.06"/><rect class="cls-5" x="363.69" y="151.56" width="2.06" height="2.06"/><rect class="cls-5" x="363.69" y="155.03" width="2.06" height="2.06"/><rect class="cls-5" x="363.69" y="158.49" width="2.06" height="2.06"/><rect class="cls-5" x="363.69" y="161.96" width="2.06" height="2.06"/><rect class="cls-5" x="363.69" y="165.42" width="2.06" height="2.06"/><rect class="cls-5" x="363.69" y="168.89" width="2.06" height="2.06"/><rect class="cls-5" x="363.69" y="172.35" width="2.06" height="2.06"/><rect class="cls-5" x="363.69" y="175.82" width="2.06" height="2.06"/><rect class="cls-5" x="363.69" y="179.28" width="2.06" height="2.06"/><rect class="cls-5" x="363.69" y="182.75" width="2.06" height="2.06"/><rect class="cls-5" x="363.69" y="186.21" width="2.06" height="2.06"/><rect class="cls-5" x="363.69" y="189.67" width="2.06" height="2.06"/><rect class="cls-5" x="363.69" y="193.14" width="2.06" height="2.06"/><rect class="cls-5" x="363.69" y="213.93" width="2.06" height="2.06"/><rect class="cls-5" x="363.69" y="217.39" width="2.06" height="2.06"/><rect class="cls-5" x="360.42" y="141.17" width="2.06" height="2.06"/><rect class="cls-5" x="360.42" y="144.64" width="2.06" height="2.06"/><rect class="cls-5" x="360.42" y="148.1" width="2.06" height="2.06"/><rect class="cls-5" x="360.42" y="151.56" width="2.06" height="2.06"/><rect class="cls-5" x="360.42" y="155.03" width="2.06" height="2.06"/><rect class="cls-5" x="360.42" y="158.49" width="2.06" height="2.06"/><rect class="cls-5" x="360.42" y="161.96" width="2.06" height="2.06"/><rect class="cls-5" x="360.42" y="165.42" width="2.06" height="2.06"/><rect class="cls-5" x="360.42" y="168.89" width="2.06" height="2.06"/><rect class="cls-5" x="360.42" y="172.35" width="2.06" height="2.06"/><rect class="cls-5" x="360.42" y="175.82" width="2.06" height="2.06"/><rect class="cls-5" x="360.42" y="179.28" width="2.06" height="2.06"/><rect class="cls-5" x="360.42" y="182.75" width="2.06" height="2.06"/><rect class="cls-5" x="360.42" y="186.21" width="2.06" height="2.06"/><rect class="cls-5" x="360.42" y="189.67" width="2.06" height="2.06"/><rect class="cls-5" x="360.42" y="193.14" width="2.06" height="2.06"/><rect class="cls-5" x="360.42" y="200.07" width="2.06" height="2.06"/><rect class="cls-5" x="360.42" y="203.53" width="2.06" height="2.06"/><rect class="cls-5" x="360.42" y="207" width="2.06" height="2.06"/><rect class="cls-5" x="360.42" y="210.47" width="2.06" height="2.06"/><rect class="cls-5" x="360.42" y="217.39" width="2.06" height="2.06"/><rect class="cls-5" x="303.15" y="165.42" width="2.06" height="2.06"/><rect class="cls-5" x="303.15" y="168.89" width="2.06" height="2.06"/><rect class="cls-5" x="303.15" y="172.35" width="2.06" height="2.06"/><rect class="cls-5" x="303.15" y="175.82" width="2.06" height="2.06"/><rect class="cls-5" x="303.15" y="179.28" width="2.06" height="2.06"/><rect class="cls-5" x="303.15" y="182.75" width="2.06" height="2.06"/><rect class="cls-5" x="303.15" y="186.21" width="2.06" height="2.06"/><rect class="cls-5" x="303.15" y="189.67" width="2.06" height="2.06"/><rect class="cls-5" x="303.15" y="193.14" width="2.06" height="2.06"/><rect class="cls-5" x="303.15" y="196.6" width="2.06" height="2.06"/><rect class="cls-5" x="303.15" y="200.07" width="2.06" height="2.06"/><rect class="cls-5" x="303.15" y="203.53" width="2.06" height="2.06"/><rect class="cls-5" x="303.15" y="207" width="2.06" height="2.06"/><rect class="cls-5" x="303.15" y="213.93" width="2.06" height="2.06"/><rect class="cls-5" x="303.15" y="217.39" width="2.06" height="2.06"/><rect class="cls-5" x="303.15" y="220.85" width="2.06" height="2.06"/><rect class="cls-5" x="303.15" y="224.32" width="2.06" height="2.06"/><rect class="cls-5" x="303.15" y="231.25" width="2.06" height="2.06"/><rect class="cls-5" x="303.15" y="234.72" width="2.06" height="2.06"/><rect class="cls-5" x="303.15" y="238.18" width="2.06" height="2.06"/><rect class="cls-5" x="299.87" y="165.42" width="2.06" height="2.06"/><rect class="cls-5" x="299.87" y="168.89" width="2.06" height="2.06"/><rect class="cls-5" x="299.87" y="172.35" width="2.06" height="2.06"/><rect class="cls-5" x="299.87" y="175.82" width="2.06" height="2.06"/><rect class="cls-5" x="299.87" y="179.28" width="2.06" height="2.06"/><rect class="cls-5" x="299.87" y="182.75" width="2.06" height="2.06"/><rect class="cls-5" x="299.87" y="186.21" width="2.06" height="2.06"/><rect class="cls-5" x="299.87" y="189.67" width="2.06" height="2.06"/><rect class="cls-5" x="299.87" y="193.14" width="2.06" height="2.06"/><rect class="cls-5" x="299.87" y="196.6" width="2.06" height="2.06"/><rect class="cls-5" x="299.87" y="200.07" width="2.06" height="2.06"/><rect class="cls-5" x="299.87" y="203.53" width="2.06" height="2.06"/><rect class="cls-5" x="299.87" y="207" width="2.06" height="2.06"/><rect class="cls-5" x="299.87" y="217.39" width="2.06" height="2.06"/><rect class="cls-5" x="299.87" y="220.85" width="2.06" height="2.06"/><rect class="cls-5" x="299.87" y="227.78" width="2.06" height="2.06"/><rect class="cls-5" x="299.87" y="231.25" width="2.06" height="2.06"/><rect class="cls-5" x="299.87" y="234.72" width="2.06" height="2.06"/><rect class="cls-5" x="299.87" y="238.18" width="2.06" height="2.06"/><rect class="cls-5" x="296.59" y="165.42" width="2.06" height="2.06"/><rect class="cls-5" x="296.59" y="168.89" width="2.06" height="2.06"/><rect class="cls-5" x="296.59" y="172.35" width="2.06" height="2.06"/><rect class="cls-5" x="296.59" y="175.82" width="2.06" height="2.06"/><rect class="cls-5" x="296.59" y="179.28" width="2.06" height="2.06"/><rect class="cls-5" x="296.59" y="182.75" width="2.06" height="2.06"/><rect class="cls-5" x="296.59" y="186.21" width="2.06" height="2.06"/><rect class="cls-5" x="296.59" y="189.67" width="2.06" height="2.06"/><rect class="cls-5" x="296.59" y="193.14" width="2.06" height="2.06"/><rect class="cls-5" x="296.59" y="196.6" width="2.06" height="2.06"/><rect class="cls-5" x="296.59" y="200.07" width="2.06" height="2.06"/><rect class="cls-5" x="296.59" y="203.53" width="2.06" height="2.06"/><rect class="cls-5" x="296.59" y="207" width="2.06" height="2.06"/><rect class="cls-5" x="296.59" y="210.47" width="2.06" height="2.06"/><rect class="cls-5" x="296.59" y="217.39" width="2.06" height="2.06"/><rect class="cls-5" x="296.59" y="224.32" width="2.06" height="2.06"/><rect class="cls-5" x="296.59" y="227.78" width="2.06" height="2.06"/><rect class="cls-5" x="296.59" y="231.25" width="2.06" height="2.06"/><rect class="cls-5" x="296.59" y="234.72" width="2.06" height="2.06"/><rect class="cls-5" x="296.59" y="238.18" width="2.06" height="2.06"/><rect class="cls-5" x="316.53" y="185.18" width="2.06" height="2.06"/><rect class="cls-5" x="316.53" y="188.64" width="2.06" height="2.06"/><rect class="cls-5" x="316.53" y="192.11" width="2.06" height="2.06"/><rect class="cls-5" x="316.53" y="195.57" width="2.06" height="2.06"/><rect class="cls-5" x="316.53" y="199.03" width="2.06" height="2.06"/><rect class="cls-5" x="316.53" y="202.5" width="2.06" height="2.06"/><rect class="cls-5" x="316.53" y="212.89" width="2.06" height="2.06"/><rect class="cls-5" x="316.53" y="216.36" width="2.06" height="2.06"/><rect class="cls-5" x="316.53" y="219.83" width="2.06" height="2.06"/><rect class="cls-5" x="316.53" y="223.29" width="2.06" height="2.06"/><rect class="cls-5" x="316.53" y="226.76" width="2.06" height="2.06"/><rect class="cls-5" x="316.53" y="230.21" width="2.06" height="2.06"/><rect class="cls-5" x="316.53" y="233.68" width="2.06" height="2.06"/><rect class="cls-5" x="313.24" y="185.18" width="2.06" height="2.06"/><rect class="cls-5" x="313.24" y="188.64" width="2.06" height="2.06"/><rect class="cls-5" x="313.24" y="192.11" width="2.06" height="2.06"/><rect class="cls-5" x="313.24" y="195.57" width="2.06" height="2.06"/><rect class="cls-5" x="313.24" y="199.03" width="2.06" height="2.06"/><rect class="cls-5" x="313.24" y="202.5" width="2.06" height="2.06"/><rect class="cls-5" x="313.24" y="212.89" width="2.06" height="2.06"/><rect class="cls-5" x="313.24" y="216.36" width="2.06" height="2.06"/><rect class="cls-5" x="313.24" y="219.83" width="2.06" height="2.06"/><rect class="cls-5" x="313.24" y="223.29" width="2.06" height="2.06"/><rect class="cls-5" x="313.24" y="226.76" width="2.06" height="2.06"/><rect class="cls-5" x="313.24" y="230.21" width="2.06" height="2.06"/><rect class="cls-5" x="313.24" y="237.15" width="2.06" height="2.06"/><rect class="cls-5" x="204.2" y="169.92" width="2.06" height="2.06"/><rect class="cls-5" x="204.2" y="173.38" width="2.06" height="2.06"/><rect class="cls-5" x="204.2" y="176.85" width="2.06" height="2.06"/><rect class="cls-5" x="204.2" y="180.31" width="2.06" height="2.06"/><rect class="cls-5" x="204.2" y="183.78" width="2.06" height="2.06"/><rect class="cls-5" x="204.2" y="187.24" width="2.06" height="2.06"/><rect class="cls-5" x="204.2" y="190.71" width="2.06" height="2.06"/><rect class="cls-5" x="204.2" y="194.17" width="2.06" height="2.06"/><rect class="cls-5" x="204.2" y="197.64" width="2.06" height="2.06"/><rect class="cls-5" x="204.2" y="201.11" width="2.06" height="2.06"/><rect class="cls-5" x="204.2" y="204.57" width="2.06" height="2.06"/><rect class="cls-5" x="204.2" y="211.49" width="2.06" height="2.06"/><rect class="cls-5" x="204.2" y="214.96" width="2.06" height="2.06"/><rect class="cls-5" x="204.2" y="218.42" width="2.06" height="2.06"/><rect class="cls-5" x="204.2" y="221.89" width="2.06" height="2.06"/><rect class="cls-5" x="204.2" y="225.36" width="2.06" height="2.06"/><rect class="cls-5" x="204.2" y="228.82" width="2.06" height="2.06"/><rect class="cls-5" x="204.2" y="232.29" width="2.06" height="2.06"/><rect class="cls-5" x="204.2" y="235.75" width="2.06" height="2.06"/><rect class="cls-5" x="200.92" y="169.92" width="2.06" height="2.06"/><rect class="cls-5" x="200.92" y="173.38" width="2.06" height="2.06"/><rect class="cls-5" x="200.92" y="176.85" width="2.06" height="2.06"/><rect class="cls-5" x="200.92" y="180.31" width="2.06" height="2.06"/><rect class="cls-5" x="200.92" y="183.78" width="2.06" height="2.06"/><rect class="cls-5" x="200.92" y="187.24" width="2.06" height="2.06"/><rect class="cls-5" x="200.92" y="190.71" width="2.06" height="2.06"/><rect class="cls-5" x="200.92" y="194.17" width="2.06" height="2.06"/><rect class="cls-5" x="200.92" y="197.64" width="2.06" height="2.06"/><rect class="cls-5" x="200.92" y="201.11" width="2.06" height="2.06"/><rect class="cls-5" x="200.92" y="204.57" width="2.06" height="2.06"/><rect class="cls-5" x="200.92" y="208.03" width="2.06" height="2.06"/><rect class="cls-5" x="200.92" y="211.49" width="2.06" height="2.06"/><rect class="cls-5" x="200.92" y="214.96" width="2.06" height="2.06"/><rect class="cls-5" x="200.92" y="218.42" width="2.06" height="2.06"/><rect class="cls-5" x="200.92" y="221.89" width="2.06" height="2.06"/><rect class="cls-5" x="200.92" y="225.36" width="2.06" height="2.06"/><rect class="cls-5" x="200.92" y="228.82" width="2.06" height="2.06"/><rect class="cls-5" x="200.92" y="232.29" width="2.06" height="2.06"/><rect class="cls-5" x="200.92" y="235.75" width="2.06" height="2.06"/><rect class="cls-5" x="220.37" y="183.41" width="2.06" height="2.06"/><rect class="cls-5" x="220.37" y="186.88" width="2.06" height="2.06"/><rect class="cls-5" x="220.37" y="190.34" width="2.06" height="2.06"/><rect class="cls-5" x="220.37" y="193.81" width="2.06" height="2.06"/><rect class="cls-5" x="220.37" y="197.28" width="2.06" height="2.06"/><rect class="cls-5" x="220.37" y="200.74" width="2.06" height="2.06"/><rect class="cls-5" x="220.37" y="204.21" width="2.06" height="2.06"/><rect class="cls-5" x="220.37" y="207.66" width="2.06" height="2.06"/><rect class="cls-5" x="220.37" y="211.13" width="2.06" height="2.06"/><rect class="cls-5" x="220.37" y="214.59" width="2.06" height="2.06"/><rect class="cls-5" x="217.09" y="183.41" width="2.06" height="2.06"/><rect class="cls-5" x="217.09" y="186.88" width="2.06" height="2.06"/><rect class="cls-5" x="217.09" y="190.34" width="2.06" height="2.06"/><rect class="cls-5" x="217.09" y="193.81" width="2.06" height="2.06"/><rect class="cls-5" x="217.09" y="197.28" width="2.06" height="2.06"/><rect class="cls-5" x="217.09" y="200.74" width="2.06" height="2.06"/><rect class="cls-5" x="217.09" y="204.21" width="2.06" height="2.06"/><rect class="cls-5" x="217.09" y="207.66" width="2.06" height="2.06"/><rect class="cls-5" x="217.09" y="211.13" width="2.06" height="2.06"/><rect class="cls-2" x="235.21" y="51.93" width="3.47" height="193.24"/><rect class="cls-2" x="300.47" y="51.93" width="3.47" height="193.24"/><rect class="cls-2" x="365.72" y="51.93" width="3.47" height="193.24"/><path class="cls-5" d="M291.5,414h21.37a3.66,3.66,0,0,1,3.66,3.66h0V459H287.85V417.73a3.66,3.66,0,0,1,3.62-3.69Z" transform="translate(-168.95 -187.71)"/><rect class="cls-4" x="118.9" y="232.45" width="28.68" height="3.23"/><path class="cls-2" d="M304.16,453.6h7.15a2,2,0,0,1,2,2v3.49H302.19v-3.49a2,2,0,0,1,2-2Z" transform="translate(-168.95 -187.71)"/><path class="cls-4" d="M313.3,459.05h-7.94a1.29,1.29,0,0,1-1.28-1.28h0a1.29,1.29,0,0,1,1.28-1.27h7.94a1.27,1.27,0,0,1,1.28,1.27h0a1.28,1.28,0,0,1-1.28,1.28Z" transform="translate(-168.95 -187.71)"/><circle class="cls-2" cx="267.21" cy="23.86" r="19.52"/><circle class="cls-5" cx="267.21" cy="23.84" r="16.61"/><polyline class="cls-5" points="267.99 12.46 267.99 24.07 275.68 19.71"/><path class="cls-2" d="M436.94,212.58a.88.88,0,0,1-.42-.11.84.84,0,0,1-.41-.72v-11.6a.83.83,0,1,1,1.66,0v10.2l6.45-3.65a.83.83,0,0,1,.82,1.45l-7.69,4.35A.84.84,0,0,1,436.94,212.58Z" transform="translate(-168.95 -187.71)"/><path class="cls-2" d="M249.31,402.14c-1.49-2.49-3.95-.32-3.95-.32.35-4.71-4-7.93-4-7.93s5,0,5.73-4.8-1.75-2.57-4.05-2.6-4.72,6.7-1.66,10.48,2.22,10.26-4.8,16.48a13.85,13.85,0,0,0-3.67,5.72c.54-5.71.83-13.76-.82-19.14-2.86-9.12,2.58-11.6,4.14-16.15s-4.14-8.42-4.14-8.42,5.39-2.49,2.76-5.26-8.08-2.43-8.08,1.24,3.69,5.07,3.69,5.07,4.21,4.39,4.21,6.64-4.21,7.19-4.21,7.19,1.93-4.2-1.93-4.38-5.09,4.91-3.51,7.19,4.21.36,4.21.36a44.79,44.79,0,0,0,1.21,7.89c.39,1.32.21,6.47-.12,11.82a13.4,13.4,0,0,0-3.42-5.07c-7-6.22-7.84-12.68-4.8-16.47s.63-10.52-1.65-10.49-4.77-2.21-4.07,2.59,5.74,4.81,5.74,4.81-4.34,3.22-4,7.93c0,0-2.48-2.14-3.94.32-2.67,4.39,3.51,7.11,4.55,5,0,0,13.09,9.27,10,22.6l.73,1.09c-.1,1.08-.15,1.73-.15,1.73l1-.44,1.17,1.71a38.93,38.93,0,0,0,.29,5.81l3.13-4.63c-3.16-13.34,9.95-22.61,9.95-22.61C245.8,409.25,252,406.53,249.31,402.14Z" transform="translate(-168.95 -187.71)"/><path class="cls-6" d="M249.31,402.14c-1.49-2.49-3.95-.32-3.95-.32.35-4.71-4-7.93-4-7.93s5,0,5.73-4.8-1.75-2.57-4.05-2.6-4.72,6.7-1.66,10.48,2.22,10.26-4.8,16.48a13.85,13.85,0,0,0-3.67,5.72c.54-5.71.83-13.76-.82-19.14-2.86-9.12,2.58-11.6,4.14-16.15s-4.14-8.42-4.14-8.42,5.39-2.49,2.76-5.26-8.08-2.43-8.08,1.24,3.69,5.07,3.69,5.07,4.21,4.39,4.21,6.64-4.21,7.19-4.21,7.19,1.93-4.2-1.93-4.38-5.09,4.91-3.51,7.19,4.21.36,4.21.36a44.79,44.79,0,0,0,1.21,7.89c.39,1.32.21,6.47-.12,11.82a13.4,13.4,0,0,0-3.42-5.07c-7-6.22-7.84-12.68-4.8-16.47s.63-10.52-1.65-10.49-4.77-2.21-4.07,2.59,5.74,4.81,5.74,4.81-4.34,3.22-4,7.93c0,0-2.48-2.14-3.94.32-2.67,4.39,3.51,7.11,4.55,5,0,0,13.09,9.27,10,22.6l.73,1.09c-.1,1.08-.15,1.73-.15,1.73l1-.44,1.17,1.71a38.93,38.93,0,0,0,.29,5.81l3.13-4.63c-3.16-13.34,9.95-22.61,9.95-22.61C245.8,409.25,252,406.53,249.31,402.14Z" transform="translate(-168.95 -187.71)"/><polygon class="cls-4" points="77.8 271.34 47.81 271.34 44.58 238.5 81.04 238.5 77.8 271.34"/><rect class="cls-5" x="42.97" y="234.88" width="39.66" height="7.25"/></g><g id="freepik--Shadow--inject-6"><ellipse id="freepik--path--inject-6" class="cls-3" cx="207.27" cy="299.49" rx="160.75" ry="9.38"/></g><g id="freepik--Plant--inject-6"><path class="cls-7" d="M509.24,461.07c.12-.83,3-20.87-2.79-27.78a6.27,6.27,0,0,0-4.82-2.38c-11.74-.28-13.34,9.12-13.36,9.24l1.38.22c.05-.34,1.45-8.29,11.94-8.06a4.91,4.91,0,0,1,3.79,1.87c5.41,6.44,2.49,26.47,2.49,26.68Z" transform="translate(-168.95 -187.71)"/><path class="cls-7" d="M509.94,460.16l1.4-.05c0-.18-.46-18.45,8.53-22.22,8.82-3.69,12.8,3.9,13,4.23l1.25-.63c0-.09-4.7-9.12-14.74-4.89C509.45,440.74,509.92,459.36,509.94,460.16Z" transform="translate(-168.95 -187.71)"/><path class="cls-7" d="M509.9,461.59c0-.29.09-29.17,5.72-37.62,5.41-8.12,14.09-4.3,14.5-4.15l.57-1.27c-.1,0-10.16-4.49-16.24,4.62-5.86,8.8-5.94,37.19-5.94,38.4Z" transform="translate(-168.95 -187.71)"/><path class="cls-7" d="M499.94,431.6s5.13,1.89,3.6,6.35-17.72,11.79-17.72,11.79-6.79-6.21-.55-16.33S499.8,428.41,499.94,431.6Z" transform="translate(-168.95 -187.71)"/><path class="cls-7" d="M515.87,422.44s-3.63-.39-3.32-2.6,14.15-7.92,22.31,1.3c0,0-5.23,9-12.79,9.12S515.87,422.44,515.87,422.44Z" transform="translate(-168.95 -187.71)"/><path class="cls-7" d="M519.64,437.26s-2.49-2,.2-3,16-.71,16.13,12.43c0,0-15.48,2.58-17.41-2.43S519.64,437.26,519.64,437.26Z" transform="translate(-168.95 -187.71)"/><path class="cls-8" d="M499.94,431.6s5.13,1.89,3.6,6.35-17.72,11.79-17.72,11.79-6.79-6.21-.55-16.33S499.8,428.41,499.94,431.6Z" transform="translate(-168.95 -187.71)"/><path class="cls-8" d="M515.87,422.44s-3.63-.39-3.32-2.6,14.15-7.92,22.31,1.3c0,0-5.23,9-12.79,9.12S515.87,422.44,515.87,422.44Z" transform="translate(-168.95 -187.71)"/><path class="cls-8" d="M519.64,437.26s-2.49-2,.2-3,16-.71,16.13,12.43c0,0-15.48,2.58-17.41-2.43S519.64,437.26,519.64,437.26Z" transform="translate(-168.95 -187.71)"/><polygon class="cls-7" points="328.24 300.18 352.27 300.18 354.86 273.88 325.66 273.88 328.24 300.18"/><polygon class="cls-9" points="328.24 300.18 352.27 300.18 354.86 273.88 325.66 273.88 328.24 300.18"/><rect class="cls-7" x="324.37" y="270.97" width="31.77" height="5.8"/><rect class="cls-10" x="324.37" y="270.97" width="31.77" height="5.8"/></g><g id="freepik--Chair--inject-6"><path class="cls-11" d="M470,469l-23.89-2.35V433.11h-9.47v33.56L412.69,469a4.64,4.64,0,0,0-4.19,4.62v3.59h65.72v-3.59A4.63,4.63,0,0,0,470,469Z" transform="translate(-168.95 -187.71)"/><path class="cls-10" d="M470,469l-23.89-2.35V433.11h-9.47v33.56L412.69,469a4.64,4.64,0,0,0-4.19,4.62v3.59h65.72v-3.59A4.63,4.63,0,0,0,470,469Z" transform="translate(-168.95 -187.71)"/><circle class="cls-11" cx="242.04" cy="293.99" r="6.19"/><circle class="cls-11" cx="302.72" cy="293.99" r="6.19"/><path class="cls-11" d="M435,410.43h12.72V436.9a3.43,3.43,0,0,1-3.42,3.43h-5.88A3.43,3.43,0,0,1,435,436.9h0V410.43Z" transform="translate(-168.95 -187.71)"/><path class="cls-12" d="M435,410.43h12.72V436.9a3.43,3.43,0,0,1-3.42,3.43h-5.88A3.43,3.43,0,0,1,435,436.9h0V410.43Z" transform="translate(-168.95 -187.71)"/><path class="cls-11" d="M464,358s1.81,44.77-10.66,52.47h14.23s11-15.25,7.91-52.47Z" transform="translate(-168.95 -187.71)"/><path class="cls-12" d="M464,358s1.81,44.77-10.66,52.47h14.23s11-15.25,7.91-52.47Z" transform="translate(-168.95 -187.71)"/><path class="cls-11" d="M472.43,413.86H408.65v-5.54a4.15,4.15,0,0,1,4.15-4.15h55.48a4.15,4.15,0,0,1,4.15,4.15v5.54Z" transform="translate(-168.95 -187.71)"/><rect class="cls-11" x="237.05" y="221.31" width="69.09" height="4.84" rx="1.67"/><rect class="cls-13" x="237.05" y="221.31" width="69.09" height="4.84" rx="1.67"/><rect class="cls-11" x="275.15" y="146.25" width="46.97" height="33.1" rx="12.09"/></g><g id="freepik--Character--inject-6"><path class="cls-14" d="M387,297.38l-4.55-12s2-1.8.61-3.64-9.73-7-11.25-6.07-4.94,4.32-3.1,6.21,9.95,5.06,9.95,5.06l4,15.75Z" transform="translate(-168.95 -187.71)"/><path class="cls-7" d="M418.81,320.19s-20.73-4.26-22.94-5.28-10.54-25.42-10.54-25.42l-6.39,3s5.14,24.49,10.4,30.31S417,333.57,417,333.57Z" transform="translate(-168.95 -187.71)"/><path class="cls-8" d="M417,333.54l-.38-.09c-1.13-.26-4.67-1.08-8.87-2.32-6.83-2-15.43-5-18.43-8.33-5.25-5.81-10.4-30.32-10.4-30.32l6.38-3s8.34,24.41,10.59,25.42,22.94,5.28,22.94,5.28Z" transform="translate(-168.95 -187.71)"/><polygon class="cls-7" points="216.44 101.3 217.76 103.85 209.55 106.67 209.87 103.57 216.44 101.3"/><path class="cls-8" d="M417.14,333.2c-1.15-.16-4.74-.72-9-1.66,2.44-4.22,9.61-6.4,9.61-6.4Z" transform="translate(-168.95 -187.71)"/><path class="cls-11" d="M448,303.29s1.22,11.47-3,14.29-25.15-.49-27.52-5.1S424,295.34,424,295.34Z" transform="translate(-168.95 -187.71)"/><polygon class="cls-14" points="194.49 266.45 199.94 267.77 202.71 260.24 205.21 253.4 199 250.75 196.61 259.06 194.49 266.45"/><polygon class="cls-8" points="196.61 259.06 202.71 260.24 205.21 253.4 199 250.75 196.61 259.06"/><path class="cls-7" d="M366.11,442.8l7.56,2.81S393.84,395.18,398,395s46.36,19.23,56.94,8.47-4.72-36.71-4.72-36.71-25.45-3.63-27.36,2.11a41.49,41.49,0,0,0-1.08,5.16c-.29,1.76-.49,3.23-.49,3.23h0c-.78-.2-26.33-6.79-36.39,0C374.64,384.2,366.11,442.8,366.11,442.8Z" transform="translate(-168.95 -187.71)"/><path class="cls-13" d="M366.11,442.8l7.56,2.81S393.84,395.18,398,395s46.36,19.23,56.94,8.47-4.72-36.71-4.72-36.71-25.45-3.63-27.36,2.11a41.49,41.49,0,0,0-1.08,5.16c-.29,1.76-.49,3.23-.49,3.23h0c-.78-.2-26.33-6.79-36.39,0C374.64,384.2,366.11,442.8,366.11,442.8Z" transform="translate(-168.95 -187.71)"/><polygon class="cls-14" points="240.65 287.97 246.08 286.58 245.04 278.78 244.07 271.63 237.35 272.24 239.09 280.57 240.65 287.97"/><polygon class="cls-8" points="239.13 280.74 245.07 278.93 244.08 271.71 237.36 272.28 239.13 280.74"/><polygon class="cls-7" points="207.85 255.09 196.83 251.35 196.35 255.87 204.71 258.82 207.85 255.09"/><path class="cls-7" d="M436.64,406.05s-1.72,0-28.41-1.2c0,0,4,33.36,6.17,58.34l-8,1.36s-19.07-53.48-18.87-62,9.95-11,9.95-11S416.51,402.57,436.64,406.05Z" transform="translate(-168.95 -187.71)"/><path class="cls-13" d="M436.64,406.05s-1.72,0-28.41-1.2c0,0,4,33.36,6.17,58.34l-8,1.36s-19.07-53.48-18.87-62,9.95-11,9.95-11S416.51,402.57,436.64,406.05Z" transform="translate(-168.95 -187.71)"/><path class="cls-15" d="M436.64,406.05s-1.72,0-28.41-1.2c0,0,4,33.36,6.17,58.34l-8,1.36s-19.07-53.48-18.87-62,9.95-11,9.95-11S416.51,402.57,436.64,406.05Z" transform="translate(-168.95 -187.71)"/><polygon class="cls-7" points="246.61 273.06 235.64 274.31 237.77 278.61 246.65 277.47 246.61 273.06"/><path class="cls-15" d="M421.27,377.29l14.88,3.1s-8.22-4.54-14.39-6.33C421.47,375.82,421.27,377.29,421.27,377.29Z" transform="translate(-168.95 -187.71)"/><polygon class="cls-11" points="280.64 175.12 281.25 179.08 253.89 181.19 253.17 176.51 280.64 175.12"/><polygon class="cls-8" points="280.64 175.12 281.25 179.08 253.89 181.19 253.17 176.51 280.64 175.12"/><rect class="cls-7" x="440.6" y="362.49" width="1.36" height="6.92" transform="translate(-204.06 -140.66) rotate(-5.87)"/><rect class="cls-16" x="428.65" y="364.03" width="6" height="4.55" transform="translate(-191.57 -159.25) rotate(-3.68)"/><rect class="cls-7" x="423.81" y="363.21" width="1.36" height="6.92" transform="translate(-204.22 -142.37) rotate(-5.87)"/><rect class="cls-13" x="440.6" y="362.49" width="1.36" height="6.92" transform="translate(-204.06 -140.66) rotate(-5.87)"/><rect class="cls-13" x="423.81" y="363.21" width="1.36" height="6.92" transform="translate(-204.22 -142.37) rotate(-5.87)"/><path class="cls-7" d="M418.31,319.81a49.92,49.92,0,0,0,15.76,1.74c8.78-.45,19.25,3.79,19.25,3.79l-3.77,37.47-27.47,1.38S412.88,332.93,418.31,319.81Z" transform="translate(-168.95 -187.71)"/><path class="cls-11" d="M422.73,298.65s1.54-18.19,16.75-11.61c19.07,8.29,3.91,30.46-5.41,25.92S422.73,298.65,422.73,298.65Z" transform="translate(-168.95 -187.71)"/><path class="cls-8" d="M427,322.57l.44,10.28,3.41-4.84s-1.22,11.37-.51,17.56c0,0,.66-11.1,2.2-17.56l3.62,4.84,5.2-10.22S432.94,319.61,427,322.57Z" transform="translate(-168.95 -187.71)"/><path class="cls-14" d="M431.7,324.51l7.87-2.23c-4.85-3.31-2.4-10.77-2.4-10.77l-7.8,2.73a22.39,22.39,0,0,1,.83,3.32c.83,4.86-1.37,5.25-1.37,5.25Z" transform="translate(-168.95 -187.71)"/><path class="cls-8" d="M429.37,314.2a22.08,22.08,0,0,1,.83,3.32c3.73-1.5,7-6.07,7-6.07Z" transform="translate(-168.95 -187.71)"/><path class="cls-14" d="M434.46,290.89c-6.9-1.53-9.95,1.66-12,8.67-2.59,8.75-2,15.49,7,15.51C441.75,315.09,445.92,293.42,434.46,290.89Z" transform="translate(-168.95 -187.71)"/><path class="cls-17" d="M427,300.16a14.74,14.74,0,0,1-2.63,2.42,1.94,1.94,0,0,0,1.66,1.18Z" transform="translate(-168.95 -187.71)"/><path class="cls-11" d="M431.34,300.53c-.14.56.05,1.1.43,1.19s.79-.29.93-.83-.05-1.09-.43-1.19S431.48,300,431.34,300.53Z" transform="translate(-168.95 -187.71)"/><path class="cls-11" d="M432.42,299.74l-1.11-.78S431.67,300.15,432.42,299.74Z" transform="translate(-168.95 -187.71)"/><path class="cls-11" d="M424.36,298.69c-.14.56.05,1.1.43,1.19s.83-.29.93-.83-.05-1.09-.43-1.19S424.5,298.13,424.36,298.69Z" transform="translate(-168.95 -187.71)"/><path class="cls-11" d="M425.43,297.9l-1.13-.75S424.69,298.3,425.43,297.9Z" transform="translate(-168.95 -187.71)"/><path class="cls-11" d="M435.23,297.79a.32.32,0,0,1-.28-.16,3.36,3.36,0,0,0-2.48-1.54.33.33,0,0,1-.28-.34.32.32,0,0,1,.33-.27,4,4,0,0,1,3,1.87.31.31,0,0,1-.12.41h0A.45.45,0,0,1,435.23,297.79Z" transform="translate(-168.95 -187.71)"/><path class="cls-11" d="M427.51,294.66a.3.3,0,0,1-.16-.05,3,3,0,0,0-2.61,0,.29.29,0,0,1-.38-.16h0a.28.28,0,0,1,.16-.38h0a3.59,3.59,0,0,1,3.15.07.31.31,0,0,1,.1.41h0A.3.3,0,0,1,427.51,294.66Z" transform="translate(-168.95 -187.71)"/><path class="cls-11" d="M439.43,304.19s-2-6.39-.51-10.66c0,0-12.44-8.61-16.19,5.12,0,0,1.39-12.62,13.32-10.27s8,19.69.75,23.51C436.8,311.89,440.64,308.17,439.43,304.19Z" transform="translate(-168.95 -187.71)"/><path class="cls-14" d="M438,305.44a3.1,3.1,0,0,1,3.87-2.05c2.09.7,2.13,5.32-3.42,5.2C437.63,308.53,437.36,307.69,438,305.44Z" transform="translate(-168.95 -187.71)"/><path class="cls-11" d="M424.75,306.38a17.3,17.3,0,0,1,.37,2.57h.45c2.06.18,3.07-.43,3.57-1.14a2.56,2.56,0,0,0,.43-1.19,2.18,2.18,0,0,0,0-.72,9.7,9.7,0,0,1-4.14.49A3.47,3.47,0,0,1,424.75,306.38Z" transform="translate(-168.95 -187.71)"/><path class="cls-16" d="M425.46,306.43l.12.76c1.94.15,3.32,0,4-.53a2.17,2.17,0,0,0,0-.72A9.72,9.72,0,0,1,425.46,306.43Z" transform="translate(-168.95 -187.71)"/><path class="cls-17" d="M425.57,309c2.06.18,3.07-.43,3.57-1.14a6.74,6.74,0,0,0-2.32.26A2.42,2.42,0,0,0,425.57,309Z" transform="translate(-168.95 -187.71)"/><path class="cls-11" d="M434.49,291.44s.26,12,7.46,13.41-.66-15.39-.66-15.39-10.7-7-17.83-2-.71,11.24-.71,11.24S424.23,289.76,434.49,291.44Z" transform="translate(-168.95 -187.71)"/><path class="cls-11" d="M437.23,302.39a.2.2,0,0,1-.13,0c-5.11-4-2.59-11.69-2.56-11.77a.2.2,0,0,1,.26-.13.2.2,0,0,1,.13.26c0,.08-2.45,7.47,2.43,11.31a.2.2,0,0,1,0,.28h0A.16.16,0,0,1,437.23,302.39Z" transform="translate(-168.95 -187.71)"/><path class="cls-7" d="M444,307.3c-.91,2.44-3.26,3.81-5.24,3.07s-2.84-3.32-1.93-5.75,3.26-3.81,5.24-3.06S444.94,304.87,444,307.3Z" transform="translate(-168.95 -187.71)"/><path class="cls-18" d="M444,307.3c-.91,2.44-3.26,3.81-5.24,3.07s-2.84-3.32-1.93-5.75,3.26-3.81,5.24-3.06S444.94,304.87,444,307.3Z" transform="translate(-168.95 -187.71)"/><path class="cls-7" d="M441.71,303.32s3-13.33-3.7-16.82a19.6,19.6,0,0,1,2.26.44c.83.25,6.19,5.66,3.5,17.63Z" transform="translate(-168.95 -187.71)"/><path class="cls-8" d="M441.71,303.32s3-13.33-3.7-16.82a19.6,19.6,0,0,1,2.26.44c.83.25,6.19,5.66,3.5,17.63Z" transform="translate(-168.95 -187.71)"/><path class="cls-7" d="M429.27,310.94l-.49-.07.13-.83a15.22,15.22,0,0,0,10.52-2.23l.49.66A15.6,15.6,0,0,1,429.27,310.94Z" transform="translate(-168.95 -187.71)"/><g class="cls-19"><path d="M429.27,310.94l-.49-.07.13-.83a15.22,15.22,0,0,0,10.52-2.23l.49.66A15.6,15.6,0,0,1,429.27,310.94Z" transform="translate(-168.95 -187.71)"/></g><path class="cls-7" d="M443.75,307a2.88,2.88,0,0,1-3.46,2c-1.3-.46-1.88-2.18-1.28-3.79a2.9,2.9,0,0,1,3.46-2C443.77,303.64,444.35,305.36,443.75,307Z" transform="translate(-168.95 -187.71)"/><path class="cls-7" d="M428.49,311.24l-.67-.09a.89.89,0,0,1-.77-1h0a.9.9,0,0,1,1-.78h0l.67.09a.92.92,0,0,1,.78,1h0A.92.92,0,0,1,428.49,311.24Z" transform="translate(-168.95 -187.71)"/><path class="cls-18" d="M428.49,311.24l-.67-.09a.89.89,0,0,1-.77-1h0a.9.9,0,0,1,1-.78h0l.67.09a.92.92,0,0,1,.78,1h0A.92.92,0,0,1,428.49,311.24Z" transform="translate(-168.95 -187.71)"/><polygon class="cls-7" points="268.51 131.7 263.58 136.53 265.56 142.47 272.4 134.92 268.51 131.7"/><polygon class="cls-7" points="261.39 132.71 262.18 136.43 259.64 141.69 258.05 134.85 261.39 132.71"/><path class="cls-14" d="M436.4,323.6l2.86-10.47s-1.38-2.6-1.08-3.15,1.79-7.58,2.85-8.34,5.43.54,5.87,1.25-4.19,10.24-4.19,10.24l-1.66,11.35Z" transform="translate(-168.95 -187.71)"/><path class="cls-7" d="M453.32,325.34c7.87,8.05-7.9,26.31-16.95,25.53s.23-33.88.23-33.88l5.81,1s-2,14.32-1.4,15.44S450.7,322.66,453.32,325.34Z" transform="translate(-168.95 -187.71)"/><path class="cls-8" d="M453.32,325.34c7.87,8.05-7.9,26.31-16.95,25.53s.23-33.88.23-33.88l5.81,1s-2,14.32-1.4,15.44S450.7,322.66,453.32,325.34Z" transform="translate(-168.95 -187.71)"/><polygon class="cls-7" points="267.21 128.25 266.35 130.98 274.42 131.7 274.42 129.31 267.21 128.25"/><rect class="cls-13" x="251.06" y="149.89" width="4.58" height="7.48" rx="0.65"/><rect class="cls-8" x="251.33" y="150.39" width="3.71" height="5.08"/><rect class="cls-11" x="252.86" y="148.1" width="0.82" height="2.99"/><path class="cls-7" d="M354.42,464.76a7.24,7.24,0,0,1,2.63-.67h0s3.15-1.85,6.26-9.06h3.51a2.89,2.89,0,0,1,2.7,1.94,1.52,1.52,0,0,1,.1.48,21.32,21.32,0,0,1-.27,2.52,69.35,69.35,0,0,1-2.05,8.3l-.6-.15,1.08-5.24c.37-1.78-1.51-.06-2.37,1.73s-2.2,3.61-6.08,2.72C354.82,466.22,353,465.57,354.42,464.76Z" transform="translate(-168.95 -187.71)"/><path class="cls-14" d="M364,453.15s-4.38,9.17-6.9,10.94c0,0,3.38,2,6.9-2.49,4.55-5.8,5.67-4.19,5.67-4.19a16.59,16.59,0,0,0-.55-3C368.39,452.6,364,453.15,364,453.15Z" transform="translate(-168.95 -187.71)"/><path class="cls-7" d="M402.69,486.6a7.64,7.64,0,0,1,2.39-1.27h0s2.62-2.55,3.94-10.28l3.41-.83a2.89,2.89,0,0,1,3.07,1.24,1.57,1.57,0,0,1,.22.45,20.7,20.7,0,0,1,.34,2.49,70.9,70.9,0,0,1,0,8.5h-.62l-.19-5.34c-.07-1.81-1.47.3-1.9,2.25s-1.27,4-5.25,4.07C403.42,487.93,401.5,487.73,402.69,486.6Z" transform="translate(-168.95 -187.71)"/><path class="cls-14" d="M409.19,473.07s-2.08,9.94-4.14,12.26c0,0,3.76,1.16,6.12-4,3.05-6.72,4.51-5.41,4.51-5.41a16.4,16.4,0,0,0-1.23-2.74C413.37,471.48,409.19,473.07,409.19,473.07Z" transform="translate(-168.95 -187.71)"/></g><g id="freepik--speech-bubble--inject-6"><rect class="cls-7" x="284.19" y="84.69" width="37.35" height="20.78" rx="4.2"/><polygon class="cls-7" points="294.19 103.1 285.47 114.96 299.54 103.9 294.19 103.1"/><path class="cls-16" d="M463.46,282.79a1.23,1.23,0,1,1-2.45,0,1.23,1.23,0,0,1,1.22-1.23h0a1.21,1.21,0,0,1,1.22,1.22Z" transform="translate(-168.95 -187.71)"/><path class="cls-16" d="M469.84,282.79a1.23,1.23,0,1,1-1.24-1.22h0a1.22,1.22,0,0,1,1.22,1.22Z" transform="translate(-168.95 -187.71)"/><path class="cls-16" d="M476.21,282.79A1.21,1.21,0,0,1,475,284a1.23,1.23,0,1,1,0-2.45h0a1.21,1.21,0,0,1,1.21,1.22Z" transform="translate(-168.95 -187.71)"/><path class="cls-16" d="M482.59,282.79a1.23,1.23,0,1,1-1.24-1.22h0a1.22,1.22,0,0,1,1.22,1.22Z" transform="translate(-168.95 -187.71)"/></g><g id="freepik--Bird--inject-6"><rect class="cls-7" x="355.35" y="251.29" width="16.18" height="25.74" rx="1.14" transform="translate(-210.43 271.14) rotate(-61.69)"/><rect class="cls-20" x="355.35" y="251.29" width="16.18" height="25.74" rx="1.14" transform="translate(-210.43 271.14) rotate(-61.69)"/><path class="cls-8" d="M354.86,253,361.29,265a2.64,2.64,0,0,0,2.59,1.38l13.44-1.33-13.68,2a2.83,2.83,0,0,1-3-1.59Z" transform="translate(-168.95 -187.71)"/><path class="cls-7" d="M339.19,250.72c.22-4.61,3.64-13.9,7.79-16.75s1.42,1.1,1.42,1.1,3.94-3.83,6-3.72,0,2.49,0,2.49,4.27-2.63,6.23-2.49,0,2.42,0,2.42,3.5-2.49,4.92-1.32-18.15,14.09-20.33,19.35S339,255.37,339.19,250.72Z" transform="translate(-168.95 -187.71)"/><path class="cls-21" d="M339.19,250.72c.22-4.61,3.64-13.9,7.79-16.75s1.42,1.1,1.42,1.1,3.94-3.83,6-3.72,0,2.49,0,2.49,4.27-2.63,6.23-2.49,0,2.42,0,2.42,3.5-2.49,4.92-1.32-18.15,14.09-20.33,19.35S339,255.37,339.19,250.72Z" transform="translate(-168.95 -187.71)"/><path class="cls-7" d="M356,250l2.61,1.66a.22.22,0,0,1,.07.3.2.2,0,0,1-.2.1l-2.74-.22L356,254a.23.23,0,0,1-.41.18L354,252.38Z" transform="translate(-168.95 -187.71)"/><path class="cls-12" d="M356,250l2.61,1.66a.22.22,0,0,1,.07.3.2.2,0,0,1-.2.1l-2.74-.22L356,254a.23.23,0,0,1-.41.18L354,252.38Z" transform="translate(-168.95 -187.71)"/><path class="cls-7" d="M319.31,239.64a11.2,11.2,0,0,1,9.08-.88s1.57,7.23,5.87,9.63c2.37,1.32,8.14,1.2,12.72-.27,5.43-1.76,8.08-1.76,9.07.27s-.11,4.15-4.26,5.13-7.46,8.2-15,8.29-11.52-7.46-9.62-14.09A20,20,0,0,0,319.31,239.64Z" transform="translate(-168.95 -187.71)"/><path class="cls-9" d="M319.31,239.64a11.2,11.2,0,0,1,9.08-.88s1.57,7.23,5.87,9.63c2.37,1.32,8.14,1.2,12.72-.27,5.43-1.76,8.08-1.76,9.07.27s-.11,4.15-4.26,5.13-7.46,8.2-15,8.29-11.52-7.46-9.62-14.09A20,20,0,0,0,319.31,239.64Z" transform="translate(-168.95 -187.71)"/><path class="cls-11" d="M354,249.76a.38.38,0,1,1-.38-.38h0A.38.38,0,0,1,354,249.76Z" transform="translate(-168.95 -187.71)"/><path class="cls-7" d="M335.06,255.83c-4.45,1.21-14.35.83-18.33-2.24s.59-1.66.59-1.66-4.85-2.56-5.38-4.57,2.38-.78,2.38-.78-3.81-3.24-4.31-5.15,2.29-.74,2.29-.74-3.47-2.56-2.77-4.27,19,12.91,24.68,13.36S339.57,254.6,335.06,255.83Z" transform="translate(-168.95 -187.71)"/><path class="cls-21" d="M335.06,255.83c-4.45,1.21-14.35.83-18.33-2.24s.59-1.66.59-1.66-4.85-2.56-5.38-4.57,2.38-.78,2.38-.78-3.81-3.24-4.31-5.15,2.29-.74,2.29-.74-3.47-2.56-2.77-4.27,19,12.91,24.68,13.36S339.57,254.6,335.06,255.83Z" transform="translate(-168.95 -187.71)"/><path class="cls-7" d="M305.88,235.66h-.1c-.77-.28-1.56-.54-2.36-.78a.32.32,0,0,1-.21-.39.32.32,0,0,1,.39-.2,20.89,20.89,0,0,1,2.38.83.3.3,0,0,1,.19.39.29.29,0,0,1-.29.2Z" transform="translate(-168.95 -187.71)"/><path class="cls-7" d="M255.77,303a.33.33,0,0,1-.32-.31.31.31,0,0,1,.31-.31,30.15,30.15,0,0,0,4.92-.48.31.31,0,0,1,.12.61h0A30.27,30.27,0,0,1,255.77,303Zm-5-.26h0a44,44,0,0,1-5-.83.32.32,0,0,1-.24-.38.31.31,0,0,1,.37-.23,48,48,0,0,0,4.89.83.32.32,0,0,1,.26.36.3.3,0,0,1-.26.26ZM265.53,301a.31.31,0,0,1-.14-.59h0a16.24,16.24,0,0,0,4.15-2.59.32.32,0,0,1,.44.05.33.33,0,0,1,0,.42,17,17,0,0,1-4.3,2.69.28.28,0,0,1-.15,0Zm-24.45-.57a.17.17,0,0,1-.1,0c-1.58-.52-3.16-1.13-4.7-1.8a.31.31,0,0,1-.11-.43.32.32,0,0,1,.37-.15c1.51.67,3.07,1.27,4.64,1.79a.32.32,0,0,1,.19.4A.3.3,0,0,1,241.08,300.46Zm-9.12-4a.2.2,0,0,1-.15,0,48.88,48.88,0,0,1-4.27-2.66.31.31,0,1,1,.35-.5c1.33.92,2.75,1.8,4.22,2.63a.29.29,0,0,1,.12.41h0a.33.33,0,0,1-.33.14Zm41-1.89h-.15a.3.3,0,0,1-.12-.42h0a14,14,0,0,0,.71-1.39,16.84,16.84,0,0,0,1.08-3.16.32.32,0,0,1,.38-.23.31.31,0,0,1,.23.38A18.83,18.83,0,0,1,274,293c-.23.49-.48,1-.74,1.45a.31.31,0,0,1-.33.13Zm-49.17-3.83a.39.39,0,0,1-.2-.08A36.47,36.47,0,0,1,220,287a.31.31,0,0,1,0-.44.32.32,0,0,1,.43,0,36.24,36.24,0,0,0,3.48,3.53.41.41,0,0,1-.23.61Zm-23.49-44.09h0a44.44,44.44,0,0,1,3.53,3.6.31.31,0,0,1-.47.41,46.35,46.35,0,0,0-3.46-3.55.31.31,0,0,1,0-.44.32.32,0,0,1,.37-.06Zm6.54,7.52a.16.16,0,0,1,.08.06c1,1.35,1.88,2.78,2.73,4.22a.32.32,0,0,1-.16.42.32.32,0,0,1-.39-.1c-.83-1.43-1.73-2.84-2.69-4.18a.33.33,0,0,1,.08-.44A.32.32,0,0,1,206.83,254.14Zm5,8.63a.27.27,0,0,1,.12.09c.71,1.54,1.35,3.12,1.89,4.66a.33.33,0,0,1-.2.4.31.31,0,0,1-.39-.2c-.53-1.52-1.15-3.08-1.86-4.61a.31.31,0,0,1,.15-.41h0a.34.34,0,0,1,.35.08Zm3.23,9.44a.36.36,0,0,1,.12.18,36.76,36.76,0,0,1,.74,5,.32.32,0,0,1-.26.35.31.31,0,0,1-.35-.25,35.1,35.1,0,0,0-.73-4.9.31.31,0,0,1,.26-.35.31.31,0,0,1,.28,0ZM275.33,285a.3.3,0,0,1-.3-.31h0a30,30,0,0,0-.46-4.92.31.31,0,1,1,.61-.11,29.24,29.24,0,0,1,.47,5,.31.31,0,0,1-.32.31Zm-1.66-9.83a.31.31,0,0,1-.29-.23c-.43-1.45-.95-3-1.59-4.71a.31.31,0,0,1,.17-.4h0a.32.32,0,0,1,.39.18c.65,1.74,1.17,3.32,1.6,4.76a.31.31,0,0,1-.2.39Zm-3.43-9.41a.29.29,0,0,1-.27-.18c-.53-1.32-1.25-2.85-2-4.46V261a.32.32,0,0,1,.57-.26v.08c.76,1.66,1.47,3.16,2,4.46a.32.32,0,0,1-.16.42Zm-4.14-9.12a.31.31,0,0,1-.29-.18c-.75-1.74-1.35-3.27-1.82-4.69a.31.31,0,1,1,.59-.2c.46,1.4,1.05,2.92,1.8,4.64a.3.3,0,0,1-.16.4h0a.18.18,0,0,1-.1.07Zm-3-9.5a.31.31,0,0,1-.3-.27,16.06,16.06,0,0,1-.22-2.68,12,12,0,0,1,.22-2.4.31.31,0,0,1,.39-.2.32.32,0,0,1,.22.33,12.21,12.21,0,0,0-.21,2.27,17.29,17.29,0,0,0,.21,2.59.33.33,0,0,1-.26.36Zm2.17-9.42a.27.27,0,0,1-.2-.07.31.31,0,0,1,0-.44,13,13,0,0,1,4-3.15.31.31,0,0,1,.42.12.33.33,0,0,1-.13.42,12.63,12.63,0,0,0-3.8,3,.31.31,0,0,1-.27.15Zm33.42-4.06h-.06c-1.59-.33-3.24-.62-4.91-.83a.31.31,0,0,1-.27-.34h0a.32.32,0,0,1,.35-.27h0c1.66.21,3.32.49,5,.82a.31.31,0,0,1,.23.38.32.32,0,0,1-.29.25Zm-24.87-.71a.3.3,0,0,1-.34-.27.31.31,0,0,1,.28-.34,32,32,0,0,1,5-.72.31.31,0,0,1,.33.29.3.3,0,0,1-.28.33h0a32.36,32.36,0,0,0-4.89.7Zm14.93-.58h0c-1.45-.1-3.16-.2-5-.24a.31.31,0,0,1,0-.62h0c1.83,0,3.56.14,5,.24a.3.3,0,0,1,.29.32h0a.3.3,0,0,1-.24.33Z" transform="translate(-168.95 -187.71)"/><path class="cls-7" d="M217.33,283.05a.32.32,0,0,1-.27-.15,21.57,21.57,0,0,1-1.12-2.26.29.29,0,0,1,.16-.4h0a.32.32,0,0,1,.41.17,20.29,20.29,0,0,0,1.09,2.19.3.3,0,0,1-.08.41.26.26,0,0,1-.19.05Z" transform="translate(-168.95 -187.71)"/></g><g id="freepik--Desk--inject-6"><rect class="cls-16" x="117.6" y="160.87" width="31.47" height="6.45"/><rect class="cls-15" x="117.6" y="160.87" width="31.47" height="6.45"/><rect class="cls-15" x="117.6" y="160.87" width="13.26" height="6.45"/><polygon class="cls-15" points="117.6 161.8 145.62 161.8 117.6 162.6 117.6 161.8"/><polygon class="cls-15" points="149.07 162.92 124.79 163.52 149.07 163.52 149.07 162.92"/><polygon class="cls-15" points="118.89 164.73 130.86 164.24 148.46 164.73 130.86 165 118.89 164.73"/><polygon class="cls-15" points="117.6 166.09 138.35 166.09 117.6 166.58 117.6 166.09"/><polygon class="cls-15" points="149.02 166.58 135.17 166.84 149.07 166.84 149.02 166.58"/><rect class="cls-16" x="113.23" y="154.42" width="31.47" height="6.45"/><rect class="cls-15" x="113.23" y="154.42" width="31.47" height="6.45"/><rect class="cls-15" x="113.23" y="154.42" width="13.26" height="6.45"/><polygon class="cls-15" points="113.22 155.35 141.24 155.35 113.22 156.14 113.22 155.35"/><polygon class="cls-15" points="144.7 156.47 120.41 157.07 144.7 157.07 144.7 156.47"/><polygon class="cls-15" points="114.5 158.28 126.47 157.78 144.07 158.28 126.47 158.55 114.5 158.28"/><polygon class="cls-15" points="113.22 159.64 133.97 159.64 113.22 160.13 113.22 159.64"/><polygon class="cls-15" points="144.65 160.13 130.79 160.39 144.7 160.39 144.65 160.13"/><rect class="cls-16" x="116.81" y="147.96" width="31.47" height="6.45"/><rect class="cls-15" x="116.81" y="147.96" width="31.47" height="6.45"/><rect class="cls-15" x="116.81" y="147.96" width="13.26" height="6.45"/><polygon class="cls-15" points="116.81 148.89 144.83 148.89 116.81 149.69 116.81 148.89"/><polygon class="cls-15" points="148.29 150.01 124 150.62 148.29 150.62 148.29 150.01"/><polygon class="cls-15" points="118.1 151.82 130.07 151.33 147.67 151.82 130.07 152.09 118.1 151.82"/><polygon class="cls-15" points="116.81 153.19 137.56 153.19 116.81 153.68 116.81 153.19"/><polygon class="cls-15" points="148.25 153.68 134.39 153.93 148.29 153.93 148.25 153.68"/><polygon class="cls-11" points="169.25 167.19 170.07 164.1 203.69 164.1 219.17 165.65 219.76 167.19 169.25 167.19"/><polygon class="cls-18" points="203.69 164.1 203.69 167.19 169.25 167.19 170.07 164.1 203.69 164.1"/><path class="cls-11" d="M365.88,337a2.64,2.64,0,0,1-2.31,2.94l-.36,0h-51.5a3.32,3.32,0,0,1-3.22-3l-3.06-33a2.87,2.87,0,0,1,.06-1,2.63,2.63,0,0,1,2.61-2h51.53a3.31,3.31,0,0,1,3.23,3Z" transform="translate(-168.95 -187.71)"/><path class="cls-18" d="M363,340H311.71a3.32,3.32,0,0,1-3.22-3l-3.06-33a2.87,2.87,0,0,1,.06-1h51.32a3.33,3.33,0,0,1,3.23,3l3.06,33A2.84,2.84,0,0,1,363,340Z" transform="translate(-168.95 -187.71)"/><polygon class="cls-11" points="158.7 132.04 169.35 132.04 166.52 162.54 183.36 165.07 183.36 167.19 147.88 167.19 147.88 165.07 155.15 162.54 158.7 132.04"/><polygon class="cls-22" points="169.35 132.04 161.46 166.71 155.15 166.52 158.7 132.04 169.35 132.04"/><polygon class="cls-11" points="169.3 300.18 164.23 300.18 155.1 173.13 161.84 173.13 169.3 300.18"/><polygon class="cls-21" points="169.31 300.18 164.23 300.18 155.55 179.44 155.1 173.33 161.84 173.33 162.21 179.44 169.31 300.18"/><polygon class="cls-8" points="162.21 179.14 155.55 179.14 155.1 173.33 161.84 173.33 162.21 179.14"/><polygon class="cls-11" points="206.58 300.18 201.5 300.18 200.68 173.13 207.41 173.13 206.58 300.18"/><polygon class="cls-9" points="207.41 173.33 207.28 193.84 206.59 300.18 201.5 300.18 200.81 193.84 200.68 173.33 207.41 173.33"/><polygon class="cls-8" points="207.41 173.33 207.28 194.06 200.81 194.06 200.68 173.33 207.41 173.33"/><polygon class="cls-11" points="260.5 300.18 255.43 300.18 246.3 173.13 253.04 173.13 260.5 300.18"/><polygon class="cls-9" points="260.51 300.18 255.43 300.18 246.75 179.44 246.3 173.33 253.04 173.33 253.4 179.44 260.51 300.18"/><polygon class="cls-8" points="253.4 179.14 246.75 179.14 246.3 173.33 253.04 173.33 253.4 179.14"/><polygon class="cls-11" points="111.2 300.18 106.13 300.18 113.59 173.13 120.33 173.13 111.2 300.18"/><polygon class="cls-9" points="120.33 173.33 119.88 179.44 111.2 300.18 106.13 300.18 113.22 179.44 113.59 173.33 120.33 173.33"/><polygon class="cls-8" points="113.59 173.33 120.33 173.33 119.88 179.14 113.22 179.14 113.59 173.33"/><path class="cls-7" d="M277.2,357.67H427.32v4.57a1.79,1.79,0,0,1-1.79,1.79H279a1.79,1.79,0,0,1-1.79-1.79h0v-4.57Z" transform="translate(-168.95 -187.71)"/><path class="cls-13" d="M277.2,357.67H427.32v4.57a1.79,1.79,0,0,1-1.79,1.79H279a1.79,1.79,0,0,1-1.79-1.79h0v-4.57Z" transform="translate(-168.95 -187.71)"/><rect class="cls-8" x="108.25" y="169.95" width="150.13" height="3.18"/><path class="cls-7" d="M430.48,358.5H274.05a1.79,1.79,0,0,1-1.79-1.79h0a1.8,1.8,0,0,1,1.79-1.8H430.48a1.8,1.8,0,0,1,1.79,1.8h0a1.79,1.79,0,0,1-1.79,1.79Z" transform="translate(-168.95 -187.71)"/><path class="cls-13" d="M430.48,358.5H274.05a1.79,1.79,0,0,1-1.79-1.79h0a1.8,1.8,0,0,1,1.79-1.8H430.48a1.8,1.8,0,0,1,1.79,1.8h0a1.79,1.79,0,0,1-1.79,1.79Z" transform="translate(-168.95 -187.71)"/><path class="cls-7" d="M393.47,349.38l1.92-2.89a2.08,2.08,0,0,1,1.72-.92h2.44a2.08,2.08,0,0,1,.6.09l8.7,2.64a2.06,2.06,0,0,1,1.17.92l1.25,2.1Z" transform="translate(-168.95 -187.71)"/><path class="cls-8" d="M411.27,351.32l-12.67-1.38-5.15-.56,1.92-2.89a2.09,2.09,0,0,1,1.73-.92h2.43a2.1,2.1,0,0,1,.61.09l.19.06,8.5,2.58a2.05,2.05,0,0,1,1.18.92Z" transform="translate(-168.95 -187.71)"/><path class="cls-8" d="M411.27,351.32l-12.67-1.38,1.73-4.22,8.5,2.58a2.05,2.05,0,0,1,1.18.92Z" transform="translate(-168.95 -187.71)"/><path class="cls-7" d="M417.29,354.63v.27H390.42l1-3.89a3.33,3.33,0,0,1,3.22-2.49h11.93a3.3,3.3,0,0,1,1.16.21l1.49.56,5.92,2.2A3.32,3.32,0,0,1,417.29,354.63Z" transform="translate(-168.95 -187.71)"/><path class="cls-8" d="M417.29,354.63v.27h-11l.59-4.2a1.76,1.76,0,0,1,2-1.5l.36.09,5.92,2.21A3.3,3.3,0,0,1,417.29,354.63Z" transform="translate(-168.95 -187.71)"/><path class="cls-11" d="M408,352.05l3.52-10.54a.77.77,0,0,1,1-.5l.12.05h0a.82.82,0,0,1,.4.9l-3,11.24S408.06,354,408,352.05Z" transform="translate(-168.95 -187.71)"/><polygon class="cls-8" points="224.52 166.32 222.96 166.32 223.26 164.78 224.82 164.78 224.52 166.32"/><polygon class="cls-8" points="226.84 166.26 225.28 166.26 225.58 164.73 227.14 164.73 226.84 166.26"/></g></svg>