<svg id="Data_Thing" data-name="Data Thing" xmlns="http://www.w3.org/2000/svg" viewBox="0 0 198 133.87"><defs><style>.cls-1{fill:#000222;opacity:0.25;}.cls-2{fill:#4aa2ff;}.cls-3{fill:#c1d8ed;}.cls-4{fill:#8ddbe0;}.cls-5{fill:#f3f5fd;}.cls-6{fill:#dee8f5;}.cls-7{fill:#0cbc8b;}.cls-8{fill:#fff;}</style></defs><rect class="cls-1" y="66.76" width="198" height="67.12" rx="7.18"/><rect class="cls-2" y="55.68" width="198" height="67.12" rx="7.18"/><path class="cls-3" d="M921.57,541.84c-1.22,3.71-5.44,7-4.18,9.73a14.75,14.75,0,0,1,1.18,3.23,5.61,5.61,0,0,1,.07,2c-.45,2.89-3.15,4.81-5.67,6.3l-.46.28c-2.38,1.43-4.88,3.07-5.64,5.7a26.34,26.34,0,0,0-.41,4.54,9.47,9.47,0,0,1-1.39,3.91H889c-1.43-1.57-1.31-4.21-.23-6.06s3.12-3.33,4.89-4.79a10.51,10.51,0,0,0,3.6-4.65,6.55,6.55,0,0,0,.21-.9c.14-1,.06-6.14,1.8-9.3,2.7-4.88,7.07-3.68,8.41-6.43.51-1.06.95-14,9.46-11.63a6.35,6.35,0,0,1,4.49,7.76C921.64,541.63,921.61,541.74,921.57,541.84Z" transform="translate(-752.98 -472.41)"/><path class="cls-4" d="M937.15,562.12a4.55,4.55,0,0,1-.79.41c-2.29.87-8.68.77-9.62,3-.44,1.07-.54,2.24-.92,3.33a8.24,8.24,0,0,1-5.63,5c-.91.25-1.85.37-2.75.65a10.64,10.64,0,0,0-4.44,2.95H892.29a8.14,8.14,0,0,1,3.74-6.91c2.3-1.46,5.21-1.73,7.47-3.25a10.82,10.82,0,0,0,3.42-4,29.92,29.92,0,0,0,1.43-3.23c.63-1.64,1.29-3.41,2.73-4.42a6.93,6.93,0,0,1,2.31-1,10.51,10.51,0,0,1,5.18.09c1.84.37,3.55.73,5.85-.49,4.08-2.17,10-13,16-2.71C942.81,555.72,939.51,560.53,937.15,562.12Z" transform="translate(-752.98 -472.41)"/><path class="cls-3" d="M785.77,541.84c1.22,3.71,5.45,7,4.18,9.73a15.28,15.28,0,0,0-1.18,3.23,5.61,5.61,0,0,0-.07,2c.46,2.89,3.16,4.81,5.67,6.3l.47.28c2.38,1.43,4.87,3.07,5.63,5.7a27.38,27.38,0,0,1,.42,4.54,9.32,9.32,0,0,0,1.38,3.91h16c1.42-1.57,1.3-4.21.22-6.06s-3.12-3.33-4.89-4.79A10.51,10.51,0,0,1,810,562a5.34,5.34,0,0,1-.2-.9c-.15-1-.07-6.14-1.81-9.3-2.7-4.88-7.07-3.68-8.4-6.43-.52-1.06-1-14-9.47-11.63a6.33,6.33,0,0,0-4.48,7.76Z" transform="translate(-752.98 -472.41)"/><path class="cls-4" d="M770.2,562.12a4.13,4.13,0,0,0,.78.41c2.3.87,8.69.77,9.62,3,.44,1.07.54,2.24.92,3.33a8.26,8.26,0,0,0,5.63,5c.91.25,1.85.37,2.75.65a10.58,10.58,0,0,1,4.44,2.95h20.71a8.14,8.14,0,0,0-3.74-6.91c-2.3-1.46-5.21-1.73-7.47-3.25a10.92,10.92,0,0,1-3.42-4A32,32,0,0,1,799,560.1c-.63-1.64-1.29-3.41-2.73-4.42a6.84,6.84,0,0,0-2.31-1,10.51,10.51,0,0,0-5.18.09c-1.83.37-3.55.73-5.85-.49-4.07-2.17-10-13-16-2.71C764.53,555.72,767.83,560.53,770.2,562.12Z" transform="translate(-752.98 -472.41)"/><polygon class="cls-5" points="135.01 87.61 67.14 87.61 67.14 0 120.56 0 135.01 15.26 135.01 87.61"/><polygon class="cls-6" points="120.56 0 120.56 15.26 135.01 15.26 120.56 0"/><path class="cls-6" d="M868,509.67v3.87a2.48,2.48,0,0,1-2.48,2.48H815.72a2.48,2.48,0,0,0-2.48,2.48v56.55a2.48,2.48,0,0,0,2.48,2.48h76.67a2.48,2.48,0,0,0,2.48-2.48h0V509.67a2.48,2.48,0,0,0-2.48-2.48H870.44a2.48,2.48,0,0,0-2.48,2.48Z" transform="translate(-752.98 -472.41)"/><circle class="cls-5" cx="101.08" cy="74.3" r="18.61"/><path class="cls-7" d="M861.26,543.42h-1v-2.3a6.18,6.18,0,0,0-12.35,0v2.3h-1a1.76,1.76,0,0,0-1.77,1.76v11.53a1.77,1.77,0,0,0,1.77,1.77h14.41a1.76,1.76,0,0,0,1.76-1.77h0V545.18A1.76,1.76,0,0,0,861.26,543.42Zm-11.38-2.3a4.17,4.17,0,0,1,8.34,0v2.3h-8.34Z" transform="translate(-752.98 -472.41)"/><circle class="cls-8" cx="101.08" cy="78.65" r="2.56"/></svg>