<svg id="Doctor" xmlns="http://www.w3.org/2000/svg" viewBox="0 0 198 135.8"><defs><style>.cls-1{fill:#000222;opacity:0.25;}.cls-2{fill:#4aa2ff;}.cls-3{fill:#dee8f5;}.cls-4,.cls-8{fill:#0f1011;}.cls-4{opacity:0.07;}.cls-4,.cls-7{isolation:isolate;}.cls-5{fill:#262626;}.cls-6{fill:#e98862;}.cls-7,.cls-9{opacity:0.15;}.cls-10{fill:#f8fcff;}.cls-11{fill:#007dff;}.cls-12{fill:#fff;}.cls-13{fill:#f3f5fd;}.cls-14{fill:#fd5d76;}.cls-15{fill:#fafafa;}.cls-16{fill:#d7e8f4;}.cls-17{fill:#abcbff;}.cls-18{fill:#9ebcea;}</style></defs><rect class="cls-1" x="2.89" y="121.19" width="189.29" height="14.61" rx="6.4"/><path class="cls-2" d="M818.39,405.48c-1.7,4.92-6.12,9.2-12.55,12.86H633.67c-5.64-3.54-9.37-7.67-10.56-12.41-3.49-13.84-.63-42.42,21.37-53.95,34.57-18.12,21-57.52,77.43-61.21s44.41,49.79,70.94,68.37C814.61,374.37,823.68,390.18,818.39,405.48Z" transform="translate(-621.86 -290.59)"/><polygon class="cls-3" points="113.62 127.08 72.78 127.08 72.82 126.65 87.27 125.66 95.44 125.1 113.13 123.89 113.62 127.08"/><polygon class="cls-4" points="113.62 127.08 72.78 127.08 72.82 126.65 87.27 125.66 95.44 125.1 113.13 123.89 113.62 127.08"/><path class="cls-5" d="M740.71,417.67H693.24l.18-1,.16.05.48-3.25,15.15-.94,8-.5,23.26-1.43Z" transform="translate(-621.86 -290.59)"/><path class="cls-6" d="M721.68,337.13c0-.11,0-.22,0-.33,0-1.11,0-2.32.15-3.64l-1.38-.25-8.37-1.55a35.3,35.3,0,0,1-.1,6.5l-.09.75s0,.05,0,.07c0,.33-.1.66-.16,1s-.08.42-.13.64a7.91,7.91,0,0,1-.19.81c-.07.27-.14.53-.23.79s-.16.52-.26.77a10.38,10.38,0,0,1-.65,1.44h0a7.18,7.18,0,0,1-1.9,2.34h15.33C722.71,344.8,721.72,341.94,721.68,337.13Z" transform="translate(-621.86 -290.59)"/><path class="cls-7" d="M710.23,344.13l8.1-6.2-6.36-.06A17.56,17.56,0,0,1,710.23,344.13Z" transform="translate(-621.86 -290.59)"/><path class="cls-6" d="M727.36,328.18c-.68,3.9-2.8,7.59-6.25,8.85-4.08,1.5-7.11,1.6-11.81,1.6-6.43,0-6.22-6.7-6.4-13.46s.36-14.05,2.9-16.41c5.07-4.72,20-1.73,21.76,6.16C728.49,319,728,324.47,727.36,328.18Z" transform="translate(-621.86 -290.59)"/><path class="cls-8" d="M699.46,312.68a2.5,2.5,0,0,1-1.91-3.21c.47-1.74,2.7-1.36,2.7-1.36s-2.11-.38-2.11-2.23c0-1.16.89-3.13,3.59-2a17.62,17.62,0,0,0,9.5.69,31.07,31.07,0,0,1,4.7-.66h0a17.82,17.82,0,0,1,5.38.72c4.9,1.46,12.31,5.85,10.73,15.81-1.75,11.1-7,15.35-9.26,16.72a1.06,1.06,0,0,1-1.44-.36,1.6,1.6,0,0,1-.1-.23c-.65-2.08-1.77-7.32-1.46-18.12l-19.38-1s-3.54.13-3.54-2.46A2.28,2.28,0,0,1,699.46,312.68Z" transform="translate(-621.86 -290.59)"/><circle class="cls-8" cx="90.22" cy="33.7" r="0.88"/><circle class="cls-8" cx="83.24" cy="33.13" r="0.88"/><path class="cls-8" d="M703.57,321.83h0l2.34,0a.42.42,0,1,0,0-.83h0l-2.34,0a.42.42,0,0,0-.42.42A.41.41,0,0,0,703.57,321.83Z" transform="translate(-621.86 -290.59)"/><path class="cls-8" d="M714,322.69a.42.42,0,0,0,.42-.42.41.41,0,0,0-.32-.4l-2.31-.56a.42.42,0,0,0-.5.31.43.43,0,0,0,.31.5l2.31.56Z" transform="translate(-621.86 -290.59)"/><path class="cls-6" d="M716.69,326.45a3.75,3.75,0,1,0,7.47.62,3.69,3.69,0,0,0-3.43-4.05C718.06,322.94,716.86,324.39,716.69,326.45Z" transform="translate(-621.86 -290.59)"/><g class="cls-9"><path d="M708.16,329.2a.3.3,0,0,0,.3-.31.31.31,0,0,0-.21-.29l-1.8-.55,1.26-2.81a.31.31,0,0,0-.16-.4.3.3,0,0,0-.4.15l-1.4,3.12a.31.31,0,0,0,.15.41h0l2.13.65Z" transform="translate(-621.86 -290.59)"/></g><path class="cls-10" d="M711.67,331.26a15.44,15.44,0,0,1-5.55-.46,2.88,2.88,0,0,0,5.55.46Z" transform="translate(-621.86 -290.59)"/><path class="cls-11" d="M739.76,400.4c1.09,6.11,2.65,12.29,3.66,17.27H689.47c.74-5.34,2-12.08,2.8-19.69a107.59,107.59,0,0,0,.56-12,142.58,142.58,0,0,0-1.3-14.39c-1.57-13.31-2.37-25.84,12.46-26.48h.33l1.35,0h.12c0,.79,1.21,1.39,3,1.81h0a42.09,42.09,0,0,0,14.44.12l.12,0a9.36,9.36,0,0,0,3-1,2,2,0,0,0,.33-.25,1.19,1.19,0,0,0,.42-.71h.53c.5,0,1,0,1.46.07,5,.36,9,2.05,11.49,4.52,6.61,6.61,3.1,16.42.26,26.07a64.57,64.57,0,0,0-2.23,9.55h0c-.07.58-.13,1.15-.16,1.71s0,1,0,1.49A70,70,0,0,0,739.76,400.4Z" transform="translate(-621.86 -290.59)"/><path class="cls-6" d="M705.68,344.6c.15,3.36,2,8.29,7.62,8.67,7.51.49,13.33-5.33,13.77-8.75h-2.14c-2.71,0-14.89,0-17.26.05Z" transform="translate(-621.86 -290.59)"/><path class="cls-12" d="M742.82,400.73c.53,5.24,1.1,11,1.69,16.94H717.33c0-.66,0-1.33,0-2,0-1.21,0-2.41,0-3.61,0-4.91,0-9.63,0-14.08,0-1.29,0-2.56.07-3.81,0-.57,0-1.14,0-1.7v-.08c.09-2.71.2-5.29.35-7.75.09-1.39.19-2.74.3-4,.05-.64.11-1.27.17-1.88.82-8.34,3.09-20.92,4.49-28.28l.67-3.52c0-.17.07-.33.1-.48s0-.18,0-.27h0l.33-1.67h0s1-.07,2.62-.06l1.25,0,1.38.06a28.8,28.8,0,0,1,8.73,1.76c6.3,2.62,8.62,17.29,11,27.08a.13.13,0,0,1,0,.06l-6.48,22.72C742.5,397.63,742.66,399.16,742.82,400.73Z" transform="translate(-621.86 -290.59)"/><path class="cls-13" d="M723.86,344.48s-6.5,25-6.5,50.72l11.24-35.95L725,354.71l5.06-3.59-.95-6.58A27,27,0,0,0,723.86,344.48Z" transform="translate(-621.86 -290.59)"/><path class="cls-12" d="M709.78,379.11c0,.75,0,1.68,0,2.76,0,1.73,0,3.86-.09,6.32,0,1.8-.06,3.76-.1,5.89h0c0,.42,0,.85,0,1.28l0,1.25c-.09,4.77-.2,10.18-.32,16,0,1.21-.06,2.44-.08,3.68l0,1.42H686.5c.84-7.49,1.64-13.86,2.34-19.17,1.37-10.36,2.39-16.67,2.72-19.39l-7.85-4.25-.22-.12s6.92-25.28,12.71-28.44c2.53-1.37,6-1.57,8-1.66h.08c2.52-.12,4.32-.12,4.32-.12v.05c0,.15,0,.69.09,1.54h0c0,.11,0,.22,0,.35s0,.25,0,.38c.07,1.23.16,2.9.26,4.91h0c.07,1.38.14,2.93.21,4.59,0,.91.08,1.86.11,2.83h0c.1,2.61.2,5.44.27,8.38h0c0,.66,0,1.33,0,2C709.74,372.71,709.78,375.93,709.78,379.11Z" transform="translate(-621.86 -290.59)"/><path class="cls-13" d="M708.65,344.48s2.15,27.91,1,49.76l-6.82-35,3.27-4.07-4.11-3.1,2.32-7.48Z" transform="translate(-621.86 -290.59)"/><path class="cls-6" d="M712.61,396.55s-13.22,1.21-18.27-6.37a1.14,1.14,0,0,1,.32-1.59,1.13,1.13,0,0,1,.91-.16c4.63,1.13,14.25,3.09,14.08-.24l7.33,2.26Z" transform="translate(-621.86 -290.59)"/><path class="cls-12" d="M748.29,401.28a6.64,6.64,0,0,0,6.65-6.66,6.53,6.53,0,0,0-.25-1.81l-6.33-21.41-12,5.52,2.84,10-27-2.89-1.42,13.24,36.76,3.94C747.81,401.26,748.05,401.28,748.29,401.28Z" transform="translate(-621.86 -290.59)"/><path class="cls-12" d="M684.34,399.1a6.63,6.63,0,0,0,1-.07l41.4-6.27-2-13.16-30.28,4.58L698.21,374l-13.07-4.8-7,20.94a6.64,6.64,0,0,0,6.24,9Z" transform="translate(-621.86 -290.59)"/><path class="cls-6" d="M725,381.27s7-.5,9.7,5.17l-9.22-.84Z" transform="translate(-621.86 -290.59)"/><polygon class="cls-11" points="105.49 69.38 105.86 53.8 104.61 53.78 104.18 69.32 105.49 69.38"/><path class="cls-11" d="M704.05,354.52l.28-9.88,1.35,0-.15,9.93a6.42,6.42,0,0,1,5.62,6.36v7.66h-1.48v-7.66a4.93,4.93,0,0,0-9.86-.08v7.74h-1.48v-7.66A6.42,6.42,0,0,1,704.05,354.52Z" transform="translate(-621.86 -290.59)"/><circle class="cls-11" cx="104.88" cy="70.48" r="2.87"/><circle class="cls-11" cx="88.56" cy="77.97" r="1.27"/><circle class="cls-11" cx="77.25" cy="77.97" r="1.27"/><circle class="cls-13" cx="36.31" cy="45.09" r="16.17"/><circle class="cls-13" cx="170.36" cy="98.06" r="16.17"/><circle class="cls-13" cx="156.5" cy="37.27" r="16.17"/><circle class="cls-13" cx="20.14" cy="96.7" r="13.8"/><rect class="cls-14" x="34.4" y="37.27" width="3.82" height="15.63"/><rect class="cls-14" x="28.49" y="43.18" width="15.63" height="3.82"/><path class="cls-5" d="M643.48,378.89v1.58H634.6v-1.58a.73.73,0,0,1,.73-.73h7.42A.73.73,0,0,1,643.48,378.89Z" transform="translate(-621.86 -290.59)"/><path class="cls-11" d="M643.48,380.47v15.1a.84.84,0,0,1-.83.84h-7.22a.84.84,0,0,1-.83-.84h0v-15.1Z" transform="translate(-621.86 -290.59)"/><rect class="cls-15" x="14.23" y="93.76" width="5.91" height="8.6"/><path class="cls-16" d="M640.88,387.15h-3.67a.28.28,0,1,1,0-.55h3.67a.28.28,0,0,1,0,.55Z" transform="translate(-621.86 -290.59)"/><path class="cls-16" d="M640.88,388.33h-3.67a.27.27,0,0,1-.29-.26.28.28,0,0,1,.27-.29h3.69a.28.28,0,1,1,0,.55Z" transform="translate(-621.86 -290.59)"/><path class="cls-16" d="M640.88,389.51h-3.67a.28.28,0,1,1,0-.55h3.67a.28.28,0,0,1,0,.55Z" transform="translate(-621.86 -290.59)"/><path class="cls-16" d="M640.12,390.69H638a.27.27,0,0,1-.29-.27.28.28,0,0,1,.27-.28h2.17a.28.28,0,1,1,0,.55Z" transform="translate(-621.86 -290.59)"/><rect class="cls-5" x="17.05" y="95.99" width="12.45" height="9.4" rx="0.71"/><rect class="cls-17" x="18.54" y="100.57" width="9.47" height="0.26" rx="0.13"/><rect class="cls-15" x="18.54" y="97.06" width="0.9" height="2.54" rx="0.45"/><rect class="cls-15" x="20.25" y="97.06" width="0.9" height="2.54" rx="0.45"/><rect class="cls-15" x="21.96" y="97.06" width="0.9" height="2.54" rx="0.45"/><rect class="cls-15" x="23.68" y="97.06" width="0.9" height="2.54" rx="0.45"/><rect class="cls-15" x="25.39" y="97.06" width="0.9" height="2.54" rx="0.45"/><rect class="cls-15" x="27.11" y="97.06" width="0.9" height="2.54" rx="0.45"/><rect class="cls-15" x="18.54" y="101.78" width="0.9" height="2.54" rx="0.45"/><rect class="cls-15" x="20.25" y="101.78" width="0.9" height="2.54" rx="0.45"/><rect class="cls-15" x="21.96" y="101.78" width="0.9" height="2.54" rx="0.45"/><rect class="cls-15" x="23.68" y="101.78" width="0.9" height="2.54" rx="0.45"/><rect class="cls-15" x="25.39" y="101.78" width="0.9" height="2.54" rx="0.45"/><rect class="cls-15" x="27.11" y="101.78" width="0.9" height="2.54" rx="0.45"/><path class="cls-5" d="M775.82,318.6l-.05.49-2.26-.26a.91.91,0,0,0-1,.8l-1.85,16.11a.91.91,0,0,0,.79,1l12,1.38a.9.9,0,0,0,1-.79h0l1.86-16.11a.92.92,0,0,0-.8-1l-2.25-.25.05-.5a.63.63,0,0,0-.55-.7h0l-6.25-.72A.64.64,0,0,0,775.82,318.6Z" transform="translate(-621.86 -290.59)"/><rect class="cls-15" x="770.24" y="322.36" width="16.52" height="12.24" rx="0.41" transform="translate(-258.67 773.74) rotate(-83.44)"/><rect class="cls-11" x="778.44" y="317.3" width="2.01" height="5.95" rx="0.28" transform="translate(-249.68 767.41) rotate(-83.44)"/><rect class="cls-18" x="779.02" y="329.54" width="0.37" height="6.97" rx="0.18" transform="translate(-262.56 778.48) rotate(-83.44)"/><rect class="cls-18" x="779.93" y="331.76" width="0.37" height="4.9" rx="0.18" transform="translate(-262.93 780.43) rotate(-83.44)"/><rect class="cls-18" x="776.9" y="322.52" width="0.37" height="6.67" rx="0.18" transform="translate(-257.31 770.02) rotate(-83.44)"/><rect class="cls-18" x="775.87" y="324.4" width="0.37" height="4.82" rx="0.18" transform="translate(-259.18 769.84) rotate(-83.44)"/><rect class="cls-18" x="776.96" y="324.37" width="0.37" height="7.28" rx="0.18" transform="translate(-259.4 771.99) rotate(-83.44)"/><rect class="cls-18" x="776.08" y="326.12" width="0.37" height="5.74" rx="0.18" transform="translate(-261.15 771.98) rotate(-83.44)"/><path class="cls-18" d="M775.29,324.18l.27-.47-.28,0-.18.32-.3-.74a.39.39,0,0,0,.19-.12.41.41,0,0,0,.09-.23.38.38,0,0,0,0-.21.42.42,0,0,0-.09-.14.51.51,0,0,0-.16-.09l-.19,0-.49-.05-.15,1.33.3,0,.06-.49.16,0,.34.85-.28.5.31,0,.19-.35.11.38.29,0Zm-.77-1.14h-.16l0-.38.15,0a.28.28,0,0,1,.18.06.15.15,0,0,1,0,.14.22.22,0,0,1-.08.14A.32.32,0,0,1,774.52,323Z" transform="translate(-621.86 -290.59)"/><rect class="cls-18" x="782.87" y="325.82" width="0.37" height="1.45" rx="0.18" transform="translate(-252.7 776.56) rotate(-83.44)"/><rect class="cls-18" x="782.75" y="326.88" width="0.37" height="1.45" rx="0.18" transform="translate(-253.87 777.38) rotate(-83.44)"/><rect class="cls-18" x="782.63" y="327.94" width="0.37" height="1.45" rx="0.18" transform="matrix(0.11, -0.99, 0.99, 0.11, -255.03, 778.2)"/><rect class="cls-18" x="782.51" y="329.01" width="0.37" height="1.45" rx="0.18" transform="translate(-256.2 779.02) rotate(-83.44)"/><path class="cls-8" d="M788.91,389.1l-1,.17a4.48,4.48,0,0,1-4.64-3.68l-.93-5.27,1-.18.94,5.27a3.44,3.44,0,1,0,6.78-1.15v-.05l-.93-5.27,1-.18.94,5.27A4.47,4.47,0,0,1,788.91,389.1Z" transform="translate(-621.86 -290.59)"/><circle class="cls-5" cx="160.95" cy="89.65" r="0.89"/><circle class="cls-5" cx="168.73" cy="88.27" r="0.89"/><path class="cls-8" d="M793.57,400.14a4.36,4.36,0,0,1-4.5-3.28l-1.34-8.13,1-.17,1.33,8.12c.35,1.78,2.34,2.61,4,2.36l1.27-.18a3.36,3.36,0,0,0,2.85-3.79h0l-.55-3.83,1-.15.55,3.83a4.41,4.41,0,0,1-3.73,5h0l-1.27.18A4.6,4.6,0,0,1,793.57,400.14Z" transform="translate(-621.86 -290.59)"/><circle class="cls-5" cx="176.41" cy="99.81" r="2.05"/></svg>