<svg xmlns="http://www.w3.org/2000/svg" viewBox="0 0 311.26 288.26"><defs><style>.cls-1{opacity:0.25;}.cls-2{fill:#4aa2ff;}.cls-3{opacity:0.04;}.cls-11,.cls-16,.cls-3{isolation:isolate;}.cls-4{fill:#e98862;}.cls-5{fill:#262626;}.cls-6{fill:#c1d8ed;}.cls-7{fill:#fff;}.cls-8{fill:#367cff;}.cls-9{fill:#d7e8f4;}.cls-10{fill:#0cbc8b;}.cls-11,.cls-13{opacity:0.15;}.cls-12,.cls-16{fill:#0f1011;}.cls-14{fill:#f8fcff;}.cls-15{fill:#dee8f5;}.cls-16{opacity:0.07;}.cls-17{fill:#f4f4f4;}.cls-18{fill:#f3f5fd;}</style></defs><g id="Layer_1" data-name="Layer 1"><ellipse class="cls-1" cx="167.26" cy="173.98" rx="144" ry="114.28"/><path class="cls-2" d="M395.81,331.08c0,24.16-10.58,46.46-28.45,64.44-1.79,1.82-3.67,3.59-5.61,5.31a130,130,0,0,1-11.06,8.74l-.44.32c-.77.54-1.55,1.08-2.34,1.61-.57.39-1.14.76-1.72,1.14-.78.51-1.57,1-2.37,1.51q-5,3.15-10.47,6l-1.89.95q-4.92,2.47-10.11,4.63c-1.27.52-2.53,1-3.83,1.53h0q-1.89.72-3.81,1.41l-2.73.95-2.81.94h0l-.11,0q-5.08,1.62-10.35,2.94c-.87.23-1.74.44-2.62.64l-.62.15h0l-1.93.44c-.92.2-1.84.4-2.77.58-.68.14-1.36.28-2,.4l-.2,0q-3.54.67-7.16,1.23c-1.15.17-2.3.34-3.46.49l-1.49.19a191,191,0,0,1-22.14,1.43h-1.41q-4.19,0-8.3-.18l-2.24-.11-1.09-.07c-1.62-.08-3.24-.2-4.84-.34a184.72,184.72,0,0,1-21.69-3.14c-1.57-.32-3.12-.66-4.67-1l-1.61-.38-2.23-.56c-.86-.21-1.72-.44-2.57-.67q-3-.81-5.92-1.74c-1.51-.46-3-.95-4.47-1.45-1.12-.38-2.23-.77-3.33-1.18h0c-1.08-.39-2.14-.8-3.2-1.21-1.33-.52-2.65-1-4-1.61-2.29-1-4.56-2-6.77-3l-1.52-.73q-2.07-1-4.09-2.07-2.38-1.26-4.71-2.59-4.5-2.55-8.71-5.39l-.82-.55q-4.4-3-8.47-6.26-4.38-3.51-8.33-7.31c-19.08-18.31-30.45-41.37-30.45-66.41,0-22.7,9.34-43.76,25.29-61.15,2.47-2.69,5.11-5.3,7.89-7.81l.95-.86h0c2-1.77,4.07-3.49,6.21-5.14l1.06-.82h0l1.29-1,.81-.6q1.76-1.29,3.59-2.55c3.38-2.29,6.9-4.48,10.56-6.53q2.83-1.6,5.77-3.1l.54-.27h0l1.12-.55.74-.36,1-.5c1.92-.92,3.86-1.8,5.84-2.65l2.53-1h0c.59-.25,1.18-.49,1.77-.71s.95-.39,1.43-.57h0q1.73-.66,3.48-1.29l.8-.28a188.52,188.52,0,0,1,120.77-.59l.58.2.59.21.65.23c.38.12.75.26,1.12.39l.33.12c.95.35,1.85.7,2.79,1.07h0l.37.14h0c1.4.54,2.79,1.1,4.17,1.69l.43.18c3,1.27,6,2.64,8.89,4.08q2.55,1.26,5,2.63l0,0a144.69,144.69,0,0,1,14.67,9.17h0c1.06.75,2.09,1.52,3.12,2.3a124.38,124.38,0,0,1,10.35,8.75C384.12,282.35,395.81,305.68,395.81,331.08Z" transform="translate(-84.56 -163.37)"/></g><g id="Nurse_Medium" data-name="Nurse Medium"><path class="cls-3" d="M152.54,291.36a91.27,91.27,0,0,0,40.16,2.51l-.56-5.71Z" transform="translate(-84.56 -163.37)"/><path class="cls-4" d="M182.69,424.15s0-10.71,0-11.66H193c0,.94,0,11.63,0,11.63Z" transform="translate(-84.56 -163.37)"/><path class="cls-5" d="M195.7,419.06l-2.68.23-10.35.87-.22,0h0l-1.26.11-3.65.31c-3.29-33.61-8.32-82-11.45-117.16-3.57,17.09-6,34.79-9.12,51.71-.54,18.55-1,37.79-1.08,56.46l-.82-.55q-4.4-3-8.47-6.26-4.38-3.51-8.33-7.31c.3-14.81.38-29.79.55-44.31,3-20,4.85-41.74,8.06-62.16q.81-5.24,1.77-10.34l.13,0,.39-2.62,37.48-2.32s.3,4.82.8,12.76c.05.74.09,1.51.14,2.3.08,1.17.15,2.39.23,3.67C189.87,327.28,194.06,394,195.7,419.06Z" transform="translate(-84.56 -163.37)"/><path class="cls-6" d="M194.11,421v5.89a1.33,1.33,0,0,1-1.32,1.32l-3.94,0h0c-1.08-.39-2.14-.8-3.2-1.21-1.33-.52-2.65-1-4-1.61-2.29-1-4.56-2-6.77-3l6.27-2.1.27-.09a1.6,1.6,0,0,1,1,0h0l.22.08.2.1a9.38,9.38,0,0,0,5.65,1.67,8.46,8.46,0,0,0,4.35-1.58l.15-.1a.77.77,0,0,1,.92.2A.79.79,0,0,1,194.11,421Z" transform="translate(-84.56 -163.37)"/><path class="cls-4" d="M104.79,226.37c-1.39,1.61-.61,4.38,3.09,6.64,5.63,3.43,7.14,1.8,8.54.2s-3.28-3.58-6.52-7a3.37,3.37,0,0,0-4.77-.23A3.64,3.64,0,0,0,104.79,226.37Z" transform="translate(-84.56 -163.37)"/><rect class="cls-5" x="85.69" y="212.53" width="24.29" height="32.49" rx="2.29" transform="translate(-103.33 -154.39) rotate(-4.79)"/><rect class="cls-7" x="87.48" y="214.58" width="20.71" height="28.37" rx="1.08" transform="matrix(1, -0.08, 0.08, 1, -103.32, -154.39)"/><path class="cls-4" d="M116.67,232.31c.08.07-6.83-9.45-8.62-7.66-.79.79,1.53,3.5,1.53,3.5Z" transform="translate(-84.56 -163.37)"/><path class="cls-8" d="M133.44,264.18a5.39,5.39,0,0,1-4.26-2.1l-20.25-26.36,8.52-6.55,15.71,20.45,5.66-8.38,8.9,6-9.83,14.56a5.34,5.34,0,0,1-4.29,2.37Z" transform="translate(-84.56 -163.37)"/><path class="cls-5" d="M145.54,289.89c2.07,4.75,43.73,6.48,44.27-1.86.35-5.32-4.81-19.87-4.81-30.22s9.53-23.57,1.77-31.33c-2.26-2.25-6.14-3.71-10.88-3.71-.36,2.76-5.06,7.46-11.12,7.06-4.55-.3-6-4.29-6.15-7-.64,0-1.14,0-1.45,0-16.35.7-9.16,19.31-9,33C148.36,271.84,143.41,285,145.54,289.89Z" transform="translate(-84.56 -163.37)"/><rect class="cls-5" x="139.42" y="231.62" width="17.48" height="10.74" transform="translate(-215.72 63.85) rotate(-55.98)"/><rect class="cls-7" x="151.68" y="238.64" width="25.1" height="32.94" transform="matrix(0.99, -0.14, 0.14, 0.99, -119, -137.56)"/><rect class="cls-9" x="151.69" y="238.86" width="22.02" height="32.94" transform="translate(-119.05 -137.77) rotate(-8.14)"/><polygon class="cls-10" points="86.72 74.1 88.68 73.82 89.4 78.91 87.44 79.15 86.72 74.1"/><polygon class="cls-5" points="88.06 83.84 90.02 83.56 89.4 78.91 87.44 79.15 88.06 83.84"/><path class="cls-8" d="M158.62,222.83c.13,2.71,1.6,6.7,6.15,7,6.06.4,10.76-4.3,11.12-7.06h-1.42c-2.15,0-5.21,3.54-7.43,3.54-2.94,0-5-3.51-7-3.49Z" transform="translate(-84.56 -163.37)"/><path class="cls-4" d="M160,222.82c.11,2.27,1.34,5.6,5.14,5.85,5.06.33,9-3.59,9.29-5.9h0C169.47,222.77,163,222.78,160,222.82Z" transform="translate(-84.56 -163.37)"/><path class="cls-4" d="M164.88,255l.24-.07c-1.4-.43-5.86-2.62-6.57-1.53-.26.42.94,1.34,1.85,2-2.36.57-7.28-.46-10-1.13a.93.93,0,0,0-1.13.68.94.94,0,0,0,.13.73c4.08,6.12,14.75,5.15,14.75,5.15l3.53-4.93Z" transform="translate(-84.56 -163.37)"/><path class="cls-8" d="M196.18,264.5h-.24L163,263.07l.47-10.74,24.26,1-1.77-4,9.81-4.36,5.3,11.92a5.38,5.38,0,0,1-2.73,7.09,5.47,5.47,0,0,1-2.18.46Z" transform="translate(-84.56 -163.37)"/><path class="cls-4" d="M161.12,223.84l.38,0h12.15c-1-1.64-2.05-4.85-1.56-10.84l-7.87-1.46S165.1,220.89,161.12,223.84Z" transform="translate(-84.56 -163.37)"/><path class="cls-11" d="M162.73,221.9l6.54-5-5.13-.05A14.17,14.17,0,0,1,162.73,221.9Z" transform="translate(-84.56 -163.37)"/><path class="cls-4" d="M176.56,209c-.55,3.14-2.27,6.12-5,7.14a20.06,20.06,0,0,1-9.54,1.29c-8.62-.71-6.92-20.3-2.82-24.11s16.09-1.39,17.56,5C177.47,201.62,177.07,206,176.56,209Z" transform="translate(-84.56 -163.37)"/><path class="cls-12" d="M156.31,194a2.8,2.8,0,0,1,1.05-1c3.83-2.08,10.92-2.8,14.32-1.78,3.95,1.18,8.91,4.5,7.64,12.53,0,.34-.11.66-.17,1a6.9,6.9,0,1,1-4.88,10.14,12.65,12.65,0,0,1-1.89,1.34c-.47.28-.59,0-.75-.47-.57-1.83-1.13-9.06-.68-14.32l-9.29-.32-1.62-4.6-1.32,4.6h-3.17C155.13,198.67,154.69,195.84,156.31,194Z" transform="translate(-84.56 -163.37)"/><circle class="cls-12" cx="79.67" cy="42.52" r="0.71"/><circle class="cls-12" cx="74.04" cy="42.06" r="0.71"/><path class="cls-12" d="M157.36,203.9h0l1.89,0a.34.34,0,0,0,.34-.34.34.34,0,0,0-.34-.33h0l-1.9,0a.35.35,0,0,0-.32.35A.33.33,0,0,0,157.36,203.9Z" transform="translate(-84.56 -163.37)"/><path class="cls-12" d="M165.77,204.59a.34.34,0,0,0,.08-.66l-1.87-.45a.34.34,0,0,0-.42.22.34.34,0,0,0,.21.42h.06l1.86.45Z" transform="translate(-84.56 -163.37)"/><path class="cls-4" d="M167.94,207.63a3,3,0,0,0,6,.49,3,3,0,0,0-2.66-3.25h-.1A2.82,2.82,0,0,0,167.94,207.63Z" transform="translate(-84.56 -163.37)"/><g class="cls-13"><path d="M161.06,209.85a.25.25,0,0,0,.25-.25.25.25,0,0,0-.18-.23l-1.45-.45,1-2.26a.25.25,0,0,0-.13-.33.24.24,0,0,0-.32.13h0L159.12,209a.25.25,0,0,0,.12.33h0l1.72.53Z" transform="translate(-84.56 -163.37)"/></g><path class="cls-14" d="M163.9,211.51a12.4,12.4,0,0,1-4.49-.37,2.33,2.33,0,0,0,4.49.37Z" transform="translate(-84.56 -163.37)"/><path class="cls-9" d="M88.56,219.31a.46.46,0,0,1-.46-.46.47.47,0,0,1,.42-.47l14.62-1.21a.46.46,0,0,1,.5.43.45.45,0,0,1-.42.5L88.6,219.31Z" transform="translate(-84.56 -163.37)"/><path class="cls-9" d="M88.82,222.51a.46.46,0,0,1,0-.92l7.86-.67a.46.46,0,0,1,.09.92h0l-7.85.67Z" transform="translate(-84.56 -163.37)"/><path class="cls-9" d="M89.12,224.74a.45.45,0,0,1-.46-.46.46.46,0,0,1,.43-.46l5.92-.51a.46.46,0,0,1,.5.43.45.45,0,0,1-.42.5l-5.93.5Z" transform="translate(-84.56 -163.37)"/><path class="cls-9" d="M89.27,227.07a.45.45,0,0,1-.46-.46.46.46,0,0,1,.42-.46l5.93-.5a.47.47,0,0,1,.51.41.48.48,0,0,1-.42.51h0l-5.93.5Z" transform="translate(-84.56 -163.37)"/><path class="cls-9" d="M89.62,231.62a.46.46,0,0,1-.47-.46.47.47,0,0,1,.43-.46l4.44-.38a.47.47,0,0,1,.5.42.46.46,0,0,1-.42.5l-4.44.38Z" transform="translate(-84.56 -163.37)"/><path class="cls-9" d="M89.4,229.46a.47.47,0,0,1,0-.93l7.07-.6a.46.46,0,0,1,.5.43.47.47,0,0,1-.42.5l-7.07.6Z" transform="translate(-84.56 -163.37)"/><path class="cls-9" d="M103.75,221.11a.47.47,0,0,1-.47-.46.46.46,0,0,1,.43-.47l2.13-.18a.47.47,0,0,1,.49.43.45.45,0,0,1-.41.49l-2.14.18Z" transform="translate(-84.56 -163.37)"/><path class="cls-9" d="M104.05,223.34a.46.46,0,0,1-.46-.46.45.45,0,0,1,.42-.47l1.83-.15a.45.45,0,0,1,.5.42.47.47,0,0,1-.42.5l-1.83.16Z" transform="translate(-84.56 -163.37)"/><path class="cls-9" d="M104.2,225.67a.47.47,0,0,1,0-.93l2-.16a.45.45,0,0,1,.5.42.47.47,0,0,1-.42.5l-2,.17Z" transform="translate(-84.56 -163.37)"/><path class="cls-9" d="M104.54,230.22a.47.47,0,0,1-.46-.47.46.46,0,0,1,.42-.46l1.9-.16a.46.46,0,0,1,.1.92h0l-1.9.16Z" transform="translate(-84.56 -163.37)"/><path class="cls-9" d="M104.32,228.05a.46.46,0,0,1,0-.92l1.83-.16a.48.48,0,0,1,.51.42.46.46,0,0,1-.42.5h0l-1.84.15Z" transform="translate(-84.56 -163.37)"/><path class="cls-9" d="M99.24,238.49a.46.46,0,0,1,0-.92l7.86-.67a.47.47,0,0,1,.5.42.46.46,0,0,1-.43.5l-7.85.67Z" transform="translate(-84.56 -163.37)"/><path class="cls-9" d="M101.18,240.34a.47.47,0,0,1,0-.93l5.93-.5a.47.47,0,0,1,.5.42.46.46,0,0,1-.42.5l-5.93.51Z" transform="translate(-84.56 -163.37)"/><path class="cls-5" d="M91.22,210.43l10.08-.84a1.06,1.06,0,0,1,1.15,1h0l.21,2.52h0l-12.2,1h0l-.21-2.52A1.06,1.06,0,0,1,91.22,210.43Z" transform="translate(-84.56 -163.37)"/><rect class="cls-5" x="182.2" y="231.61" width="10.74" height="16.3" transform="translate(-165.73 -66.59) rotate(-23.95)"/><path class="cls-4" d="M324.59,423.12l-10.36,0s0-10.7,0-11.65h10.36C324.63,412.39,324.59,423.12,324.59,423.12Z" transform="translate(-84.56 -163.37)"/><path class="cls-5" d="M367.36,395.52c-1.79,1.82-3.67,3.59-5.61,5.31a130,130,0,0,1-11.06,8.74c-2-24.91-4-50.47-8.56-74.88-1.95-10.54-3.55-21.21-5.67-31.74l-6.68,116.2-5.18-.2-10.36-.41-2.7-.11L315.08,296l.18-6.12.44-15.36,37.54,2.32.39,2.63.13,0c.55,2.88,1.06,5.81,1.53,8.77.09.53.18,1.06.25,1.59v0c3.05,19.42,4.78,40.23,7.64,59.17C364.71,364.37,365.92,380,367.36,395.52Z" transform="translate(-84.56 -163.37)"/><path class="cls-3" d="M315.08,296s40.51-2,40.51-6.42c0-10.08-40.28-1.31-40.28-1.31Z" transform="translate(-84.56 -163.37)"/><path class="cls-6" d="M331.46,421.05q-4.92,2.47-10.11,4.63c-1.27.52-2.53,1-3.83,1.53h-3a1.33,1.33,0,0,1-1.33-1.32V420a.77.77,0,0,1,1.09-.69.54.54,0,0,1,.16.1,8.35,8.35,0,0,0,4.35,1.59,9.44,9.44,0,0,0,5.66-1.68.66.66,0,0,1,.19-.09,1.74,1.74,0,0,1,1.23-.07Z" transform="translate(-84.56 -163.37)"/><path class="cls-4" d="M330.92,215.13a2.44,2.44,0,0,0,0-.27c0-.89,0-1.87-.13-2.94l1.12-.2,6.76-1.26a28.88,28.88,0,0,0,.09,5.26c0,.2,0,.4.07.6,0,0,0,0,0,.06,0,.27.08.53.13.8s.07.34.11.52.09.44.15.65.12.43.19.64.13.42.21.63a8.57,8.57,0,0,0,.52,1.16h0a5.84,5.84,0,0,0,1.54,1.88H329.31C330.08,221.33,330.88,219,330.92,215.13Z" transform="translate(-84.56 -163.37)"/><path class="cls-11" d="M340.17,220.79l-6.55-5,5.15-.06A14.05,14.05,0,0,0,340.17,220.79Z" transform="translate(-84.56 -163.37)"/><path class="cls-4" d="M326.33,207.89c.54,3.16,2.26,6.14,5,7.16,3.31,1.21,5.75,1.29,9.56,1.29,5.19,0,5-5.42,5.16-10.87s-.29-11.36-2.34-13.27c-4.1-3.81-16.12-1.4-17.58,5C325.41,200.47,325.81,204.89,326.33,207.89Z" transform="translate(-84.56 -163.37)"/><path class="cls-12" d="M348.88,195.37a2,2,0,0,0,1.54-2.6c-.39-1.41-2.19-1.09-2.19-1.09s1.71-.32,1.71-1.81c0-.93-.72-2.52-2.9-1.62a14.24,14.24,0,0,1-7.68.56,25.55,25.55,0,0,0-3.8-.53h0a14.5,14.5,0,0,0-4.35.58c-4,1.18-9.95,4.73-8.68,12.77,1.42,9,5.64,12.41,7.49,13.52a.85.85,0,0,0,1.16-.29,1.08,1.08,0,0,0,.08-.19c.53-1.68,1.43-5.91,1.18-14.64l15.67-.78s2.86.11,2.86-2A1.84,1.84,0,0,0,348.88,195.37Z" transform="translate(-84.56 -163.37)"/><circle class="cls-12" cx="254.12" cy="41.39" r="0.71"/><circle class="cls-12" cx="259.76" cy="40.92" r="0.71"/><path class="cls-12" d="M345.55,202.77h0l-1.9,0a.34.34,0,0,1,0-.67h0l1.9,0a.34.34,0,0,1,.32.35A.35.35,0,0,1,345.55,202.77Z" transform="translate(-84.56 -163.37)"/><path class="cls-12" d="M337.13,203.46a.34.34,0,0,1-.34-.34.35.35,0,0,1,.26-.33l1.87-.45a.34.34,0,0,1,.16.66h0l-1.87.45Z" transform="translate(-84.56 -163.37)"/><path class="cls-4" d="M335,206.5a3,3,0,1,1-6,.58s0-.06,0-.09a3,3,0,0,1,2.67-3.26h.1C333.85,203.66,334.82,204.83,335,206.5Z" transform="translate(-84.56 -163.37)"/><g class="cls-13"><path d="M341.85,208.72a.25.25,0,0,1-.25-.25.26.26,0,0,1,.17-.24l1.46-.44-1-2.26a.25.25,0,0,1,.12-.33.24.24,0,0,1,.33.12h0l1.13,2.52a.25.25,0,0,1-.12.33h0l-1.72.53Z" transform="translate(-84.56 -163.37)"/></g><path class="cls-14" d="M339,210.38a12.4,12.4,0,0,0,4.49-.37,2.33,2.33,0,0,1-4.49.37Z" transform="translate(-84.56 -163.37)"/><path class="cls-5" d="M356.86,288.67c-2.07,4.75-43.79,6.49-44.33-1.87-.35-5.32,4.81-19.89,4.81-30.26s-9.54-23.6-1.76-31.38c2.25-2.25,6.14-3.71,10.89-3.71.36,2.77,17.16,2.78,17.29.06.64,0,1.14,0,1.45,0,16.37.7,9.18,19.34,9,33C354,270.59,359,283.77,356.86,288.67Z" transform="translate(-84.56 -163.37)"/><path class="cls-8" d="M343.76,221.51c-.13,2.72-1.6,6.71-6.16,7-6.07.4-10.78-4.3-11.13-7.07h1.73c2.19,0,4.28,3.54,6.51,3.55,2.71,0,5.52-3.52,7.44-3.51Z" transform="translate(-84.56 -163.37)"/><path class="cls-4" d="M342.22,221.5c-.11,2.2-1.3,5.44-5,5.68-4.92.33-8.73-3.49-9-5.73h8.46C338.93,221.47,340.93,221.48,342.22,221.5Z" transform="translate(-84.56 -163.37)"/><path class="cls-4" d="M338.25,263.15s10.68,1,14.76-5.15a.93.93,0,0,0-.26-1.29.94.94,0,0,0-.73-.13c-3.74.92-11.52,2.5-11.38-.19l-5.93,1.83Z" transform="translate(-84.56 -163.37)"/><path class="cls-8" d="M309.41,267a5.38,5.38,0,0,1-5.38-5.38,5.28,5.28,0,0,1,.21-1.47l4.47-15.77,10.35,2.93-2.3,8.11,21.79-2.33,1.15,10.69L310,266.94A5.63,5.63,0,0,1,309.41,267Z" transform="translate(-84.56 -163.37)"/><path class="cls-8" d="M361.09,265.21a5.29,5.29,0,0,1-.8-.06l-33.46-5.06,1.61-10.64,24.47,3.7-3-8.22,10.1-3.71L366.14,258a5.37,5.37,0,0,1-5.05,7.23Z" transform="translate(-84.56 -163.37)"/><path class="cls-4" d="M328.2,250.8s-5.65-.4-7.84,4.17l7.45-.67Z" transform="translate(-84.56 -163.37)"/><rect class="cls-5" x="308.28" y="233.03" width="15.4" height="10.76" transform="translate(-84.08 314.09) rotate(-74.18)"/><rect class="cls-5" x="346.93" y="228.13" width="10.76" height="15.42" transform="translate(-144.28 -27.4) rotate(-20.17)"/><rect class="cls-7" x="326.04" y="221.43" width="1.06" height="12.13" transform="matrix(1, -0.05, 0.05, 1, -95.22, -147.24)"/><path class="cls-7" d="M343.69,229.18l-.45-7.71-1.09,0,.34,7.7a5.19,5.19,0,0,0-4.54,5.14v6.19h1.2v-6.19a4,4,0,1,1,8,0h0v6.19h1.2v-6.19A5.19,5.19,0,0,0,343.69,229.18Z" transform="translate(-84.56 -163.37)"/><circle class="cls-7" cx="242.27" cy="71.11" r="2.32"/><circle class="cls-7" cx="253.98" cy="77.16" r="1.03"/><circle class="cls-7" cx="263.12" cy="77.16" r="1.03"/></g><g id="Doctor_Medium" data-name="Doctor Medium"><path class="cls-15" d="M228.93,310.82h46.83l-9.45-61.53-31.94,2.19Z" transform="translate(-84.56 -163.37)"/><path class="cls-16" d="M228.93,310.82h46.83l-9.45-61.53-31.94,2.19Z" transform="translate(-84.56 -163.37)"/><path class="cls-4" d="M257.82,195.78l-.38,0H245.52c1-1.61,2-4.75,1.53-10.64l7.73-1.43S253.91,192.88,257.82,195.78Z" transform="translate(-84.56 -163.37)"/><path class="cls-11" d="M256.23,193.87,249.82,189l5-.05A13.91,13.91,0,0,0,256.23,193.87Z" transform="translate(-84.56 -163.37)"/><path class="cls-4" d="M242.67,181.23c.53,3.09,2.22,6,4.94,7a19.56,19.56,0,0,0,9.36,1.27c8.46-.69,6.79-19.93,2.77-23.66s-15.8-1.37-17.23,4.88C241.77,174,242.16,178.29,242.67,181.23Z" transform="translate(-84.56 -163.37)"/><path class="cls-12" d="M262.53,166.51a2.66,2.66,0,0,0-1-.95c-3.76-2-10.72-2.74-14.06-1.74-3.88,1.16-8.74,4.41-7.5,12.29.05.33.11.65.17,1a6.77,6.77,0,1,0,4.79,9.94,11.51,11.51,0,0,0,1.85,1.32c.47.28.58,0,.74-.46.56-1.8,1.11-8.89.67-14l9.12-.31,1.58-4.52,1.31,4.52h3.1C263.7,171.07,264.13,168.29,262.53,166.51Z" transform="translate(-84.56 -163.37)"/><circle class="cls-12" cx="170.21" cy="14.79" r="0.7"/><circle class="cls-12" cx="175.74" cy="14.33" r="0.7"/><path class="cls-12" d="M261.51,176.2h0l-1.85,0a.33.33,0,0,1,0-.66h0l1.85,0a.33.33,0,0,1,0,.65Z" transform="translate(-84.56 -163.37)"/><path class="cls-12" d="M253.25,176.88a.33.33,0,0,1-.33-.33.34.34,0,0,1,.26-.32l1.83-.44a.34.34,0,0,1,.39.25.32.32,0,0,1-.24.39l-1.83.44Z" transform="translate(-84.56 -163.37)"/><path class="cls-4" d="M251.12,179.87a3,3,0,0,1-5.92.48,2.92,2.92,0,0,1,2.62-3.2h.1A2.75,2.75,0,0,1,251.12,179.87Z" transform="translate(-84.56 -163.37)"/><g class="cls-13"><path d="M257.88,182a.25.25,0,0,1-.25-.24.23.23,0,0,1,.18-.23l1.42-.44-1-2.22a.24.24,0,0,1,.14-.32.23.23,0,0,1,.3.12l1.11,2.47a.24.24,0,0,1-.12.32h0L258,182Z" transform="translate(-84.56 -163.37)"/></g><path class="cls-14" d="M255.09,183.67a12.29,12.29,0,0,0,4.4-.36,2.28,2.28,0,0,1-4.4.36Z" transform="translate(-84.56 -163.37)"/><path class="cls-4" d="M276.39,391.24,266.31,390c.45-3.82,1-8.41,1-9.16V381h10.16C277.46,381.3,277.46,382.23,276.39,391.24Z" transform="translate(-84.56 -163.37)"/><path class="cls-4" d="M235.92,392.45l-10.15,0s0-10.48,0-11.41H236C236,381.93,235.92,392.45,235.92,392.45Z" transform="translate(-84.56 -163.37)"/><path class="cls-5" d="M262.25,388l17.89-.31c-.84-21.29-.89-43.63-1.16-65-3.49-23-4.84-50.26-9.15-73.1H231.38s-6,104.37-8.23,137.81L241,389c3.21-32.79,8.67-76.2,11.73-110.64,3.51,16.76,5.41,29.77,8.47,46.4C261.79,345.53,262.3,367.28,262.25,388Z" transform="translate(-84.56 -163.37)"/><path class="cls-6" d="M248.27,396.38a2,2,0,0,0,2-2,.76.76,0,0,0,0-.15h0a2,2,0,0,0-1.28-1.7l-11.83-4a1.67,1.67,0,0,0-1.38.15,9.24,9.24,0,0,1-5.55,1.65,8.26,8.26,0,0,1-4.27-1.56.75.75,0,0,0-1.05.1.78.78,0,0,0-.17.48v5.78a1.3,1.3,0,0,0,1.3,1.3h0Z" transform="translate(-84.56 -163.37)"/><path class="cls-6" d="M288.77,396.38a2,2,0,0,0,2-2v-.15h0a2,2,0,0,0-1.29-1.7l-11.82-4a1.7,1.7,0,0,0-1.39.15,9.21,9.21,0,0,1-5.54,1.65,8.26,8.26,0,0,1-4.27-1.56.75.75,0,0,0-1.05.1.78.78,0,0,0-.17.48v5.78a1.3,1.3,0,0,0,1.29,1.3h0Z" transform="translate(-84.56 -163.37)"/><path class="cls-4" d="M226.78,264.25l.11-.22c.17,1.43,1.51,6.12.34,6.61-.44.19-1.13-1.13-1.57-2.13-1,2.18-.81,7.12-.64,9.89a.91.91,0,0,1-.85,1,1,1,0,0,1-.69-.26c-5.2-5-2.42-15.13-2.42-15.13l.54-2.56Z" transform="translate(-84.56 -163.37)"/><path class="cls-4" d="M310.63,210.73c1.37,1.57.61,4.3-3,6.51-5.52,3.37-7,1.77-8.38.2s3.22-3.52,6.4-6.82a3.32,3.32,0,0,1,4.69-.23A3.47,3.47,0,0,1,310.63,210.73Z" transform="translate(-84.56 -163.37)"/><path class="cls-4" d="M299,215c-.07.06,4.74-7,6.49-5.2.78.77-1.5,3.43-1.5,3.43" transform="translate(-84.56 -163.37)"/><path class="cls-17" d="M271.77,250.7c-2,4.66-41.84,6.6-42.37-1.6-.34-5.21,4.25-9.76,4.25-19.92s-9.35-23.14-1.73-30.76c2.21-2.21,6-3.63,10.68-3.64.35,2.71,16.82,2.72,17,.06.62,0,1.11,0,1.42,0,16,.69,9,19,8.84,32.37C269.62,243,273.86,245.91,271.77,250.7Z" transform="translate(-84.56 -163.37)"/><path class="cls-8" d="M271.77,250.7c-2,4.66-39.86,7.13-40.39-1.06-.34-5.21,2.27-10.3,2.27-20.46s-8.46-23-.84-30.63c2.21-2.21,5.35-3.55,10-3.55.35,2.71,16.61,2.79,16.73.13.63,0,1.12,0,1.43,0,16,.69,9,18.67,8.83,32.09C269.62,243,273.86,245.91,271.77,250.7Z" transform="translate(-84.56 -163.37)"/><path class="cls-4" d="M259.55,194.84c-.13,2.66-2,3.12-6.47,3.42-6,.39-10.13-.77-10.48-3.48h0C248.47,194.78,256.13,194.79,259.55,194.84Z" transform="translate(-84.56 -163.37)"/><path class="cls-7" d="M249.92,221.89c2.13,21.55-.73,61.44-.76,94.69,0,0-14.09,2.84-26-1.89,0,0,7.16-76.3,9.19-93.42,0,0-.32,9.37-1.46,14.74s-2.23,29.14-2.23,29.14-2.51.54-10.43.54c0,0,0-26.66,1.9-34.42S228.6,198,234.37,196c4.62-1.61,11.08-1.21,11.08-1.21S249,212.06,249.92,221.89Z" transform="translate(-84.56 -163.37)"/><path class="cls-7" d="M245.45,194.78s5.14,19.81,5.14,40.18l-8.9-28.48,2.86-3.6-4-2.83.76-5.22A21.38,21.38,0,0,1,245.45,194.78Z" transform="translate(-84.56 -163.37)"/><path class="cls-18" d="M257.49,194.78s-.9,14.16-.9,27.41,2.1,95.22,2.1,95.22,16.87.12,22.29-1c0,0-2-26.84-5.54-59.93-2.14-19.87-4-30.77-4.42-34.25,0,0,7.45,14.07,12.81,14.07s20.44-15,20.44-15,.34-3.37-3.32-10.65l-15.27,10.65s-13.74-22.57-18.33-25.07a15.42,15.42,0,0,0-6.38-1.32C258.94,194.79,257.49,194.78,257.49,194.78Z" transform="translate(-84.56 -163.37)"/><path class="cls-7" d="M257.49,194.78s-1.7,22.11-.76,39.42l5.41-27.72-2.59-3.22,3.25-2.46L261,194.88Z" transform="translate(-84.56 -163.37)"/><path class="cls-5" d="M254.59,199.06a6.18,6.18,0,0,1-3.46-1c-2.12-1.4-3.65-4.26-4.3-8.05a50.51,50.51,0,0,1-.24-9.92l1.45.11a49.55,49.55,0,0,0,.22,9.56c.58,3.39,1.89,5.91,3.68,7.09a5.13,5.13,0,0,0,4.13.61,4.49,4.49,0,0,0,3-1.81,4.82,4.82,0,0,0,.27-3.72,11,11,0,0,0-1-2.67s.32-.13.7-.32a3.49,3.49,0,0,0,.65-.43,16.73,16.73,0,0,1,1.06,3.08,6.24,6.24,0,0,1-.44,4.82,5.84,5.84,0,0,1-3.87,2.46A7.86,7.86,0,0,1,254.59,199.06Z" transform="translate(-84.56 -163.37)"/><path class="cls-5" d="M278.21,222.3c-16,0-22.41-23.2-22.68-24.19l1.41-.37c.06.23,6.38,23.1,21.27,23.1,7.25,0,11.87-3.39,16-6.39,4.53-3.33,8.44-6.21,14.18-2.81l-.74,1.25c-4.91-2.91-8.13-.54-12.58,2.73C291,218.59,285.93,222.3,278.21,222.3Z" transform="translate(-84.56 -163.37)"/><circle class="cls-5" cx="225.57" cy="50.59" r="3.53"/><circle class="cls-7" cx="225.57" cy="50.72" r="2.13"/><circle class="cls-5" cx="162.74" cy="16.75" r="1.29"/><path class="cls-15" d="M294.41,434.27l-1.93.44c-.92.2-1.84.4-2.77.58-.68.14-1.36.28-2,.4l-.2,0,.29-1.92Z" transform="translate(-84.56 -163.37)"/><path class="cls-16" d="M294.41,434.27l-1.93.44c-.92.2-1.84.4-2.77.58-.68.14-1.36.28-2,.4l-.2,0,.29-1.92Z" transform="translate(-84.56 -163.37)"/><path class="cls-5" d="M308.13,430.51l-.11,0q-5.08,1.62-10.35,2.94c-.87.23-1.74.44-2.62.64l-.62.15h0l-1.93.44c-.92.2-1.84.4-2.77.58-.68.14-1.36.28-2,.4l-.2,0q-3.54.67-7.16,1.23l.23-8.16Z" transform="translate(-84.56 -163.37)"/><path class="cls-8" d="M344.58,377.7c-.74,6.36-1.63,12.87-1.7,18.8a142.8,142.8,0,0,0,.74,15.75c.06.64.13,1.27.2,1.9q-5,3.15-10.47,6-5.81,3-12,5.58-3.77,1.54-7.66,2.94l-2.73.95-2.81.94h0l-.11,0q-5.08,1.62-10.35,2.94c-.87.23-1.74.44-2.62.64l-.62.15h0l-1.93.44c-.92.2-1.84.4-2.77.58-.68.14-1.36.28-2,.4l-.2,0q-3.54.67-7.16,1.23c-1.15.17-2.3.34-3.46.49,1.32-6.42,3.28-14.27,4.68-22h0a92.61,92.61,0,0,0,1.67-15.72q0-1-.06-1.95c-.05-.74-.13-1.48-.22-2.23h0A83,83,0,0,0,280,383c-.12-.41-.24-.82-.37-1.23-3.62-12.22-7.65-24.5.71-32.87,3.23-3.22,8.53-5.44,15-5.91.62-.05,1.26-.08,1.91-.09H298a1.5,1.5,0,0,0,.55.93h0a2.65,2.65,0,0,0,.42.33h0a12.27,12.27,0,0,0,4,1.35l.15,0a54.55,54.55,0,0,0,18.88-.16h0c2.33-.54,3.86-1.33,3.91-2.36h.16l1.77,0h.42C347.68,343.91,346.64,360.29,344.58,377.7Z" transform="translate(-84.56 -163.37)"/><path class="cls-4" d="M326.09,342.45c-.21,4.39-2.59,10.85-10,11.34-9.82.64-17.44-7-18-11.44h2.8c3.54,0,19.46,0,22.56.07Z" transform="translate(-84.56 -163.37)"/><path class="cls-7" d="M311,429.57l-2.81.94h0l-.11,0q-5.08,1.62-10.35,2.94c-.87.23-1.74.44-2.62.64l-.62.15h0l-1.93.44c-.92.2-1.84.4-2.77.58-.68.14-1.36.28-2,.4l-.2,0q-3.54.67-7.16,1.23c-1.15.17-2.3.34-3.46.49l-1.49.19c.75-7.68,1.48-15.05,2.17-21.79h0c.2-2.06.4-4,.6-6l-8.48-29.71s0-.05,0-.07c.2-.84.41-1.7.62-2.59h0c2.92-12.66,6.07-29.61,13.76-32.81a37.43,37.43,0,0,1,11.42-2.3c.63,0,1.23-.06,1.8-.08l1.64,0h.55c1.75,0,2.87.08,2.87.08a.13.13,0,0,1,0,.06l.42,2.12c0,.11.05.23.07.35s.08.42.13.64c.24,1.24.54,2.79.88,4.59h0c1.83,9.62,4.79,26.08,5.87,37,.08.8.16,1.61.23,2.45.14,1.69.27,3.45.38,5.27q.3,4.81.46,10.13v.11c0,.28,0,.56,0,.85,0,.14,0,.28,0,.41l0,1c.05,1.63.08,3.28.1,5C311,417.74,311,423.54,311,429.57Z" transform="translate(-84.56 -163.37)"/><path class="cls-18" d="M302.31,342.3s8.5,32.69,8.5,66.32l-14.69-47,4.72-5.93L294.22,351l1.24-8.62A35.43,35.43,0,0,1,302.31,342.3Z" transform="translate(-84.56 -163.37)"/><path class="cls-7" d="M354.81,382l-10.27,5.56c.42,3.43,1.68,11.22,3.37,23.92.06.47.13.94.19,1.43l-1.91-.29c-.78.51-1.57,1-2.37,1.51q-5,3.15-10.47,6-5.81,3-12,5.58c-.11-5.44-.22-10.56-.3-15.22,0-.55,0-1.1,0-1.63s0-1.13,0-1.68c-.05-2.78-.09-5.35-.13-7.69-.05-3.23-.09-6-.11-8.28,0-1.41,0-2.62,0-3.6,0-4.16,0-8.37.14-12.46h0c0-.88,0-1.76.06-2.62h0c.1-3.85.22-7.55.35-11v0c.05-1.27.1-2.5.15-3.67.09-2.18.18-4.2.27-6h0c.13-2.62.24-4.81.34-6.42,0-.17,0-.34,0-.5l0-.45h0c.06-1,.1-1.63.11-1.91a.38.38,0,0,0,0-.1v-.06s2.36,0,5.65.15h.1c2.7.12,7.22.38,10.53,2.17,5.3,2.89,11.33,20,14.46,29.95,1.34,4.27,2.15,7.23,2.15,7.23Z" transform="translate(-84.56 -163.37)"/><path class="cls-18" d="M322.2,342.3s-2.81,36.49-1.26,65.06l8.93-45.76-4.28-5.31,5.37-4.06-3-9.77Z" transform="translate(-84.56 -163.37)"/><path class="cls-4" d="M317,410.39s17.29,1.57,23.89-8.33a1.5,1.5,0,0,0-.42-2.09,1.47,1.47,0,0,0-1.19-.21c-6.05,1.48-18.63,4-18.41-.31l-9.58,2.95Z" transform="translate(-84.56 -163.37)"/><path class="cls-7" d="M270.37,416.56a8.7,8.7,0,0,1-8.7-8.7,8.58,8.58,0,0,1,.33-2.37l8.28-28,15.7,7.22-3.72,13.12,35.25-3.78,1.86,17.31-48.07,5.15C271,416.54,270.68,416.56,270.37,416.56Z" transform="translate(-84.56 -163.37)"/><path class="cls-7" d="M357,413.19a8.78,8.78,0,0,1-3,.53,8.13,8.13,0,0,1-1.3-.1l-4.58-.69-1.91-.29-2.57-.39-16.27-2.46-6.33-1-1.95-.3-3.79-.57-4.45-.67h0l-.43-.06-11.82-1.79,1.41-9.35,0-.15.64-4.26.52-3.45,3.45.52,5.33.81H310l10.5,1.59.26,0,3.26.5,16.74,2.53-4.89-13.3,8.73-3.21,8.36-3.07,8.81,26.2.4,1.19A8.7,8.7,0,0,1,357,413.19Z" transform="translate(-84.56 -163.37)"/><path class="cls-4" d="M300.77,390.4s-9.15-.65-12.69,6.76l12.06-1.1Z" transform="translate(-84.56 -163.37)"/><polygon class="cls-10" points="213.19 199.18 212.71 178.81 214.34 178.79 214.91 199.1 213.19 199.18"/><path class="cls-10" d="M328.22,355.42l-.37-12.92-1.76-.05.19,13a8.39,8.39,0,0,0-7.35,8.31v10h1.94v-10a6.45,6.45,0,0,1,12.89-.1v10.12h1.93v-10A8.37,8.37,0,0,0,328.22,355.42Z" transform="translate(-84.56 -163.37)"/><circle class="cls-10" cx="213.99" cy="200.62" r="3.75"/><circle class="cls-10" cx="235.33" cy="210.41" r="1.66"/><circle class="cls-10" cx="250.12" cy="210.41" r="1.66"/><path class="cls-4" d="M322.29,342.66l-.6.07H302.76c1.53-2.55,3.19-7.56,2.43-16.9l12.27-2.28S316.08,338.06,322.29,342.66Z" transform="translate(-84.56 -163.37)"/><path class="cls-11" d="M319.77,339.63l-10.19-7.8,8-.09A22.16,22.16,0,0,0,319.77,339.63Z" transform="translate(-84.56 -163.37)"/><path class="cls-4" d="M298.22,319.55c.85,4.91,3.53,9.56,7.86,11.14a30.94,30.94,0,0,0,14.87,2c13.44-1.1,10.78-31.65,4.4-37.58s-25.1-2.18-27.38,7.75C296.79,308,297.41,314.88,298.22,319.55Z" transform="translate(-84.56 -163.37)"/><path class="cls-12" d="M329.78,296.17a4.28,4.28,0,0,0-1.63-1.5c-6-3.25-17-4.37-22.33-2.78-6.16,1.84-13.89,7-11.91,19.53.08.53.17,1,.27,1.54a10.75,10.75,0,1,0,7.6,15.79,19.73,19.73,0,0,0,3,2.1c.74.43.91.08,1.17-.74.89-2.85,1.77-14.12,1.07-22.31l14.47-.5,2.53-7.18L326,307.3H331C331.63,303.41,332.31,299,329.78,296.17Z" transform="translate(-84.56 -163.37)"/><circle class="cls-12" cx="232.89" cy="151.3" r="1.11"/><circle class="cls-12" cx="241.67" cy="150.58" r="1.11"/><path class="cls-12" d="M328.15,311.57h0l-2.95,0a.52.52,0,0,1-.52-.52.51.51,0,0,1,.52-.52h0l3,0a.53.53,0,0,1,.5.55.52.52,0,0,1-.51.5Z" transform="translate(-84.56 -163.37)"/><path class="cls-12" d="M315,312.64a.52.52,0,0,1-.52-.52.52.52,0,0,1,.4-.51l2.9-.7a.53.53,0,0,1,.63.4.52.52,0,0,1-.38.62l-2.91.7Z" transform="translate(-84.56 -163.37)"/><path class="cls-4" d="M311.65,317.39a4.72,4.72,0,0,1-9.41.76,4.64,4.64,0,0,1,4.17-5.07l.15,0C309.93,313,311.44,314.79,311.65,317.39Z" transform="translate(-84.56 -163.37)"/><g class="cls-13"><path d="M322.38,320.84a.39.39,0,0,1-.11-.76l2.26-.69L323,315.86a.38.38,0,0,1,.7-.31l1.76,3.92a.39.39,0,0,1-.19.51l0,0-2.68.82Z" transform="translate(-84.56 -163.37)"/></g><path class="cls-14" d="M318,323.43a19.53,19.53,0,0,0,7-.57s0,2.7-3.28,3S318,323.43,318,323.43Z" transform="translate(-84.56 -163.37)"/><path class="cls-4" d="M213.51,342.82c0-.15,0-.3,0-.45,0-1.53.06-3.2.21-5l-1.9-.35-11.54-2.14a48,48,0,0,1-.15,9c0,.34-.07.69-.12,1a.29.29,0,0,1,0,.09c-.07.46-.14.91-.23,1.37-.05.29-.11.59-.17.88s-.16.75-.26,1.12l-.32,1.1c-.11.36-.23.71-.37,1.06a13.48,13.48,0,0,1-.89,2h0a9.77,9.77,0,0,1-2.63,3.22h21.16C214.94,353.4,213.58,349.45,213.51,342.82Z" transform="translate(-84.56 -163.37)"/><path class="cls-11" d="M197.73,352.48l11.17-8.55-8.77-.09A24.41,24.41,0,0,1,197.73,352.48Z" transform="translate(-84.56 -163.37)"/><path class="cls-4" d="M221.35,330.48c-.93,5.38-3.87,10.47-8.61,12.21-5.64,2.06-9.81,2.2-16.3,2.2-8.86,0-8.57-9.24-8.82-18.56s.49-19.38,4-22.63c7-6.51,27.5-2.39,30,8.49C222.91,317.82,222.23,325.36,221.35,330.48Z" transform="translate(-84.56 -163.37)"/><path class="cls-12" d="M182.87,309.1s-3.63-.81-2.63-4.43c.66-2.4,3.73-1.86,3.73-1.86s-2.91-.53-2.91-3.08c0-1.6,1.23-4.31,4.94-2.76,4.36,1.82,9.33,1.59,13.1.95a43.65,43.65,0,0,1,6.49-.91h0a24.83,24.83,0,0,1,7.42,1c6.75,2,17,8.07,14.8,21.8-2.42,15.32-9.61,21.18-12.77,23.06a1.44,1.44,0,0,1-2-.5,1.09,1.09,0,0,1-.14-.31c-.9-2.87-2.45-10.09-2-25-20.76-1-26.73-1.33-26.73-1.33s-4.89.19-4.89-3.38S182.87,309.1,182.87,309.1Z" transform="translate(-84.56 -163.37)"/><circle class="cls-12" cx="115.73" cy="161.75" r="1.22"/><circle class="cls-12" cx="106.1" cy="160.96" r="1.22"/><path class="cls-12" d="M188.55,321.73h0l3.23,0a.58.58,0,0,0,0-1.15h0l-3.23,0a.57.57,0,0,0-.57.58A.58.58,0,0,0,188.55,321.73Z" transform="translate(-84.56 -163.37)"/><path class="cls-12" d="M202.92,322.9a.56.56,0,0,0,.57-.57.59.59,0,0,0-.44-.56l-3.18-.76a.56.56,0,0,0-.69.42.57.57,0,0,0,.42.69l3.18.77Z" transform="translate(-84.56 -163.37)"/><path class="cls-4" d="M206.63,328.1a5.17,5.17,0,1,0,10.31.85,5.09,5.09,0,0,0-4.73-5.58C208.52,323.25,206.86,325.25,206.63,328.1Z" transform="translate(-84.56 -163.37)"/><g class="cls-13"><path d="M194.87,331.88a.42.42,0,0,0,.42-.42.42.42,0,0,0-.3-.4l-2.48-.76,1.74-3.87a.43.43,0,0,0-.22-.56.41.41,0,0,0-.55.22l-1.93,4.3a.41.41,0,0,0,.21.55l.05,0,2.93.9A.3.3,0,0,0,194.87,331.88Z" transform="translate(-84.56 -163.37)"/></g><path class="cls-14" d="M199.72,334.72a21.11,21.11,0,0,1-7.66-.63s0,3,3.59,3.26S199.72,334.72,199.72,334.72Z" transform="translate(-84.56 -163.37)"/><path class="cls-8" d="M236.75,411.42c-.05.69-.07,1.38-.07,2.06a96.1,96.1,0,0,0,1.77,16.59c.52,2.89,1.11,5.8,1.73,8.65-1.62-.08-3.24-.2-4.84-.34a184.72,184.72,0,0,1-21.69-3.14c-1.57-.32-3.12-.66-4.67-1l-1.61-.38-2.23-.56c-.86-.21-1.72-.44-2.57-.67q-3-.81-5.92-1.74c-1.51-.46-3-.95-4.47-1.45q-3.31-1.12-6.54-2.39c-1.33-.52-2.65-1-4-1.61L173,426.73c.17-1.69.32-3.38.43-5.07.27-3.84.38-7.69.35-11.54-.07-6.25-1-13.12-1.8-19.83-2.16-18.36-3.26-35.63,17.19-36.52h.44l1.87,0h.16c.06,1.08,1.67,1.91,4.13,2.49h.05a57.52,57.52,0,0,0,19.91.16.76.76,0,0,0,.16,0,12.72,12.72,0,0,0,4.22-1.42,3.79,3.79,0,0,0,.45-.34,1.65,1.65,0,0,0,.59-1h.72c.69,0,1.36.05,2,.1,6.85.5,12.44,2.83,15.84,6.23,8.83,8.83,4.58,21.78.74,34.68-.13.42-.25.85-.38,1.28A86,86,0,0,0,237,409.07h0C236.88,409.87,236.8,410.65,236.75,411.42Z" transform="translate(-84.56 -163.37)"/><path class="cls-4" d="M191.45,353.12c.22,4.63,2.73,11.44,10.5,11.95,10.36.69,18.39-7.34,19-12.06h-3c-3.73,0-20.52,0-23.79.07Z" transform="translate(-84.56 -163.37)"/><path class="cls-7" d="M242.66,430.52c.28,2.7.56,5.5.85,8.38l-2.24-.11-1.09-.07c-1.62-.08-3.24-.2-4.84-.34a184.72,184.72,0,0,1-21.69-3.14c-1.57-.32-3.12-.66-4.67-1l-1.61-.38c0-2.41,0-4.78.06-7.09,0-1.78.06-3.53.11-5.24,0-.79,0-1.58.06-2.35a.49.49,0,0,1,0-.12q.16-5.59.47-10.68h0c.13-1.92.26-3.76.41-5.55.08-.88.16-1.74.24-2.59,1.14-11.49,4.26-28.85,6.19-39h0c.36-1.9.68-3.54.93-4.85.05-.23.09-.46.14-.67s0-.25.07-.37h0c.28-1.4.44-2.22.46-2.29s1.17-.08,3-.08h.59l1.72,0,1.9.09a39.08,39.08,0,0,1,12,2.42c8.11,3.37,11.44,21.25,14.52,34.61h0l.65,2.72s0,.05,0,.08L242,424.22C242.23,426.25,242.45,428.35,242.66,430.52Z" transform="translate(-84.56 -163.37)"/><path class="cls-18" d="M216.52,353s-9,34.48-9,69.95l15.49-49.58-5-6.26,7-4.94L223.75,353A37.93,37.93,0,0,0,216.52,353Z" transform="translate(-84.56 -163.37)"/><path class="cls-7" d="M197.11,400.71c0,1,0,2.31,0,3.8,0,2.39-.06,5.33-.12,8.73,0,2.46-.08,5.16-.14,8.08v0q0,.87,0,1.77h0q0,.84,0,1.71c0,1.93-.08,4-.12,6-1.51-.46-3-.95-4.47-1.45q-3.31-1.12-6.54-2.39c-1.33-.52-2.65-1-4-1.61L173,426.73l-4.73.72c.38-2.84.73-5.46,1.07-7.86,1.34-9.69,2.32-15.87,2.69-18.88l-10.83-5.86-.3-.17s.84-3.07,2.23-7.51l0-.12c3.3-10.52,9.66-28.53,15.25-31.58,3.49-1.89,8.25-2.16,11.1-2.29h.11l.64,0c3.13-.13,5.32-.14,5.32-.14v.06h0c0,.21.06.95.13,2.11h0c0,.15,0,.31,0,.48s0,.34,0,.53c.1,1.69.22,4,.36,6.77.09,1.91.19,4,.29,6.33,0,0,0,0,0,0,.05,1.23.1,2.53.15,3.86v0c.14,3.61.27,7.51.37,11.57h0c0,.92,0,1.83.07,2.77C197.06,391.89,197.11,396.33,197.11,400.71Z" transform="translate(-84.56 -163.37)"/><path class="cls-18" d="M195.55,353s3,38.49,1.33,68.62l-9.42-48.25,4.52-5.6-5.67-4.28,3.19-10.32Z" transform="translate(-84.56 -163.37)"/><path class="cls-4" d="M201,424.76s-18.23,1.67-25.2-8.78a1.6,1.6,0,0,1,1.7-2.43c6.39,1.57,19.65,4.27,19.42-.32L207,416.34Z" transform="translate(-84.56 -163.37)"/><path class="cls-7" d="M250.21,431.28A9.17,9.17,0,0,0,259,419.6l-8.73-29.52-16.56,7.61,3.92,13.83-37.18-4-2,18.26,50.69,5.43A7.93,7.93,0,0,0,250.21,431.28Z" transform="translate(-84.56 -163.37)"/><path class="cls-7" d="M220.49,419.54,208,421.43l-.45.06h0l-4.71.71-4,.6-2.06.32-6.67,1-8.45,1.28L173,426.73l-4.73.72-4.82.73a9.18,9.18,0,0,1-10-12.24l1.64-4.88,8-23.89,0-.12,8.81,3.24,9.21,3.38-5.15,14L193.65,405l3.44-.52.27,0,11.08-1.67h.05l5.63-.85,3.63-.55.55,3.63.68,4.49,0,.17Z" transform="translate(-84.56 -163.37)"/><path class="cls-4" d="M218.15,403.68s9.65-.68,13.38,7.13l-12.72-1.15Z" transform="translate(-84.56 -163.37)"/><polygon class="cls-10" points="136.78 210.94 137.3 189.47 135.57 189.44 134.97 210.86 136.78 210.94"/><path class="cls-10" d="M189.21,366.8l.38-13.63,1.86-.05-.2,13.7a8.82,8.82,0,0,1,7.74,8.76v10.57h-2V375.58a6.8,6.8,0,1,0-13.59-.1v10.67h-2V375.58A8.85,8.85,0,0,1,189.21,366.8Z" transform="translate(-84.56 -163.37)"/><circle class="cls-10" cx="135.94" cy="212.47" r="3.95"/><circle class="cls-10" cx="113.44" cy="222.79" r="1.75"/><circle class="cls-10" cx="97.84" cy="222.79" r="1.75"/></g></svg>