<svg id="customer" xmlns="http://www.w3.org/2000/svg" viewBox="0 0 198 158.63"><defs><style>.cls-1{fill:#000222;opacity:0.25;}.cls-2{fill:#4aa2ff;}.cls-3{fill:#e98862;}.cls-4{fill:#c1d8ed;}.cls-5{fill:#262626;}.cls-6{fill:#0f1011;}.cls-7,.cls-9{opacity:0.15;}.cls-7{isolation:isolate;}.cls-8{fill:#f8fcff;}.cls-10{fill:#e3e3e3;}.cls-11{fill:#0cbc8b;}.cls-12{fill:#fff;}.cls-13{fill:#8ddbe0;}</style></defs><ellipse class="cls-1" cx="99" cy="108.53" rx="99" ry="50.1"/><ellipse class="cls-2" cx="99" cy="95.71" rx="97.73" ry="55.01"/><path class="cls-3" d="M632,521.11c-5.18,22.8-9.86,45.75-13.56,68.84l5.2,1.07c5.71-22.67,10.47-45.61,14.71-68.61Z" transform="translate(-488.07 -464.08)"/><path class="cls-3" d="M642.74,522.52c-.48,22.65-.44,45.35.59,68h5.3c1-22.63,1.07-45.34.59-68Z" transform="translate(-488.07 -464.08)"/><path class="cls-4" d="M636.46,592.61a1.08,1.08,0,0,1-1.06-1.08v-.07h0a1.06,1.06,0,0,1,.69-.92l6.34-2.12a.86.86,0,0,1,.75.08,5,5,0,0,0,3,.88,4.49,4.49,0,0,0,2.29-.83.41.41,0,0,1,.57.05.39.39,0,0,1,.09.26V592a.69.69,0,0,1-.7.69h0Z" transform="translate(-488.07 -464.08)"/><path class="cls-4" d="M612.14,592.61a1.08,1.08,0,0,1-1.06-1.08v-.07h0a1.08,1.08,0,0,1,.69-.92l6.34-2.12a.86.86,0,0,1,.75.08,5,5,0,0,0,3,.88,4.48,4.48,0,0,0,2.28-.83.41.41,0,0,1,.57.05.39.39,0,0,1,.09.26V592a.69.69,0,0,1-.7.69h0Z" transform="translate(-488.07 -464.08)"/><path class="cls-5" d="M652.51,512.74s3,13.2,3,24.3,3.38,28.29,3.38,28.29-9.59-1.55-16.09,0c-11.21,2.67-21.27-3.15-21.27-3.15L632.77,514Z" transform="translate(-488.07 -464.08)"/><path class="cls-6" d="M631.08,474.29c-.07,1,.92,1.84,1.08,2.74s-.43,2.11,0,2.94,1.7,1.12,2.31,1.83.66,2,1.43,2.57,2,.11,2.91.43,1.57,1.42,2.52,1.5,1.84-.91,2.74-1.08,2.1.44,2.94,0,1.12-1.71,1.82-2.31,2-.66,2.57-1.43.12-2,.43-2.91,1.43-1.57,1.51-2.52-.92-1.84-1.08-2.74.44-2.11,0-2.94-1.7-1.12-2.3-1.83-.66-2-1.43-2.56-2-.12-2.91-.44-1.58-1.42-2.53-1.5-1.84.91-2.73,1.08-2.11-.44-2.94-.05-1.12,1.71-1.83,2.31-2,.66-2.57,1.43-.11,2-.43,2.91S631.16,473.34,631.08,474.29Z" transform="translate(-488.07 -464.08)"/><path class="cls-3" d="M645.64,484.64c-.51-.87-1.06-2.55-.81-5.68l-4.15-.76s.47,4.87-1.61,6.44Z" transform="translate(-488.07 -464.08)"/><path class="cls-7" d="M639.91,483.63l3.44-2.64-2.7,0A7.55,7.55,0,0,1,639.91,483.63Z" transform="translate(-488.07 -464.08)"/><path class="cls-3" d="M647.18,476.84a4.69,4.69,0,0,1-2.65,3.77,10.49,10.49,0,0,1-5,.68c-4.54-.37-3.65-10.69-1.5-12.69s8.48-.74,9.25,2.61A15.84,15.84,0,0,1,647.18,476.84Z" transform="translate(-488.07 -464.08)"/><circle class="cls-6" cx="152.61" cy="11.11" r="0.38"/><circle class="cls-6" cx="149.65" cy="10.87" r="0.38"/><path class="cls-6" d="M637.07,474.15h1a.17.17,0,0,0,.17-.18.18.18,0,0,0-.17-.17h-1a.19.19,0,0,0-.17.19A.17.17,0,0,0,637.07,474.15Z" transform="translate(-488.07 -464.08)"/><path class="cls-6" d="M641.5,474.51a.18.18,0,0,0,.18-.17.19.19,0,0,0-.14-.18l-1-.23a.17.17,0,0,0-.21.14.17.17,0,0,0,.13.2l1,.24Z" transform="translate(-488.07 -464.08)"/><path class="cls-8" d="M640.52,478.16a6.61,6.61,0,0,1-2.36-.2,1.07,1.07,0,0,0,1.1,1A1.08,1.08,0,0,0,640.52,478.16Z" transform="translate(-488.07 -464.08)"/><path class="cls-6" d="M644.12,472.55a32.49,32.49,0,0,0,1.27,11.52s3.16-5.45,3.65-10a6.64,6.64,0,0,0-4.8-7.24c-8.06-1.79-8.64,4.1-8.64,4.1,1.47,3.05,9.4,3,9.4,3" transform="translate(-488.07 -464.08)"/><path class="cls-3" d="M642.59,476.81a1.59,1.59,0,1,0,3.17.3v0a1.55,1.55,0,0,0-1.4-1.71h-.05A1.48,1.48,0,0,0,642.59,476.81Z" transform="translate(-488.07 -464.08)"/><g class="cls-9"><path d="M639,477.28a.13.13,0,0,0,.13-.13.12.12,0,0,0-.09-.12l-.77-.24.54-1.19a.13.13,0,1,0-.24-.1l-.59,1.32a.13.13,0,0,0,.06.17h0l.9.28Z" transform="translate(-488.07 -464.08)"/></g><path class="cls-3" d="M601.35,500a6.69,6.69,0,0,0-3.73-.64c-1.6.4-.85,1.09.31,1.33s3.72.64,3.72.64" transform="translate(-488.07 -464.08)"/><path class="cls-3" d="M600.1,499.94s-4-.42-4,.53c0,0-.17,2.94.37,3.39.8.68,4.82.15,4.82.15Z" transform="translate(-488.07 -464.08)"/><path class="cls-10" d="M610.54,504.78H626a2.71,2.71,0,0,0,2.29-1.25L638,488.31l-4.58-2.94-8.95,14H610.54Z" transform="translate(-488.07 -464.08)"/><path class="cls-10" d="M631.38,514.07c1.08,2.49,22.44,3.53,22.73-.86.18-2.8-2.29-5.24-2.29-10.69s5-12.41.93-16.5a8.07,8.07,0,0,0-5.72-1.95c-.19,1.45-9,1.46-9.1,0l-.76,0c-8.61.37-4.82,10.17-4.74,17.36C632.53,509.9,630.25,511.49,631.38,514.07Z" transform="translate(-488.07 -464.08)"/><path class="cls-3" d="M637.93,484.1a3.57,3.57,0,0,0,3.24,3.68c3.19.21,5.67-2.26,5.86-3.71h0C643.88,484.07,639.77,484.07,637.93,484.1Z" transform="translate(-488.07 -464.08)"/><circle class="cls-11" cx="125.3" cy="35.76" r="16.4"/><path class="cls-3" d="M596.48,503.86a1,1,0,0,0,.24.14,2.61,2.61,0,0,0,1.82-.51,5.86,5.86,0,0,0-.15-3.14c-.25-.65-1.52-.38-1.68-.35h0c-.34.09-.57.24-.58.46C596.11,500.47,595.94,503.4,596.48,503.86Z" transform="translate(-488.07 -464.08)"/><path class="cls-3" d="M630.85,505.63s-.63-3.42-3-2.82c-1.52.37-5.95-.3-6,1.66-.06,1.7,4.1,2.15,5.48,2A26.87,26.87,0,0,0,630.85,505.63Z" transform="translate(-488.07 -464.08)"/><path class="cls-3" d="M628.69,502.77s-3.59-.53-4.39-.19,1,1.25,1,1.25Z" transform="translate(-488.07 -464.08)"/><path class="cls-10" d="M627.54,507.52,643.6,507a2.84,2.84,0,0,0,2.42-1.51l7.92-15.11-5-2.63-7.16,13.65-14.4.44Z" transform="translate(-488.07 -464.08)"/><circle class="cls-6" cx="129.65" cy="31.34" r="1.42"/><circle class="cls-6" cx="120.94" cy="31.34" r="1.42"/><path class="cls-12" d="M605.56,500.71a7.82,7.82,0,1,0,15.63,0H605.56Z" transform="translate(-488.07 -464.08)"/><path class="cls-13" d="M525.5,590.72c-5.14-1.59-10.12-3.67-14.66-9.5-.94-1.19-1.81-2.72-1.3-4.15a3.27,3.27,0,0,1,2.62-1.94,5.48,5.48,0,0,1,1.28,0h0a10.36,10.36,0,0,1,1.92.38l.18,0a31.48,31.48,0,0,1,8.48,3.83,1.25,1.25,0,0,0,1.74-1.7,7.42,7.42,0,0,0-.93-1.22,12.46,12.46,0,0,0-1.69-1.47c-.81-.59-1.67-1.11-2.51-1.65a69.11,69.11,0,0,1-8.89-6.72,16.62,16.62,0,0,1-4.86-6.2,4.66,4.66,0,0,1-.11-3.57c.85-1.81,3.26-2.32,5.24-2,3.45.67,6.22,3.2,8.67,5.73,2,2.1,4.3,4.42,7.22,4.55a2.48,2.48,0,0,0,1.44-.29,2.24,2.24,0,0,0,.75-2.6,6.65,6.65,0,0,0-1.64-2.38c-3.86-4.13-7.65-8.43-10.15-13.5s-3.61-11-1.87-16.42a10,10,0,0,1,2.47-4.24,5.6,5.6,0,0,1,4.51-1.64c2.23.29,3.92,2.18,5.05,4.12,3.89,6.69,3.65,14.87,4.75,22.53a13.44,13.44,0,0,0,2,6.1,1.51,1.51,0,0,0,.45.42c1,.61,2-.62,2.38-1.66,1.56-4.12,1.95-8.83,4.74-12.23a5.68,5.68,0,0,1,4.24-2.37,5,5,0,0,1,4.4,3.68,10.06,10.06,0,0,1-.4,6,28.32,28.32,0,0,1-5.83,9.7c-1.32,1.51-2.82,3-3.22,5a4,4,0,0,0,1.25,3.66,2.33,2.33,0,0,0,1.73.57,4.86,4.86,0,0,0,1.87-.74l.74-.42,2.94-1.68c2.48-1.42,5.49-2.87,8.08-1.64a5,5,0,0,1,2.6,3.26,7.06,7.06,0,0,1,0,3.92c-.77,2.66-5.64,10.07-7.65,12C551.22,586.54,543.08,596.17,525.5,590.72Z" transform="translate(-488.07 -464.08)"/></svg>