<svg xmlns="http://www.w3.org/2000/svg" viewBox="0 0 304.47 249.54"><defs><style>.cls-1{opacity:0.25;}.cls-2{fill:#4aa2ff;}.cls-3{fill:#e98862;}.cls-4{fill:#262626;}.cls-5{opacity:0.04;}.cls-5,.cls-6{isolation:isolate;}.cls-6,.cls-8{opacity:0.15;}.cls-7{fill:#0f1011;}.cls-9{fill:#f8fcff;}.cls-10{fill:#367cff;}.cls-11{fill:#fff;}.cls-12{fill:#d7e8f4;}.cls-13{fill:#0cbc8b;}.cls-14{fill:#f3f5fd;}</style></defs><g id="Layer_1" data-name="Layer 1"><ellipse class="cls-1" cx="160.47" cy="135.27" rx="144" ry="114.28"/><path class="cls-2" d="M395.81,331.08c0,31.09-17.52,59.11-45.56,78.81a143,143,0,0,1-16.9,10.21,158.76,158.76,0,0,1-19.66,8.52q-2.81,1-5.67,1.92-5.08,1.62-10.35,2.94c-.87.23-1.74.44-2.62.64l-2.57.59c-.92.2-1.84.4-2.77.58-.68.14-1.36.28-2,.4a188.39,188.39,0,0,1-34.45,3.38h-1.41q-5.33,0-10.54-.29-3-.15-5.93-.41a184.72,184.72,0,0,1-21.69-3.14c-1.57-.32-3.12-.66-4.67-1-1.29-.3-2.57-.61-3.84-.94-.86-.21-1.72-.44-2.57-.67q-5.3-1.44-10.39-3.19-3.31-1.12-6.54-2.39a153.94,153.94,0,0,1-21-10,136.83,136.83,0,0,1-18-12.2c-24.06-19.29-38.78-45.22-38.78-73.72,0-22.7,9.34-43.76,25.29-61.15,2.47-2.69,5.11-5.3,7.89-7.81l.95-.86h0q3.48-3.09,7.27-6c1.85-1.41,3.76-2.79,5.71-4.13,3.38-2.29,6.9-4.48,10.56-6.53q2.83-1.6,5.77-3.1l1.67-.82c3.3-1.62,6.67-3.15,10.15-4.55h0c.59-.25,1.18-.49,1.77-.71s.95-.39,1.43-.57h0a188.19,188.19,0,0,1,125.05-2.16l1.82.64c.38.12.75.26,1.12.39l.33.12c.95.35,1.85.7,2.79,1.07h0l.37.14h0c1.55.6,3.08,1.21,4.6,1.87,3,1.27,6,2.64,8.89,4.08q2.55,1.26,5,2.63l0,0C372.39,263.33,395.81,295.13,395.81,331.08Z" transform="translate(-91.35 -202.08)"/></g><g id="Nurse"><path class="cls-3" d="M308,430.13v.41q-5.08,1.62-10.35,2.94c0-1.68,0-3,0-3.35Z" transform="translate(-91.35 -202.08)"/><path class="cls-4" d="M350.25,409.89a143,143,0,0,1-16.9,10.21c-1.8-22.24-3.79-44.84-7.87-66.53-2-10.52-3.54-21.16-5.65-31.66l-6.14,106.71q-2.81,1-5.67,1.92-5.08,1.62-10.35,2.94c-.87.23-1.74.44-2.62.64L298.49,315l.18-6.11.05-1.6.39-13.71,37.45,2.31.39,2.62.13,0c.55,2.87,1.06,5.79,1.53,8.74.09.53.17,1.07.25,1.6h0s0,0,0,0c3.05,19.37,4.77,40.12,7.63,59C347.86,381.74,349,395.84,350.25,409.89Z" transform="translate(-91.35 -202.08)"/><path class="cls-5" d="M298.49,315s40.42-2,40.42-6.41c0-10.06-40.19-1.3-40.19-1.3Z" transform="translate(-91.35 -202.08)"/><path class="cls-3" d="M314.3,234.3V234c0-.89,0-1.87-.12-2.93l1.11-.21,6.75-1.25a28.77,28.77,0,0,0,.08,5.25c0,.2.05.4.08.6a.07.07,0,0,0,0,0c0,.27.08.53.13.8s.06.35.1.52.1.44.16.65.11.43.18.64l.21.62a8.1,8.1,0,0,0,.53,1.16h0a5.69,5.69,0,0,0,1.53,1.88H312.69C313.46,240.48,314.26,238.17,314.3,234.3Z" transform="translate(-91.35 -202.08)"/><path class="cls-6" d="M323.53,239.94l-6.54-5,5.13-.05A14.11,14.11,0,0,0,323.53,239.94Z" transform="translate(-91.35 -202.08)"/><path class="cls-3" d="M309.72,227.08c.54,3.14,2.26,6.12,5,7.14,3.29,1.2,5.73,1.28,9.53,1.28,5.18,0,5-5.4,5.15-10.84s-.29-11.33-2.33-13.24c-4.09-3.8-16.09-1.39-17.54,5C308.8,219.68,309.2,224.09,309.72,227.08Z" transform="translate(-91.35 -202.08)"/><path class="cls-7" d="M332.21,214.58a2,2,0,0,0,1.54-2.59c-.39-1.4-2.18-1.09-2.18-1.09s1.7-.31,1.7-1.8c0-.93-.72-2.52-2.89-1.61a14.26,14.26,0,0,1-7.66.55,25.6,25.6,0,0,0-3.79-.53h0a14.47,14.47,0,0,0-4.34.58c-3.95,1.18-9.92,4.72-8.65,12.74,1.42,9,5.62,12.38,7.47,13.48a.85.85,0,0,0,1.16-.28,1.08,1.08,0,0,0,.08-.19c.52-1.68,1.43-5.9,1.17-14.61l15.63-.77s2.85.1,2.85-2A1.84,1.84,0,0,0,332.21,214.58Z" transform="translate(-91.35 -202.08)"/><circle class="cls-7" cx="230.68" cy="21.86" r="0.71"/><circle class="cls-7" cx="236.31" cy="21.4" r="0.71"/><path class="cls-7" d="M328.89,222h0l-1.89,0a.34.34,0,0,1,0-.67h0l1.89,0a.34.34,0,0,1,.32.35A.33.33,0,0,1,328.89,222Z" transform="translate(-91.35 -202.08)"/><path class="cls-7" d="M320.49,222.65a.35.35,0,0,1-.34-.33.34.34,0,0,1,.26-.33l1.87-.45a.33.33,0,0,1,.15.65h0l-1.86.45Z" transform="translate(-91.35 -202.08)"/><path class="cls-3" d="M318.32,225.69a3,3,0,0,1-6,.58s0-.06,0-.09a3,3,0,0,1,2.67-3.25h.1A2.81,2.81,0,0,1,318.32,225.69Z" transform="translate(-91.35 -202.08)"/><g class="cls-8"><path d="M325.2,227.9a.25.25,0,0,1-.08-.48l1.45-.44-1-2.26a.25.25,0,0,1,.12-.33.25.25,0,0,1,.33.12h0l1.13,2.52a.24.24,0,0,1-.13.32h0l-1.72.53Z" transform="translate(-91.35 -202.08)"/></g><path class="cls-9" d="M322.36,229.56a12.34,12.34,0,0,0,4.48-.37,2.32,2.32,0,0,1-4.48.37Z" transform="translate(-91.35 -202.08)"/><path class="cls-4" d="M340.17,307.66c-2.06,4.74-43.68,6.47-44.22-1.87-.35-5.31,4.8-19.84,4.8-30.18s-9.51-23.55-1.76-31.3c2.25-2.25,6.13-3.7,10.87-3.71.35,2.76,17.12,2.77,17.25.06.64,0,1.13,0,1.44,0,16.33.7,9.16,19.29,9,32.94C337.36,289.62,342.3,302.77,340.17,307.66Z" transform="translate(-91.35 -202.08)"/><path class="cls-10" d="M327.1,240.66c-.12,2.71-1.6,6.69-6.14,7-6,.4-10.75-4.29-11.1-7.05h1.72c2.19,0,4.27,3.53,6.5,3.54,2.7,0,5.5-3.51,7.42-3.5Z" transform="translate(-91.35 -202.08)"/><path class="cls-3" d="M325.56,240.65c-.1,2.2-1.29,5.43-5,5.67-4.9.32-8.71-3.48-9-5.72H320C322.28,240.62,324.29,240.63,325.56,240.65Z" transform="translate(-91.35 -202.08)"/><path class="cls-3" d="M321.61,282.2s10.66,1,14.73-5.13a.94.94,0,0,0-.26-1.29,1,1,0,0,0-.74-.13c-3.73.91-11.48,2.49-11.35-.19l-5.91,1.82Z" transform="translate(-91.35 -202.08)"/><path class="cls-10" d="M292.84,286a5.36,5.36,0,0,1-5.36-5.36,5.21,5.21,0,0,1,.2-1.47l4.46-15.73,10.32,2.92-2.29,8.09,21.74-2.33,1.14,10.67L293.41,286Z" transform="translate(-91.35 -202.08)"/><path class="cls-10" d="M344.39,284.26a5.39,5.39,0,0,1-.8-.06l-33.37-5.05,1.6-10.62,24.41,3.7-3-8.21,10.07-3.7L349.43,277a5.37,5.37,0,0,1-3.18,6.89,5.6,5.6,0,0,1-1.86.33Z" transform="translate(-91.35 -202.08)"/><path class="cls-3" d="M311.59,269.88s-5.64-.4-7.83,4.16l7.44-.67Z" transform="translate(-91.35 -202.08)"/><rect class="cls-4" x="291.71" y="252.16" width="15.36" height="10.73" transform="matrix(0.27, -0.96, 0.96, 0.27, -121.32, 273.31)"/><rect class="cls-4" x="330.27" y="247.27" width="10.74" height="15.39" transform="translate(-158.69 -70.69) rotate(-20.17)"/><rect class="cls-11" x="309.43" y="240.58" width="1.06" height="12.1" transform="translate(-102.96 -186.74) rotate(-2.78)"/><path class="cls-11" d="M327,248.31l-.44-7.69-1.09,0,.34,7.67a5.17,5.17,0,0,0-4.53,5.13v6.18h1.19v-6.18a4,4,0,1,1,7.95,0h0v6.18h1.19v-6.18A5.17,5.17,0,0,0,327,248.31Z" transform="translate(-91.35 -202.08)"/><circle class="cls-11" cx="218.87" cy="51.51" r="2.31"/><circle class="cls-11" cx="230.54" cy="57.55" r="1.02"/><circle class="cls-11" cx="239.66" cy="57.55" r="1.02"/><path class="cls-5" d="M161.07,305.19a93.67,93.67,0,0,0,41.19,2.57l-.58-5.86Z" transform="translate(-91.35 -202.08)"/><path class="cls-3" d="M202.57,432.6q-5.3-1.44-10.39-3.19h10.38C202.56,429.72,202.56,431,202.57,432.6Z" transform="translate(-91.35 -202.08)"/><path class="cls-4" d="M205.14,433.27c-.86-.21-1.72-.44-2.57-.67q-5.3-1.44-10.39-3.19-3.31-1.12-6.54-2.39c-3.33-33.49-7.8-76.95-10.68-109.44-3.67,17.52-6.17,35.68-9.36,53-.45,15.22-.84,30.91-1,46.39a136.83,136.83,0,0,1-18-12.2c.18-12.15.26-24.33.4-36.22,3.12-20.55,5-42.79,8.26-63.73q.84-5.37,1.82-10.61l.13,0,.4-2.7L196,289.21l.82,13.08q.07,1.14.15,2.37c.07,1.2.15,2.45.24,3.76C199.28,340.85,203.35,405.62,205.14,433.27Z" transform="translate(-91.35 -202.08)"/><path class="cls-3" d="M112.1,238.54c-1.43,1.65-.63,4.49,3.17,6.81,5.77,3.52,7.32,1.85,8.76.2s-3.37-3.67-6.68-7.12a3.48,3.48,0,0,0-4.9-.25A4,4,0,0,0,112.1,238.54Z" transform="translate(-91.35 -202.08)"/><rect class="cls-4" x="92.51" y="224.34" width="24.91" height="33.32" rx="2.35" transform="translate(-111.12 -192.47) rotate(-4.79)"/><rect class="cls-11" x="94.35" y="226.44" width="21.23" height="29.1" rx="1.1" transform="translate(-111.11 -192.47) rotate(-4.79)"/><path class="cls-3" d="M124.29,244.63c.07.07-7-9.69-8.85-7.85-.81.8,1.57,3.58,1.57,3.58Z" transform="translate(-91.35 -202.08)"/><path class="cls-10" d="M141.48,277.31a5.53,5.53,0,0,1-4.37-2.15l-20.76-27,8.74-6.71,16.1,21,5.81-8.6,9.13,6.17-10.08,14.94a5.52,5.52,0,0,1-4.4,2.42Z" transform="translate(-91.35 -202.08)"/><path class="cls-4" d="M153.89,303.68c2.12,4.87,44.84,6.65,45.4-1.91.35-5.45-4.93-20.37-4.93-31s9.77-24.17,1.81-32.13c-2.31-2.31-6.3-3.8-11.16-3.81-.36,2.84-5.18,7.65-11.4,7.25-4.66-.31-6.17-4.4-6.3-7.18-.66,0-1.17,0-1.49,0-16.77.72-9.4,19.8-9.24,33.82C156.78,285.17,151.71,298.67,153.89,303.68Z" transform="translate(-91.35 -202.08)"/><rect class="cls-4" x="147.61" y="243.92" width="17.93" height="11.02" transform="translate(-229.11 37.59) rotate(-55.98)"/><rect class="cls-11" x="160.18" y="251.12" width="25.74" height="33.78" transform="translate(-127.53 -174.9) rotate(-8.14)"/><rect class="cls-12" x="160.2" y="251.35" width="22.59" height="33.78" transform="translate(-127.58 -175.12) rotate(-8.14)"/><polygon class="cls-13" points="88.93 47.84 90.94 47.55 91.68 52.77 89.67 53.01 88.93 47.84"/><polygon class="cls-4" points="90.31 57.82 92.32 57.54 91.68 52.77 89.67 53.01 90.31 57.82"/><path class="cls-10" d="M167.31,234.91c.13,2.78,1.64,6.87,6.3,7.18,6.22.4,11-4.41,11.4-7.25h-1.45c-2.21,0-5.34,3.63-7.62,3.64-3,0-5.1-3.61-7.18-3.59Z" transform="translate(-91.35 -202.08)"/><path class="cls-3" d="M168.76,234.9c.11,2.32,1.37,5.74,5.27,6,5.19.35,9.22-3.68,9.53-6h0C178.43,234.84,171.74,234.85,168.76,234.9Z" transform="translate(-91.35 -202.08)"/><path class="cls-3" d="M173.73,267.94l.24-.07c-1.44-.44-6-2.69-6.73-1.57-.28.43,1,1.37,1.89,2-2.42.58-7.46-.48-10.28-1.16a1,1,0,0,0-1.15.7.91.91,0,0,0,.13.75c4.18,6.27,15.12,5.27,15.12,5.27l3.62-5.05Z" transform="translate(-91.35 -202.08)"/><path class="cls-10" d="M205.82,277.64h-.24l-33.76-1.47.47-11,24.89,1.08-1.82-4.1,10.07-4.47,5.43,12.23a5.5,5.5,0,0,1-5,7.74Z" transform="translate(-91.35 -202.08)"/><path class="cls-3" d="M169.87,236l.39,0h12.45c-1-1.68-2.1-5-1.59-11.12L173,223.38S174,232.92,169.87,236Z" transform="translate(-91.35 -202.08)"/><path class="cls-6" d="M171.52,234l6.71-5.13-5.27,0A14.41,14.41,0,0,1,171.52,234Z" transform="translate(-91.35 -202.08)"/><path class="cls-3" d="M185.7,220.75c-.56,3.23-2.32,6.29-5.17,7.33a20.53,20.53,0,0,1-9.78,1.32c-8.84-.73-7.09-20.82-2.9-24.72s16.51-1.44,18,5.09C186.64,213.15,186.23,217.68,185.7,220.75Z" transform="translate(-91.35 -202.08)"/><path class="cls-7" d="M164.94,205.37a2.76,2.76,0,0,1,1.07-1c3.92-2.13,11.2-2.87,14.69-1.83,4.05,1.22,9.14,4.61,7.83,12.85-.05.35-.11.68-.17,1a7.08,7.08,0,1,1-5,10.39,13.68,13.68,0,0,1-1.94,1.38c-.49.29-.6,0-.77-.49-.59-1.87-1.16-9.29-.7-14.67l-9.53-.33L168.76,208l-1.36,4.72h-3.24C163.72,210.13,163.28,207.23,164.94,205.37Z" transform="translate(-91.35 -202.08)"/><circle class="cls-7" cx="81.71" cy="15.45" r="0.73"/><circle class="cls-7" cx="75.93" cy="14.97" r="0.73"/><path class="cls-7" d="M166,215.5h0l1.94,0a.35.35,0,0,0,.35-.34.34.34,0,0,0-.35-.34h0l-1.94,0a.35.35,0,0,0,0,.69Z" transform="translate(-91.35 -202.08)"/><path class="cls-7" d="M174.64,216.21a.35.35,0,0,0,.34-.35.33.33,0,0,0-.26-.33l-1.92-.46a.34.34,0,1,0-.21.65h0l1.91.46Z" transform="translate(-91.35 -202.08)"/><path class="cls-3" d="M176.86,219.32a3.11,3.11,0,0,0,6.19.51,3,3,0,0,0-2.73-3.34h-.11A2.89,2.89,0,0,0,176.86,219.32Z" transform="translate(-91.35 -202.08)"/><g class="cls-8"><path d="M169.81,221.59a.24.24,0,0,0,.25-.25.25.25,0,0,0-.18-.24l-1.49-.46,1-2.32a.25.25,0,0,0-.12-.33.26.26,0,0,0-.34.13h0l-1.16,2.58a.26.26,0,0,0,.13.33h0l1.76.54Z" transform="translate(-91.35 -202.08)"/></g><path class="cls-9" d="M172.72,223.3a12.85,12.85,0,0,1-4.6-.38,2.39,2.39,0,0,0,4.6.38Z" transform="translate(-91.35 -202.08)"/><path class="cls-12" d="M95.46,231.3a.48.48,0,0,1,0-1l15-1.24a.49.49,0,0,1,.52.43.48.48,0,0,1-.44.51l-15,1.24Z" transform="translate(-91.35 -202.08)"/><path class="cls-12" d="M95.72,234.58a.47.47,0,0,1-.47-.47.48.48,0,0,1,.43-.48l8.06-.68a.47.47,0,0,1,.52.42.48.48,0,0,1-.43.52h0l-8.06.69Z" transform="translate(-91.35 -202.08)"/><path class="cls-12" d="M96,236.87a.47.47,0,0,1-.48-.47.48.48,0,0,1,.44-.48l6.07-.52a.49.49,0,0,1,.52.44.47.47,0,0,1-.44.51l-6.07.52Z" transform="translate(-91.35 -202.08)"/><path class="cls-12" d="M96.19,239.26a.47.47,0,0,1-.48-.47.48.48,0,0,1,.44-.48l6.07-.51a.47.47,0,0,1,.52.42.47.47,0,0,1-.42.52h0l-6.07.52Z" transform="translate(-91.35 -202.08)"/><path class="cls-12" d="M96.54,243.92a.48.48,0,0,1,0-.95l4.55-.38a.47.47,0,1,1,.08.94l-4.55.39Z" transform="translate(-91.35 -202.08)"/><path class="cls-12" d="M96.32,241.71a.48.48,0,0,1,0-1l7.25-.62a.48.48,0,0,1,.08,1l-7.25.62Z" transform="translate(-91.35 -202.08)"/><path class="cls-12" d="M111,233.14a.48.48,0,0,1,0-.95l2.19-.19a.48.48,0,0,1,.5.45.47.47,0,0,1-.42.5l-2.19.19Z" transform="translate(-91.35 -202.08)"/><path class="cls-12" d="M111.34,235.43a.47.47,0,0,1-.47-.48.46.46,0,0,1,.43-.47l1.88-.16a.47.47,0,0,1,.51.43.49.49,0,0,1-.43.52l-1.88.16Z" transform="translate(-91.35 -202.08)"/><path class="cls-12" d="M111.49,237.82a.47.47,0,0,1-.47-.48.48.48,0,0,1,.43-.47l2-.17a.47.47,0,0,1,.08.94l-2,.18Z" transform="translate(-91.35 -202.08)"/><path class="cls-12" d="M111.85,242.48a.47.47,0,0,1-.48-.47.48.48,0,0,1,.44-.48l2-.16a.47.47,0,0,1,.52.42.48.48,0,0,1-.43.52h0l-2,.17Z" transform="translate(-91.35 -202.08)"/><path class="cls-12" d="M111.62,240.26a.46.46,0,0,1-.47-.47.47.47,0,0,1,.43-.47l1.88-.16a.47.47,0,0,1,.52.42.47.47,0,0,1-.42.52h0l-1.88.16Z" transform="translate(-91.35 -202.08)"/><path class="cls-12" d="M106.41,251a.48.48,0,0,1-.48-.47.48.48,0,0,1,.44-.48l8-.68a.47.47,0,1,1,.08.94l-8,.69Z" transform="translate(-91.35 -202.08)"/><path class="cls-12" d="M108.4,252.86a.48.48,0,0,1,0-1l6.08-.51a.47.47,0,0,1,.08.94l-6.08.52Z" transform="translate(-91.35 -202.08)"/><path class="cls-4" d="M98.18,222.19l10.34-.86a1.09,1.09,0,0,1,1.18,1h0l.22,2.58h0l-12.51,1h0l-.22-2.58A1.09,1.09,0,0,1,98.18,222.19Z" transform="translate(-91.35 -202.08)"/><rect class="cls-4" x="191.49" y="243.91" width="11.02" height="16.72" transform="translate(-176.79 -100.4) rotate(-23.95)"/></g><g id="Doctor"><path class="cls-4" d="M287.67,435.69a188.39,188.39,0,0,1-34.45,3.38h-1.41q-5.33,0-10.54-.29-3-.15-5.93-.41l5.95-.37,11.91-.73,34.45-2.13Z" transform="translate(-91.35 -202.08)"/><path class="cls-3" d="M259.75,326.29c0-.17,0-.33,0-.49,0-1.65.07-3.44.23-5.39l-2-.38-12.4-2.3a53.52,53.52,0,0,1-.15,9.64c0,.36-.09.73-.14,1.1a.3.3,0,0,1,0,.1q-.1.74-.24,1.47c-.06.32-.12.63-.19.95a12.28,12.28,0,0,1-.28,1.2c-.11.4-.22.79-.35,1.18s-.24.77-.38,1.14a16.18,16.18,0,0,1-1,2.12h0a10.6,10.6,0,0,1-2.82,3.45h22.71C261.29,337.64,259.83,333.4,259.75,326.29Z" transform="translate(-91.35 -202.08)"/><path class="cls-6" d="M242.8,336.65l12-9.18-9.42-.1A26,26,0,0,1,242.8,336.65Z" transform="translate(-91.35 -202.08)"/><path class="cls-3" d="M268.17,313c-1,5.77-4.15,11.24-9.25,13.11-6.05,2.21-10.53,2.36-17.5,2.36-9.52,0-9.21-9.92-9.47-19.92s.53-20.82,4.29-24.32c7.51-7,29.54-2.56,32.22,9.12C269.85,299.43,269.12,307.53,268.17,313Z" transform="translate(-91.35 -202.08)"/><path class="cls-7" d="M226.85,290.07s-3.9-.87-2.83-4.76c.7-2.58,4-2,4-2s-3.13-.57-3.13-3.3c0-1.72,1.32-4.64,5.31-3,4.67,1.95,10,1.7,14.07,1a46.18,46.18,0,0,1,7-1h0a26.88,26.88,0,0,1,8,1.06c7.25,2.17,18.23,8.68,15.89,23.42-2.6,16.45-10.32,22.74-13.72,24.76a1.55,1.55,0,0,1-2.12-.53,1.44,1.44,0,0,1-.16-.33c-1-3.09-2.62-10.85-2.15-26.84-22.3-1.1-28.71-1.43-28.71-1.43s-5.25.2-5.25-3.64S226.85,290.07,226.85,290.07Z" transform="translate(-91.35 -202.08)"/><circle class="cls-7" cx="154.2" cy="105.18" r="1.31"/><circle class="cls-7" cx="143.86" cy="104.33" r="1.31"/><path class="cls-7" d="M232.94,303.63h0l3.47-.05a.62.62,0,1,0,0-1.23h0l-3.47,0a.62.62,0,0,0,0,1.24Z" transform="translate(-91.35 -202.08)"/><path class="cls-7" d="M248.38,304.89a.61.61,0,0,0,.14-1.21l-3.42-.83a.62.62,0,0,0-.74.46.61.61,0,0,0,.45.74l3.42.82A.39.39,0,0,0,248.38,304.89Z" transform="translate(-91.35 -202.08)"/><path class="cls-3" d="M252.36,310.47a5.55,5.55,0,0,0,11.07.91,5.45,5.45,0,0,0-5.08-6C254.39,305.26,252.61,307.41,252.36,310.47Z" transform="translate(-91.35 -202.08)"/><g class="cls-8"><path d="M239.73,314.53a.45.45,0,0,0,.13-.88l-2.66-.82,1.86-4.15a.45.45,0,1,0-.82-.37l-2.08,4.62a.45.45,0,0,0,.23.59l.05,0,3.16,1A.3.3,0,0,0,239.73,314.53Z" transform="translate(-91.35 -202.08)"/></g><path class="cls-9" d="M244.94,317.58s-4.84.52-8.23-.67c0,0,0,3.18,3.86,3.5S244.94,317.58,244.94,317.58Z" transform="translate(-91.35 -202.08)"/><path class="cls-10" d="M286.53,420c.93,5.19,2.09,10.4,3.18,15.3-.68.14-1.36.28-2,.4a188.39,188.39,0,0,1-34.45,3.38h-1.41q-5.33,0-10.54-.29-3-.15-5.93-.41a184.72,184.72,0,0,1-21.69-3.14c.91-5.69,1.88-12,2.55-18.83h0a158.47,158.47,0,0,0,.83-17.83c-.07-6.72-1.07-14.08-1.92-21.3h0c-2.33-19.71-3.51-38.27,18.45-39.21H234l2,0h.18c.05,1.17,1.79,2.06,4.43,2.68h.05c5.61,1.3,15.22,1.36,21.39.18l.17,0a13.85,13.85,0,0,0,4.53-1.54,3.34,3.34,0,0,0,.48-.36,1.8,1.8,0,0,0,.63-1.05h.78c.74,0,1.46.05,2.17.11,7.35.53,13.36,3,17,6.69,9.47,9.47,4.91,23.4.8,37.24-.14.46-.27.92-.41,1.38a92.42,92.42,0,0,0-3.3,14.14v0c-.11.85-.19,1.68-.25,2.51s-.07,1.48-.07,2.21A102.81,102.81,0,0,0,286.53,420Z" transform="translate(-91.35 -202.08)"/><path class="cls-3" d="M236.06,337.34c.23,5,2.94,12.29,11.28,12.84,11.12.73,19.75-7.88,20.4-13h-3.17c-4,0-22,0-25.56.09Z" transform="translate(-91.35 -202.08)"/><path class="cls-11" d="M291.06,420.48c.46,4.52.94,9.29,1.42,14.23-.92.2-1.84.4-2.77.58-.68.14-1.36.28-2,.4a188.39,188.39,0,0,1-34.45,3.38c0-.6,0-1.2,0-1.79-.07-7.29-.08-14.27,0-20.86,0-1.92.06-3.79.11-5.63h0c0-.69,0-1.38.06-2.06,0-.19,0-.38,0-.58q.18-6,.52-11.48c.13-2.06.27-4.05.44-6h0c.07-.95.16-1.86.25-2.77,1.22-12.35,4.58-31,6.65-41.88h0c.38-2,.72-3.8,1-5.2.05-.25.1-.5.14-.73s.06-.26.08-.39c.3-1.52.47-2.4.49-2.47h.14c.41,0,1.67-.09,3.44-.09h.3c.57,0,1.19,0,1.85,0l2,.09a42.21,42.21,0,0,1,12.93,2.61c8.72,3.62,12.29,22.83,15.6,37.16q.35,1.52.69,2.94s0,.06,0,.08l-9.61,33.66q.33,3.27.68,6.76Z" transform="translate(-91.35 -202.08)"/><path class="cls-14" d="M263,337.17s-9.62,37-9.62,75.12L270,359l-5.35-6.73,7.5-5.3-1.41-9.76C268.31,336.75,263,337.17,263,337.17Z" transform="translate(-91.35 -202.08)"/><path class="cls-11" d="M242.14,388.46c0,1.11,0,2.48,0,4.08,0,2.56-.07,5.72-.13,9.37q-.06,4-.15,8.7h0c0,.63,0,1.26,0,1.91s0,1.22,0,1.84c-.13,7.07-.3,15.08-.48,23.64,0,.26,0,.52,0,.78q-3-.15-5.93-.41a184.72,184.72,0,0,1-21.69-3.14c-1.57-.32-3.12-.66-4.67-1q1.14-9.51,2.14-17h0c2-15.34,3.54-24.68,4-28.71l-11.63-6.3-.33-.18s.9-3.3,2.4-8.06l0-.13c3.55-11.3,10.38-30.65,16.39-33.92,3.74-2,8.86-2.33,11.92-2.46h.11c3.73-.17,6.4-.17,6.4-.17v.07c0,.23.06,1,.14,2.27h0q0,.24,0,.51t0,.57c.1,1.82.23,4.3.38,7.27h0c.1,2.05.2,4.33.31,6.79v0c.06,1.33.11,2.72.17,4.15v0c.14,3.88.28,8.07.39,12.42v0c0,1,.05,2,.07,3h0C242.08,379,242.14,383.75,242.14,388.46Z" transform="translate(-91.35 -202.08)"/><path class="cls-14" d="M240.46,337.17s3.19,41.33,1.43,73.69L231.78,359l4.85-6-6.09-4.6L234,337.35Z" transform="translate(-91.35 -202.08)"/><path class="cls-3" d="M246.32,414.29s-19.58,1.79-27-9.43a1.71,1.71,0,0,1,.47-2.37,1.74,1.74,0,0,1,1.35-.24c6.86,1.68,21.1,4.58,20.86-.35l10.85,3.34Z" transform="translate(-91.35 -202.08)"/><path class="cls-11" d="M299.17,421.29a9.86,9.86,0,0,0,9.85-9.87,9.74,9.74,0,0,0-.37-2.68L299.28,377l-17.79,8.18,4.21,14.86-39.93-4.29-2.1,19.61,54.44,5.84C298.46,421.27,298.82,421.28,299.17,421.29Z" transform="translate(-91.35 -202.08)"/><path class="cls-11" d="M204.47,418.07a10.39,10.39,0,0,0,1.47-.11l61.31-9.28-2.95-19.5L219.46,396,225,380.9l-19.36-7.11-10.43,31a9.88,9.88,0,0,0,9.26,13.26Z" transform="translate(-91.35 -202.08)"/><path class="cls-3" d="M264.73,391.65s10.36-.73,14.37,7.65l-13.65-1.23Z" transform="translate(-91.35 -202.08)"/><polygon class="cls-13" points="176.81 158.02 177.36 134.95 175.51 134.92 174.87 157.92 176.81 158.02"/><path class="cls-13" d="M233.65,352l.41-14.63,2-.06-.22,14.71a9.51,9.51,0,0,1,8.32,9.42v11.35H242V361.47a7.3,7.3,0,1,0-14.6-.11v11.46h-2.19V361.47A9.51,9.51,0,0,1,233.65,352Z" transform="translate(-91.35 -202.08)"/><circle class="cls-13" cx="175.9" cy="159.65" r="4.25"/><circle class="cls-13" cx="151.74" cy="170.74" r="1.88"/><circle class="cls-13" cx="134.99" cy="170.74" r="1.88"/></g></svg>