<svg id="Layer_1" data-name="Layer 1" xmlns="http://www.w3.org/2000/svg" viewBox="0 0 512 512"><defs><style>.cls-1{fill:#4aa2ff;}</style></defs><path class="cls-1" d="M226.74,1.64C111.26,14.52,17.47,106.2,2.29,221.4-19.23,384.64,114.22,523.51,275.87,511.24c59.47-4.51,115.13-31.08,158.74-71.75l3.75-3.5a10.66,10.66,0,0,0,.52-15.07l-14.55-15.61a10.67,10.67,0,0,0-15.08-.52l-7.8,7.27c-48.51,45.23-115.11,65.58-182.29,54.14C124,450,50.75,369.15,43.32,272.85c-9.83-127.34,92.89-233.76,219-230.09,116.29,3.38,207,102.61,207,219v15.62a42.7,42.7,0,0,1-46.92,42.46C400.25,317.64,384,297.71,384,275.44V181.33a10.67,10.67,0,0,0-10.67-10.66H352a10.63,10.63,0,0,0-9.62,6.2,117.24,117.24,0,1,0,11.35,143.92c15.84,26.48,45.28,43.93,78.78,41.68,45.31-3,79.49-42.74,79.49-88.15V256C512,105.2,380.93-15.57,226.74,1.64Zm29.26,329A74.67,74.67,0,1,1,330.67,256,74.76,74.76,0,0,1,256,330.67Z" transform="translate(0 0)"/></svg>