<svg id="Layer_1" data-name="Layer 1" xmlns="http://www.w3.org/2000/svg" viewBox="0 0 473.68 500.63"><defs><style>.cls-1{fill:#4aa2ff;}</style></defs><g id="_01_Hospital" data-name="01 Hospital"><path class="cls-1" d="M397.59,470.13a5.22,5.22,0,0,0,5.21,5.22h34.59a5.22,5.22,0,0,0,5.21-5.22V387.58a5.21,5.21,0,0,0-5.21-5.21H402.8a5.21,5.21,0,0,0-5.21,5.21ZM408,392.8h24.15v72.12H408Z" transform="translate(-19.16 -5.68)"/><path class="cls-1" d="M402.8,351.71h34.59a5.21,5.21,0,0,0,5.21-5.21V264a5.21,5.21,0,0,0-5.21-5.21H402.8a5.21,5.21,0,0,0-5.21,5.21V346.5A5.21,5.21,0,0,0,402.8,351.71ZM408,269.17h24.15v72.11H408Z" transform="translate(-19.16 -5.68)"/><path class="cls-1" d="M24.37,495.89a5.22,5.22,0,0,0,0,10.43H487.62a5.22,5.22,0,1,0,0-10.43H473.57V238.2h14.05a5.22,5.22,0,1,0,0-10.43H392.69a5.22,5.22,0,0,0,0,10.43h70.45V495.89H326V421.37h9.16a5.22,5.22,0,1,0,0-10.43H176.83a5.22,5.22,0,0,0,0,10.43H186v74.52H145.38V183.66a5.22,5.22,0,1,0-10.43,0v44.11H24.37a5.22,5.22,0,0,0,0,10.43H38.43V495.89Zm172.06-74.52H315.57v74.52H261.22V437a5.22,5.22,0,1,0-10.43,0v58.87H196.43V421.37ZM48.86,238.2H135V495.89H48.86Z" transform="translate(-19.16 -5.68)"/><path class="cls-1" d="M123,156.33,137,167a5.18,5.18,0,0,0,3.15,1.06H264.76a5.22,5.22,0,1,0,0-10.43H141.93L129.31,148a5.09,5.09,0,0,1,3.1-9.15H379.59A5.09,5.09,0,0,1,382.7,148l-12.63,9.57H348.83a5.22,5.22,0,1,0,0,10.43h17.79V480.24a5.22,5.22,0,1,0,10.43,0V165.39l12-9.07c11.86-9,5.47-27.88-9.42-27.88H241.92V112.29a52.32,52.32,0,0,0,28.16,0v.49a5.22,5.22,0,0,0,10.43,0v-4.49a54.24,54.24,0,1,0-49,0v20.15H132.41C117.5,128.44,111.15,147.3,123,156.33ZM212.21,60a43.79,43.79,0,1,1,43.84,43.84A43.9,43.9,0,0,1,212.21,60Z" transform="translate(-19.16 -5.68)"/><path class="cls-1" d="M327.86,168a5.22,5.22,0,1,0,0-10.43H310.39a5.22,5.22,0,0,0,0,10.43Z" transform="translate(-19.16 -5.68)"/><path class="cls-1" d="M109.2,382.37H74.61a5.22,5.22,0,0,0-5.21,5.22v82.54a5.22,5.22,0,0,0,5.21,5.22H109.2a5.22,5.22,0,0,0,5.21-5.22V387.59A5.22,5.22,0,0,0,109.2,382.37ZM104,464.92H79.83V392.8H104Z" transform="translate(-19.16 -5.68)"/><path class="cls-1" d="M109.2,258.73H74.61A5.22,5.22,0,0,0,69.4,264V346.5a5.21,5.21,0,0,0,5.21,5.21H109.2a5.21,5.21,0,0,0,5.21-5.21V264A5.22,5.22,0,0,0,109.2,258.73ZM104,341.28H79.83V269.16H104Z" transform="translate(-19.16 -5.68)"/><path class="cls-1" d="M261.22,74.67v-9.5h9.5a5.22,5.22,0,0,0,0-10.43h-9.5v-9.5a5.22,5.22,0,1,0-10.43,0v9.5h-9.51a5.22,5.22,0,0,0,0,10.43h9.51v9.5a5.22,5.22,0,1,0,10.43,0Z" transform="translate(-19.16 -5.68)"/><path class="cls-1" d="M208.7,202.46a5.21,5.21,0,0,0-5.21-5.21H169.91a5.22,5.22,0,0,0-5.22,5.21V236a5.22,5.22,0,0,0,5.22,5.22h33.58A5.22,5.22,0,0,0,208.7,236Zm-10.43,28.37H175.12V207.68h23.15Z" transform="translate(-19.16 -5.68)"/><path class="cls-1" d="M278,202.46a5.21,5.21,0,0,0-5.21-5.21H239.21a5.21,5.21,0,0,0-5.21,5.21V236a5.22,5.22,0,0,0,5.21,5.22h33.58A5.22,5.22,0,0,0,278,236Zm-10.43,28.37H244.43V207.68h23.14Z" transform="translate(-19.16 -5.68)"/><path class="cls-1" d="M347.31,202.46a5.22,5.22,0,0,0-5.22-5.21H308.51a5.21,5.21,0,0,0-5.21,5.21V236a5.22,5.22,0,0,0,5.21,5.22h33.58a5.22,5.22,0,0,0,5.22-5.22Zm-10.43,28.37H313.73V207.68h23.15Z" transform="translate(-19.16 -5.68)"/><path class="cls-1" d="M208.7,272.69a5.22,5.22,0,0,0-5.21-5.22H169.91a5.22,5.22,0,0,0-5.22,5.22v33.58a5.22,5.22,0,0,0,5.22,5.21h33.58a5.21,5.21,0,0,0,5.21-5.21Zm-10.43,28.36H175.12V277.9h23.15Z" transform="translate(-19.16 -5.68)"/><path class="cls-1" d="M278,272.69a5.22,5.22,0,0,0-5.21-5.22H239.21a5.22,5.22,0,0,0-5.21,5.22v33.58a5.21,5.21,0,0,0,5.21,5.21h33.58a5.21,5.21,0,0,0,5.21-5.21Zm-10.43,28.36H244.43V277.9h23.14Z" transform="translate(-19.16 -5.68)"/><path class="cls-1" d="M347.31,272.69a5.22,5.22,0,0,0-5.22-5.22H308.51a5.22,5.22,0,0,0-5.21,5.22v33.58a5.21,5.21,0,0,0,5.21,5.21h33.58a5.22,5.22,0,0,0,5.22-5.21Zm-10.43,28.36H313.73V277.9h23.15Z" transform="translate(-19.16 -5.68)"/><path class="cls-1" d="M203.49,337.7H169.91a5.22,5.22,0,0,0-5.22,5.22V376.5a5.22,5.22,0,0,0,5.22,5.21h33.58a5.21,5.21,0,0,0,5.21-5.21V342.92A5.22,5.22,0,0,0,203.49,337.7Zm-5.22,33.58H175.12V348.13h23.15Z" transform="translate(-19.16 -5.68)"/><path class="cls-1" d="M272.79,337.7H239.21a5.22,5.22,0,0,0-5.21,5.22V376.5a5.21,5.21,0,0,0,5.21,5.21h33.58A5.21,5.21,0,0,0,278,376.5V342.92A5.22,5.22,0,0,0,272.79,337.7Zm-5.22,33.58H244.43V348.13h23.14Z" transform="translate(-19.16 -5.68)"/><path class="cls-1" d="M342.09,337.7H308.51a5.22,5.22,0,0,0-5.21,5.22V376.5a5.21,5.21,0,0,0,5.21,5.21h33.58a5.22,5.22,0,0,0,5.22-5.21V342.92A5.22,5.22,0,0,0,342.09,337.7Zm-5.21,33.58H313.73V348.13h23.15Z" transform="translate(-19.16 -5.68)"/></g></svg>