<svg id="Capa_1" data-name="Capa 1" xmlns="http://www.w3.org/2000/svg" viewBox="0 0 401.03 401.03"><defs><style>.cls-1{fill:#4aa2ff;}</style></defs><path class="cls-1" d="M201.85,198.63a15.74,15.74,0,0,0-15.72-15.72H147.56a15.74,15.74,0,0,0-15.72,15.72v57.66A15.74,15.74,0,0,0,147.56,272h38.57a15.74,15.74,0,0,0,15.72-15.72Zm-54.29-4h38.57a4,4,0,0,1,4,4v4.08H143.59v-4.08A4,4,0,0,1,147.56,194.66Zm38.57,65.6H147.56a4,4,0,0,1-4-4V214.46H190.1v41.83a4,4,0,0,1-4,4Z" transform="translate(-55.48 -55.49)"/><path class="cls-1" d="M291,198.63a15.73,15.73,0,0,0-15.71-15.72H236.72A15.74,15.74,0,0,0,221,198.63v57.66A15.74,15.74,0,0,0,236.72,272h38.57A15.73,15.73,0,0,0,291,256.29Zm-54.29-4h38.57a4,4,0,0,1,4,4v4.08h-46.5v-4.08a4,4,0,0,1,4-4Zm38.58,65.6H236.72a4,4,0,0,1-4-4V214.46h46.5v41.83A4,4,0,0,1,275.29,260.26Z" transform="translate(-55.48 -55.49)"/><path class="cls-1" d="M380.15,198.63a15.73,15.73,0,0,0-15.71-15.72H325.87a15.74,15.74,0,0,0-15.72,15.72v57.66A15.74,15.74,0,0,0,325.87,272h38.57a15.73,15.73,0,0,0,15.71-15.72Zm-54.28-4h38.57a4,4,0,0,1,4,4v4.08H321.9v-4.08a4,4,0,0,1,4-4Zm38.57,65.6H325.87a4,4,0,0,1-4-4V214.46h46.51v41.83a4,4,0,0,1-4,4Z" transform="translate(-55.48 -55.49)"/><path class="cls-1" d="M186.13,295.74H147.56a15.74,15.74,0,0,0-15.72,15.71v57.67a15.73,15.73,0,0,0,15.72,15.71h38.57a15.73,15.73,0,0,0,15.72-15.71V311.45A15.73,15.73,0,0,0,186.13,295.74Zm-38.57,11.74h38.57a4,4,0,0,1,4,4v4.08H143.59v-4.08A4,4,0,0,1,147.56,307.48Zm38.57,65.61H147.56a4,4,0,0,1-4-4V327.28H190.1v41.84A4,4,0,0,1,186.13,373.09Z" transform="translate(-55.48 -55.49)"/><path class="cls-1" d="M275.29,295.74H236.72A15.73,15.73,0,0,0,221,311.45v57.67a15.73,15.73,0,0,0,15.72,15.71h38.57A15.73,15.73,0,0,0,291,369.12V311.45A15.73,15.73,0,0,0,275.29,295.74Zm-38.58,11.74h38.57a4,4,0,0,1,4,4v4.08h-46.5v-4.08A4,4,0,0,1,236.71,307.48Zm38.58,65.61H236.72a4,4,0,0,1-4-4V327.28h46.5v41.84A4,4,0,0,1,275.29,373.09Z" transform="translate(-55.48 -55.49)"/><path class="cls-1" d="M364.44,295.74H325.87a15.73,15.73,0,0,0-15.72,15.71v57.67a15.73,15.73,0,0,0,15.72,15.71h38.57a15.73,15.73,0,0,0,15.71-15.71V311.45A15.73,15.73,0,0,0,364.44,295.74Zm-38.57,11.74h38.57a4,4,0,0,1,4,4v4.08H321.9v-4.08a4,4,0,0,1,4-4Zm38.57,65.61H325.87a4,4,0,0,1-4-4V327.28h46.51v41.84a4,4,0,0,1-4,4Z" transform="translate(-55.48 -55.49)"/><path class="cls-1" d="M432.54,408.56H409.83V170.64a5.88,5.88,0,0,0-11.75,0V408.56H113.92V356.69a5.88,5.88,0,0,0-11.75,0v51.87H79.46a24,24,0,0,0,0,48H432.54a24,24,0,0,0,0-48Zm0,36.21H79.46a12.23,12.23,0,1,1,0-24.46H432.54a12.23,12.23,0,0,1,0,24.46Z" transform="translate(-55.48 -55.49)"/><path class="cls-1" d="M102.17,126.51V333.19a5.88,5.88,0,1,0,11.75,0V127.79H173v21.69a27.06,27.06,0,0,0,27,27H311.93a27.06,27.06,0,0,0,27-27V127.79h59.11v19.35a5.88,5.88,0,1,0,11.75,0V126.5a24,24,0,0,0-7.73-46.67H338.83a27.06,27.06,0,0,0-26.9-24.34H200.07a27.06,27.06,0,0,0-26.9,24.35H109.9a24,24,0,0,0-17,40.92,23.68,23.68,0,0,0,9.22,5.75ZM410.75,95.17A12.23,12.23,0,0,1,402.1,116H339V91.58H402.1A12.16,12.16,0,0,1,410.75,95.17Zm-226-12.65a15.31,15.31,0,0,1,15.29-15.29H311.93a15.31,15.31,0,0,1,15.29,15.29v67a15.3,15.3,0,0,1-15.29,15.28H200.07a15.3,15.3,0,0,1-15.29-15.28ZM109.9,91.58H173V116H109.9a12.23,12.23,0,0,1,0-24.46Z" transform="translate(-55.48 -55.49)"/><path class="cls-1" d="M227.26,135.07h9.67v9.67a11.54,11.54,0,0,0,11.52,11.52h15.11a11.53,11.53,0,0,0,11.51-11.52v-9.67h9.67a11.54,11.54,0,0,0,11.52-11.52V108.44a11.53,11.53,0,0,0-11.52-11.51h-9.67V87.26a11.53,11.53,0,0,0-11.51-11.52H248.45a11.54,11.54,0,0,0-11.52,11.52v9.67h-9.67a11.53,11.53,0,0,0-11.52,11.51v15.11A11.53,11.53,0,0,0,227.26,135.07Zm.23-26.39H242.8a5.88,5.88,0,0,0,5.88-5.88V87.49h14.64V102.8a5.88,5.88,0,0,0,5.88,5.88h15.31v14.64H269.2a5.88,5.88,0,0,0-5.88,5.88v15.31H248.68V129.2a5.88,5.88,0,0,0-5.88-5.88H227.49Z" transform="translate(-55.48 -55.49)"/></svg>