<svg id="Layer_1" data-name="Layer 1" xmlns="http://www.w3.org/2000/svg" viewBox="0 0 297 297"><defs><style>.cls-1{fill:#4aa2ff;}</style></defs><path class="cls-1" d="M107.88,0H22.61A22.63,22.63,0,0,0,0,22.61v85.27a22.63,22.63,0,0,0,22.61,22.61h85.27a22.63,22.63,0,0,0,22.61-22.61V22.61A22.63,22.63,0,0,0,107.88,0Z" transform="translate(0)"/><path class="cls-1" d="M274.39,0H189.12a22.63,22.63,0,0,0-22.61,22.61v85.27a22.63,22.63,0,0,0,22.61,22.61h85.27A22.63,22.63,0,0,0,297,107.88V22.61A22.63,22.63,0,0,0,274.39,0Z" transform="translate(0)"/><path class="cls-1" d="M107.88,166.51H22.61A22.63,22.63,0,0,0,0,189.12v85.27A22.63,22.63,0,0,0,22.61,297h85.27a22.63,22.63,0,0,0,22.61-22.61V189.12A22.63,22.63,0,0,0,107.88,166.51Z" transform="translate(0)"/><path class="cls-1" d="M274.39,166.51H189.12a22.63,22.63,0,0,0-22.61,22.61v85.27A22.63,22.63,0,0,0,189.12,297h85.27A22.63,22.63,0,0,0,297,274.39V189.12A22.63,22.63,0,0,0,274.39,166.51Z" transform="translate(0)"/></svg>