<svg id="Layer_1" data-name="Layer 1" xmlns="http://www.w3.org/2000/svg" viewBox="0 0 512 459.5"><defs><style>.cls-1{fill:#4aa2ff;}</style></defs><path class="cls-1" d="M489.5,467h-38V280H470a7.5,7.5,0,0,0,7.25-9.41l-33-125A7.49,7.49,0,0,0,437,140H370.5V64A11.51,11.51,0,0,0,359,52.5H321.31a7.5,7.5,0,0,0,0,15H355.5V210h-199V67.5H287.77a7.5,7.5,0,0,0,0-15H153A11.51,11.51,0,0,0,141.5,64v76H75a7.5,7.5,0,0,0-7.25,5.59l-33,125A7.5,7.5,0,0,0,42,280H60.5v7.56a7.5,7.5,0,0,0,15,0V280h361V467H392V322.5a7.5,7.5,0,0,0-7.5-7.5h-258a7.5,7.5,0,0,0-7.5,7.5V467H75.5V319.77a7.5,7.5,0,0,0-15,0V467h-38a22.5,22.5,0,0,0,0,45h362a7.5,7.5,0,0,0,0-15H22.5a7.5,7.5,0,0,1,0-15h467a7.5,7.5,0,0,1,0,15H416.08a7.5,7.5,0,1,0,0,15H489.5a22.5,22.5,0,0,0,0-45ZM51.74,265l29-110H141.5v58.5A11.51,11.51,0,0,0,153,225H359a11.51,11.51,0,0,0,11.5-11.5V155h60.73l29,110ZM327,330V467H184V330ZM134,467V330h35V467Zm208,0V330h35V467Z" transform="translate(0 -52.5)"/><path class="cls-1" d="M282.79,92.89a10.37,10.37,0,0,0-10.36-10.35H239.57a10.36,10.36,0,0,0-10.35,10.35v20.36H208.86a10.37,10.37,0,0,0-10.36,10.36v32.85a10.37,10.37,0,0,0,10.36,10.36h20.36v20.36a10.36,10.36,0,0,0,10.35,10.35h32.86a10.37,10.37,0,0,0,10.36-10.35V166.82h20.35a10.37,10.37,0,0,0,10.36-10.36V123.61a10.37,10.37,0,0,0-10.36-10.36H282.79Zm15.71,35.36v23.57H278.14a10.37,10.37,0,0,0-10.35,10.36v20.36H244.22V162.18a10.37,10.37,0,0,0-10.36-10.36H213.5V128.25h20.36a10.37,10.37,0,0,0,10.35-10.36V97.54h23.58v20.35a10.37,10.37,0,0,0,10.35,10.36Z" transform="translate(0 -52.5)"/></svg>