<svg xmlns="http://www.w3.org/2000/svg" xmlns:xlink="http://www.w3.org/1999/xlink" viewBox="0 0 186.87 186.87"><defs><style>.cls-1{fill:url(#linear-gradient);}.cls-2{fill:url(#linear-gradient-2);}</style><linearGradient id="linear-gradient" x1="14.39" y1="126.59" x2="204.43" y2="46.89" gradientUnits="userSpaceOnUse"><stop offset="0" stop-color="#16c"/><stop offset="0.06" stop-color="#126cd9"/><stop offset="0.18" stop-color="#1375ea"/><stop offset="0.32" stop-color="#147bf6"/><stop offset="0.51" stop-color="#157efd"/><stop offset="1" stop-color="#157fff"/></linearGradient><linearGradient id="linear-gradient-2" x1="319.91" y1="360" x2="400.09" y2="360" gradientUnits="userSpaceOnUse"><stop offset="0" stop-color="#fff"/><stop offset="1" stop-color="#f5f5f5"/></linearGradient></defs><g id="background"><rect class="cls-1" width="186.87" height="186.87" rx="14.74"/></g><g id="tbhree"><path class="cls-2" d="M397.55,303.75l1.53,2.88-30.79,40.6c13.53.68,31.8,11.5,31.8,32.14,0,22.84-19.28,36.88-43.64,36.88-17.26,0-29.44-4.23-36.54-9l6.6-16.07,2.7-.17c3.72,2.2,12.69,6.77,23.52,6.77,12.68,0,24.69-6.6,24.69-19.63,0-12.85-15.05-24.69-38.9-16.07L336,358.39,363.55,323H324.48V303.75Z" transform="translate(-266.56 -266.56)"/></g></svg>