<svg id="Main_Full_Logo" data-name="Main Full Logo" xmlns="http://www.w3.org/2000/svg" xmlns:xlink="http://www.w3.org/1999/xlink" viewBox="0 0 365 200.66"><defs><style>.cls-1{font-size:24.39px;fill:#fcfbfa;font-family:TransatTextLight, Transat Text;}.cls-2{letter-spacing:-0.01em;}.cls-3{letter-spacing:-0.03em;}.cls-4{letter-spacing:-0.01em;}.cls-5{letter-spacing:0em;}.cls-6{letter-spacing:-0.02em;}.cls-7{fill:url(#linear-gradient);}.cls-8{fill:url(#linear-gradient-2);}.cls-9{fill:url(#linear-gradient-3);}.cls-10{fill:url(#linear-gradient-4);}.cls-11{fill:url(#linear-gradient-5);}</style><linearGradient id="linear-gradient" x1="177.02" y1="357.25" x2="542.02" y2="357.25" gradientUnits="userSpaceOnUse"><stop offset="0" stop-color="#fcfbfa"/><stop offset="1" stop-color="#fefefe"/></linearGradient><linearGradient id="linear-gradient-2" x1="209.91" y1="348.02" x2="303.24" y2="348.02" xlink:href="#linear-gradient"/><linearGradient id="linear-gradient-3" x1="319.86" y1="348.7" x2="408.66" y2="348.7" xlink:href="#linear-gradient"/><linearGradient id="linear-gradient-4" x1="415.8" y1="348.7" x2="509.13" y2="348.7" xlink:href="#linear-gradient"/><linearGradient id="linear-gradient-5" x1="510.68" y1="402.11" x2="527.79" y2="402.11" xlink:href="#linear-gradient"/></defs><text class="cls-1" transform="translate(5.78 194.22)">MEDIC<tspan class="cls-2" x="75.01" y="0">AL</tspan><tspan x="104.06" y="0"> </tspan><tspan class="cls-3" x="110.16" y="0">C</tspan><tspan x="127.04" y="0">OMPL</tspan><tspan class="cls-4" x="193.69" y="0">IA</tspan><tspan class="cls-5" x="216.42" y="0">NCE G</tspan><tspan class="cls-6" x="290.14" y="0">R</tspan><tspan x="304.17" y="0">OUP</tspan></text><path class="cls-7" d="M537.81,276.45H181.22a4.21,4.21,0,0,0-4.2,4.21V421.24a4.21,4.21,0,0,0,4.2,4.21H419.87a15.11,15.11,0,0,0,14.89,12.6h22.7a5,5,0,0,0,5-5v-2.5a2.5,2.5,0,0,0-5,0v2.5h-22.4a10.29,10.29,0,0,1-10.35-9.13,10.11,10.11,0,0,1,10.05-11.07h22.7v2.5a2.5,2.5,0,0,0,5,0v-2.5a5,5,0,0,0-5-5h-22.7a15.11,15.11,0,0,0-14.89,12.6H182v-139H537v139H511.39a13.28,13.28,0,1,0,0,5h26.42a4.22,4.22,0,0,0,4.21-4.21V280.66A4.22,4.22,0,0,0,537.81,276.45ZM498.34,431.23a8.28,8.28,0,1,1,8.29-8.28A8.28,8.28,0,0,1,498.34,431.23Z" transform="translate(-177.02 -276.45)"/><path class="cls-8" d="M209.91,396.5v-97H215l41.64,50.79,41.65-50.79h4.95v97H285V343l-27.49,34.31h-1.65l-27.49-33.63V396.5Z" transform="translate(-177.02 -276.45)"/><path class="cls-9" d="M408.66,382.88c-5.91,6.26-17.18,15.52-38.21,15.52-28.32,0-50.59-21.38-50.59-50,0-30.09,24.75-49.43,51.41-49.43,19.79,0,31.2,8.85,37.11,14.3l-11.27,13.35c-4-3.95-12.92-11.17-25.56-11.17-18.15,0-31.76,14.57-31.76,32.82,0,17.7,12.1,33.36,32,33.36,11.13,0,21.17-6.13,25.57-10.76Z" transform="translate(-177.02 -276.45)"/><path class="cls-10" d="M474.63,345.43h34.5v36.49c-12.51,12.81-25.84,16.48-41.1,16.48-30.51,0-52.23-22.06-52.23-50C415.8,319.15,440,299,466.66,299c19.52,0,30.51,7.76,37.66,14.44l-11.55,13.21c-4.53-4.5-12.37-11.17-25.43-11.17-17.73,0-31.47,14.43-31.47,32.55,0,20.29,13.47,33.9,33.26,33.9,7.84,0,17.73-3,22-7.08v-14H474.63Z" transform="translate(-177.02 -276.45)"/><path class="cls-11" d="M527.79,402.11a1.85,1.85,0,0,1-1.85,1.85h-4.85v4.85a1.86,1.86,0,0,1-3.71,0V404h-4.85a1.85,1.85,0,1,1,0-3.7h4.85v-4.85a1.86,1.86,0,0,1,3.71,0v4.85h4.85A1.85,1.85,0,0,1,527.79,402.11Z" transform="translate(-177.02 -276.45)"/></svg>